<svg enable-background="new 0 0 2354 3705" viewBox="0 0 2354 3705" xmlns="http://www.w3.org/2000/svg"><g fill="#019add"><path d="m16 929c2.5 1.3 5 2.6 7.4 4.1 2.2 1.3 3.8 3.1 4.6 5.7 9.2 27.6 25 51.4 43.6 73.4 12.8 15.1 26.7 29.3 40.6 43.5 26.9 27.6 53.4 55.5 79 84.2 9.1 10.1 15.8 21.8 22.8 33.3 1.8 3 3.7 5.9 5.5 8.9.8 1.3 1.7 2.1 3.2 1.5 1.5-.5 1.2-1.8 1.2-2.9.2-8.1-1.2-15.9-3.4-23.6-4.9-17.5-9.3-35.1-10-53.3-.3-9.4.7-18.6 1.8-27.9 2.5-20.5 5-41 7.6-61.4 2.5-20.3 5.2-40.6 7.5-60.9 1.3-11.4 3.5-22.7 3.6-34.3.1-6.7 4.3-10.9 8.7-15.4 4.1 3.1 7 6.7 8.5 11.9 6.4 22.5 10.2 45.4 12.8 68.6 3.2 27.9 7 55.8 10.5 83.7 2.9 23.3 5.5 46.6 8.4 69.9 4.3 33.8 6.9 67.9 15.9 101 4.4 16.1 10.2 31.7 18.5 46.2 3.2 5.7 4.6 12 6.8 18.4-10-.9-18.9-2.7-27.4-7.8-55.4-33.5-108.9-69.6-158-111.9-23.4-20.1-46.2-40.8-64.5-66-25-34.4-40.8-72.6-48.4-114.4-1.7-9.3-3.2-18.6-6.9-27.4.1-15.8.1-31.4.1-47.1z"/><path d="m16 694c3.7-9.1 5.2-18.8 8-28.1 2.1-7 4-14.1 6-21.1.6-2.3 1.3-4.3 4.9-3.4 2.4 7.3 4.5 15.1 6.2 23 3.3 15.6 5.7 31.4 10.7 46.6 6.3 19.1 14 37.7 21.3 56.4 18.7 47.7 34.8 96.3 51.9 144.6 1.5 4.2 3 8.5 4.8 12.6 1.3 3 2.8 5.9 6.2 7.7 1.7-4.5 1.5-9.1 1.7-13.5 3.1-61 25.6-115 58.7-165.4 12.7-19.3 24.6-39.2 33.3-60.8 2.7-6.8 4.2-14.1 8.9-20 .5-.6.7-1.6 2.1-1.7 4 6.1 6 13 6.4 20.3.5 9.8-1.8 19.2-3.3 28.7-8.4 51.4-19 102.3-31.7 152.8-8.1 32.4-17.2 64.6-26.4 96.7-6.5 22.4-9.1 45.3-7.5 68.6.4 5.5.9 11 2.1 16.3 1.9 8.2 0 16.1-.7 24.8-4.6-2.7-8.4-5.5-11.3-9.3-31.7-40.6-63.4-81.1-94.9-121.8-19.3-24.9-30.7-53.5-39.2-83.5-7.9-27.2-13.2-55.1-17.2-83.3-.2-1.1 0-2.4-1-3.2 0-28 0-56 0-84z"/><path d="m1008.2 1463.8c-28-.3-60.4-2.2-92.6-6.5-83.1-11.1-161.9-35.9-236-75.2-82.4-43.7-153.4-101.5-212.8-173.4-65.5-79.3-111.6-168.7-138.3-268.1-8.6-32-14.7-64.5-18.7-97.4-4.6-37.6-6.1-75.4-4.5-113.2 3.8-90.4 23.9-177.1 61.1-259.8 32.1-71.4 74.8-135.8 128.4-192.8 86-91.4 188.8-155.8 308.6-192.9 38.9-12 78.6-20.3 118.9-25.3 37.1-4.6 74.4-6.3 111.7-4.9 89.8 3.4 176 22.6 258.2 59.3 134.5 60.1 240.6 152.9 318.2 278.1 41.1 66.4 69.7 137.9 86.3 214.2 6.7 30.8 11.2 61.9 13.5 93.3 2.6 35 2.6 69.9.5 104.9-6.2 101.2-31.5 197.1-79.7 286.7-27.5 51.2-61.3 97.9-100.4 140.8-50.6 55.6-107.7 103.2-172.7 141.1-64.1 37.3-132.6 63.1-205.4 77.5-46.1 9.1-92.8 13.2-144.3 13.6zm308.7-378.7c-.1-.4.1-1.1-.7-.5.3.1.6.2.7.5.1.6.4.9 1.1.9.7 1.1 1.3 2.2 2.2 3.2 6.5 7.2 13 14.5 19.5 21.6.6.6 1 1.8 2.3 1.2-.5.6-.1 1.1.3 1.5 0 0 .4-.1.4-.2.2-.7-.1-1.1-.7-1.3-3.4-6.8-8.7-12-14-17.3-3.1-3.1-5.9-6.7-10.1-8.7.1-.7-.2-1-1-.9zm-319.7 275.4c.6-7 .3-14-.1-21-.6-10-3.6-13.6-13.5-15.6-13.6-2.7-27.4-3.2-41.1-4.9-17.8-2.2-35.7-3.9-53.4-7.4-44.3-8.8-86.5-23.5-127.1-43.3-48.1-23.4-91.7-53.4-131.7-88.8-2.1-1.9-4.3-3.7-6.8-5.1-4.4-2.4-8.6-2.3-12.7.5-2 1.4-4 3-5.7 4.8-18 18-36.1 36-54.1 54.1-3.1 3.1-6.1 6.2-8.4 9.9-2.5 4-2.4 7.9.5 11.6 1.5 2 3.2 3.9 5.1 5.5 6.4 5.8 12.9 11.6 19.5 17.2 70 59.4 148.7 103.3 236.4 130.9 52.8 16.7 106.7 26.8 162 29.7 7.3.4 14.7.5 22 .3 5.9-.2 8.7-3.2 9.2-9.1.1-1.3.1-2.7.1-4-.2-21.6-.2-43.5-.2-65.3zm-611.8-612.5c14.2-.1 28.3-.1 42.5-.1 10.4 0 13.3-2.4 14.9-12.7 3.2-21.6 6.1-43.2 9.3-64.7 3.1-20.9 6.4-41.8 11.6-62.3 18-71.1 51.4-134.6 96-192.4 10.3-13.3 21.1-26.2 31.4-39.5 6-7.8 5.8-12.5-.9-19.5-19.3-20.3-39-40.1-59.3-59.5-8.4-8-15.2-7.5-23.5.6-5.5 5.4-10.2 11.5-15.1 17.3-26.5 30.9-50.7 63.5-71.3 98.6-24.5 41.7-42.6 86.1-57.9 131.7-10.3 30.6-18.6 61.7-23.3 93.8-2.3 16-4.2 32-5.9 48.1-1.6 15.9-3.5 31.8-5.2 47.6-.9 8.3 2.9 12.6 11.2 12.9h2c14.5.1 29 .1 43.5.1zm1247.6 23.8c0-.1 0-.2 0-.3-14.7 0-29.3.1-44 0-10.3-.1-13.7 2.7-15.2 13-.2 1.6-.5 3.3-.7 4.9-2.6 28.2-5.9 56.2-10.9 84.1-10.2 56.9-30.1 110.2-58.9 160.2-16.7 29-36.9 55.4-57.2 81.8-7.1 9.2-14.2 18.5-21 28-4.4 6.2-4 9.4.9 15.2.7.9 1.5 1.8 2.3 2.6 19.8 20 39.5 40.1 59.5 60 7.1 7.1 14.4 6.8 21.3-.6 5.2-5.6 10.1-11.5 15.1-17.3 37.5-43.4 69.4-90.6 94.8-142.1 28.8-58.4 49-119.5 60.3-183.7 3.9-22.3 6.6-44.8 8.5-67.3.7-9 1.2-18 1.5-26.9.2-7.5-3.2-11-10.8-11.4-1.8-.1-3.7-.1-5.5-.1-13.4-.1-26.7-.1-40-.1zm-635.9-634.4c.7-14.1-.3-28.3.5-42.5.8-14.1-5.1-17.3-16.4-16.1-21 2.2-42.1 4.1-63.1 6.5-20.5 2.3-41 4.8-61.2 9.2-55.1 12.1-107.4 31.9-157.6 57.2-55.2 27.9-105 63.6-151 104.8-9.6 8.6-9.8 13.8-.6 23.4 18.2 19 36.5 38 55.3 56.4 1.9 1.9 3.9 3.7 6 5.2 5.7 4.3 9.5 4.4 15.5.4 3.2-2.1 6.1-4.6 9-7.1 33.2-29.1 69-54.4 108-75.2 75.8-40.4 156.6-62.6 242.4-66.6 10.4-.5 13.1-3.4 13.1-13.8.1-13.8.1-27.8.1-41.8zm634.9 610.7c14.7-.1 29.3-.1 44-.1 10.6 0 14.8-4.9 13.7-15.4-1.4-13.4-2.5-26.9-3.7-40.3-1.6-17.9-3-35.9-6.3-53.5-12.6-67.3-34-131.6-65.8-192.4-27.9-53.4-62-102.5-102.3-147.3-9.6-10.7-15.5-10.8-25.8-.5-18 18.1-36 36.1-53.9 54.2-1.9 1.9-3.7 3.9-5.3 5.9-4.6 5.9-4.9 10.3-.8 16.4 2 3 4.4 5.9 6.7 8.7 23.5 28.1 47.5 55.9 69.3 85.3 12.8 17.3 22.1 36.5 27.8 57.2 3.7 13.4 6.1 27.3 11.1 40.3 16 41.5 23.7 84.8 28.5 128.7 1.5 13.4 2.9 26.8 4.9 40.1 1.3 9.2 5.6 12.5 15 12.5 14.2.3 28.6.2 42.9.2zm-231.4 420c-11.2 9.8-21.6 19.7-33.4 27.9-31.9 22.1-63.8 44.1-94.4 68-18.9 14.8-38.7 28.3-60.4 38.8-10.8 5.3-21.8 6.7-33.4 2.7-5.8-2-11.8-2.3-17.8-1.2-9 1.5-17.9 3.5-26.9 5.3-21.4 4.1-42.6 9.1-64.3 11.7-12.5 1.6-25.1 3.1-37.6 4.8-6.9.9-10.5 5.1-10.7 12.1-.8 29.5-1.1 59-.1 88.4.3 7.8 5.1 12.4 12.9 12.6 24.1.7 47.8-2.3 71.6-5.9 38.9-5.9 77.3-14 114.5-26.6 86.9-29.3 165.8-72.8 234.8-133.7 6.1-5.4 12.4-10.6 17.9-16.7 4.8-5.3 4.9-9.1.7-14.7-2-2.6-4.2-5.2-6.6-7.5-13.9-13.9-27.9-27.7-41.9-41.5-8.1-8.2-16.4-16.2-24.9-24.5zm-371.8-1001c-8.1 3-8.1 9.2-7.7 15.5s3.2 9.5 9.5 10.2c13.2 1.5 26.5 2.8 39.7 4.1 16.7 1.6 33.4 3.5 50 6.6 38.3 7.2 74.9 19.5 110.7 34.6 10.6 4.5 20.8 9.8 31.8 13.1 10.7 3.3 21.4 3.6 31.6-1.4 6.7-3.2 13.1-2.9 19.8-.4 8.2 3.2 16.3 6.8 24.1 10.8 25 13 44.5 31.4 55.2 58.1 1.1 2.8 2.7 5.3 4.7 7.7 5.4 6.6 12.5 8 20.1 4.1 3.7-2 6.8-4.7 9.8-7.7 14.4-14.5 28.5-29.4 43.4-43.6 9-8.6 8.9-11.6-.3-20.2-65.2-60.9-140-106.3-223.2-138.2-37.2-14.3-75.4-24.9-114.9-30.9-17.8-2.7-35.6-4.7-53.5-6.5-15.1-1.6-30.1-3.1-45.2-4.3-9.4-.7-13.1 3-13.2 12.5-.1 20.3-.1 40.7-.2 61-.3 6.4.7 11.8 7.8 14.9zm-565.7 755.8c-.2-3.9-.3-7.6-.6-11.2-1.4-14.6-4.2-29-6.4-43.4-4.4-28.9-8.8-57.9-13.3-86.8-1.2-7.6-3.7-9.6-11.3-9.6-30.2 0-60.3 0-90.5.1-9.8 0-12.7 2.9-12.2 12.6.6 10.5 1.7 20.9 2 31.4.6 20.7 2.6 41.2 6.4 61.5 10.2 54 26.3 106.1 48.3 156.5 23.4 53.6 54.5 102.5 90.4 148.5 10.1 13 20.6 25.8 32 37.8 7.9 8.3 14.2 8.1 22.2.2 19.7-19.4 39.3-38.9 58.6-58.8.9-1 2-1.8 2.7-2.9 2.8-4 5.3-9.9.3-15.4-4-4.5-7.2-9.6-10.8-14.4-6.7-8.8-13.6-17.3-22.6-23.9-5.4-4-10.3-8.5-14.9-13.3-4.5-4.7-9.1-9.3-13.8-13.8-6.8-6.4-14.4-11.3-23.6-13.4-1.9-.4-3.3-1.4-4.6-2.7-7-6.7-14-13.3-21.1-19.9-10.1-9.5-20.1-19-30.2-28.4-2.7-2.5-5.4-4.8-9.7-4.2-10.1 1.5-18.8-1.8-26-8.7-2.6-2.5-5.1-3.4-8.7-2.3.1 4.5.4 9 .9 13.4.2 1.8 1.3 4.1-1.3 5.3-2.3 1.1-4.7 1.6-7.2.3-1.9-1-3-2.6-3.9-4.4-1.3-2.5-2.2-5.3-3.7-7.6-10.9-17.6-11.7-37.3-11.2-57 .5-17.3 11.5-29.2 27.9-32 11.5-2 22.9-.9 34.3.5 7.4.7 14 4.3 21.6 6zm58.7-175c14.3-.1 28.7-.1 43-.1 8.1 0 15-4.3 16.3-14.1 2.7-19.4 6.4-38.7 9.8-58 8.7-50.3 27.2-96.8 53.4-140.4 12.9-21.5 28.2-41.2 45-59.7 6.6-7.3 6.3-12.6-.6-19.5-21.1-21.1-42.2-42.2-63.3-63.2-6.8-6.7-11.4-6.4-17.4 1-4.5 5.5-9 11.1-13.7 16.5-19.5 22.2-37.1 45.8-52.2 71.2-30.9 51.9-51.8 107.8-64.8 166.6-6.4 28.7-9.6 57.8-9.1 87.2.2 9.6 3.2 12.5 12.7 12.6 13.6-.1 27.2-.1 40.9-.1zm475.5-473.7h.1c0-14.8 0-29.6 0-44.5 0-1.8-.1-3.7-.5-5.5-1-4.6-4-7.2-8.8-7.4-2-.1-4 0-6 .3-26.2 3.9-52.5 6.8-78.6 10.7-40.6 6-79.5 17.4-116.6 35.1-46.3 22-90.2 48-128.9 82-5.4 4.7-11 9.2-15.5 14.8-4 5.1-4 10-.2 15.1 1.9 2.5 4.1 4.8 6.3 7 19.1 18.8 38.3 37.6 57 56.8 1.3 1.3 2.6 2.6 4.1 3.7 3.4 2.6 7.1 2.6 10.7.4 1.7-1 3.3-2.3 4.8-3.6 8.9-7.8 18-15.3 27.5-22.3 41.7-30.9 87.3-54.1 137.2-68.4 30.1-8.7 61.1-13.2 92.2-16.3 12.1-1.2 15-4.2 15-16.3.2-14 .2-27.8.2-41.6zm355.3 810.2c3.1-4 5.2-8 8.5-11.1 5.7-5.4 9.7-5.1 14.6 1 3.6 4.5 5.4 9.9 7.2 15.2 3.5 9.9 6.3 20 10.7 29.5 5.5 11.8 10 12.5 18.2 2.7 5.9-7 11.6-14.2 17.3-21.3 24.4-30.1 46.4-61.7 63.7-96.5 33.4-67.3 53.2-138.2 56.8-213.5.2-3.5.2-7-.6-10.4-1.1-4.6-4-7.2-8.6-7.9-2.3-.3-4.7-.3-7-.3-23 0-46 0-69 0-4.8 0-9.7-.1-14.5 0-9 .3-12.5 3.2-14.4 12.1-.8 3.7-1.1 7.6-1.6 11.4-2.3 20.2-5.1 40.3-9.5 60.1-13.9 62.5-41.2 118.5-80.9 168.6-5.4 6.8-11.1 13.3-16.4 20.2-4.9 6.4-4.7 10 .3 16.1 7.5 8.7 16.2 16.2 25.2 24.1zm-593.7 23.2c-1.3 4.9-2.3 9.2-3.6 13.5-3.1 9.8-7.9 13.5-18.1 14.2-7.2.4-14.3 1.2-21.2 3.2-9.4 2.6-18.8 5.6-28.3 8-11.5 2.9-22.8 2.6-33.2-4.2-1.4-.9-3-1.6-4.5-2-6-1.6-11.6 3.2-10.8 9.4.5 4.4 2.2 8.3 5.7 11.4 25.8 23 53.1 44 82.7 61.9 51.7 31.3 107 53.4 166.1 66.1 29.8 6.4 59.8 11.6 90.5 11.3 10.4-.1 13.2-2.8 13.3-12.9.1-26.5.1-53 .1-79.5 0-3.5-.1-7-.5-10.5-.7-7-3.3-10.1-10.2-11.7-4.4-1-8.8-1.5-13.3-1.7-13.5-.6-26.9-2-40.2-4.3-47.2-8.2-91.3-25-132.9-48.4-13.8-7.8-27.3-15.7-41.6-23.8zm653.5-553.2c4.7.9 6.5 4 7.5 8.3 2 8.6 4.3 17.1 6.7 25.6 5.4 19.7 8.6 39.7 8 60.1-.5 17.5-1.4 35-1.8 52.4-.3 12.2.2 24.3 2.9 36.3 1.9 8.4 5.1 10.9 13.6 10.9 29.3 0 58.7.1 88 0 9.9 0 14.7-5 13.5-14.8-2.9-24.3-4.5-48.7-8.6-72.9-6.3-36.6-16.6-71.9-31.2-106-4.1-9.6-9.4-11.3-18.5-6.4s-14.8 4-21.6-3.9c-3.9-4.5-7.4-9.4-11-14.2-12-16.3-26.3-30.1-44.4-39.6-4.3-2.2-8.4-4.8-12.5-7.4-9.1-5.7-17.2-12.5-22.9-21.9-1.3-2.1-3-3.5-5.3-4.4-10-4-20.1-7.9-30.1-12-1.8-.7-2.9-.5-4.5.5-8.5 5.3-11.5 13.4-12.1 22.8-.2 2.4.2 4.6 2.4 6.3 7.6 5.8 12.8 13.5 17.4 21.7 5.3 9.5 12.1 17.9 19.3 26 9 9.9 16.4 20.9 22 33.2 4.9 10.8 9.7 21.5 14.6 32.3 3.4 7.6 6.5 15.3 8.5 23.4.9 3.7 3 6.6 5 9.7.8 1.2 1.7 2.1 3.3 1.4 1.3-.5 2.3-1.2 2.3-2.8-.1-3.3.3-6.6-.6-9.9-3.9-14.5-7.5-29-11.5-43.4-1.1-4.3-.5-7.8 1.6-11.3zm-415.4-165.5c0-7.8.3-15.7-.1-23.5-.3-7-3.1-9.4-10.1-9.8-2-.1-4 0-6 .1-33.6 1.9-66.3 8.6-98.1 19.3-51.5 17.2-97.9 43.3-138.7 79.1-8.9 7.8-9 13.4-.7 21.8 1.4 1.4 2.8 2.8 4.2 4.3 14 14.1 28 28.1 41.9 42.2 4.6 4.6 9 9.4 13.8 13.7 7.2 6.4 13.4 6.6 21.1.8 3.4-2.5 6.5-5.2 9.8-7.8 27.2-21.6 57.1-37.6 91.2-45.5 20.1-4.7 40.1-9.5 60.3-13.8 8.9-1.9 11.5-5 11.4-14.1 0-22.1.4-44.4 0-66.8zm281.1 77.5c.4-4.9-1.4-8.6-5.2-11.8-11.4-9.8-22.9-19.4-35-28.2-31.1-22.5-64.5-40.5-101.6-50.9-22.9-6.4-46.4-10.5-69.8-14.5-11-1.9-22-3.8-32.9-5.6-7.5-1.2-12.2 2.6-12.7 10.2-.1 2.2 0 4.3 0 6.5 0 13.8.2 27.6-.4 41.4-.6 14.5-.3 29 .6 43.5.5 8 3.3 11.2 11.2 13.1 3.4.8 6.8 1.4 10.3 1.8 30.4 3.9 59.6 11.9 87.5 24.7 22.6 10.5 43.4 23.8 62.7 39.6 8.1 6.7 14.7 6.6 21.7-.3 20.3-20 40.7-39.9 60.2-60.7 2.4-2.5 3.8-5.2 3.4-8.8zm-87.7-102c5.3-1 9.9-3.4 14.7-2.2 6.7 1.6 12.4-.2 18-3.7 5.4-3.3 11.2-5 17.6-3.5 6.2 1.4 10.8 5.1 14.5 10 3.2 4.3 6.2 8.7 9.4 12.9 2.9 3.8 7 5.6 11.8 5.2 6.6-.5 10-4.5 9.7-10.9-.8-20-6.9-38.3-15.5-56.3-9.3-19.3-22.2-35.5-38.1-49.5-2.4-2.1-4.9-3.9-7.8-5.3-31.6-14.9-64.6-25.5-98.9-32-25.3-4.8-50.9-8.1-76.6-10.8-5.4-.6-10.9-1.4-16.4-1.3-9.5.2-12.5 3.3-11.8 12.9.1 1.5.3 3 .6 4.4 1.8 9.1 2.1 18.2.9 27.3-2.5 19.2-2 38.6-1.5 57.9.2 5.9 2.8 9.1 8.5 10.9 1.7.6 3.5 1 5.3 1.3 12.8 2.1 25.6 4 38.4 6.2 22.8 4 45.5 8.3 67.6 15 15.9 4.9 31.3 11.2 47 16.7 2.5.9 5.1 2 8 .6-1.5-2.1-3.9-3-5.4-5.8zm-395.3 197.2c-4.8-4.6-9.5-8.9-13.9-13.3-18.7-18.7-37.3-37.6-56.1-56.3-7.6-7.6-13.2-7.3-20.2.9-5.4 6.3-10.8 12.7-15.9 19.3-46.4 60.8-74.2 129.1-81.5 205.4-1 10.1-.8 20.2.7 30.4 11.5 0 22.6.5 33.7-.1 10.8-.6 18.7-6.4 23.1-16.5 1.3-3.1 2.3-6.2 3.1-9.5 2.1-8.9 4.2-17.8 7.9-26.2 6.5-15.3 17.3-25.8 33.4-30.5 2.2-.7 4.4-1.6 6.4-2.7 2.2-1.2 4.2-2.7 5.3-5.1 3.7-8.1 9.8-14.2 16.5-19.8 6.1-5.2 11.8-10.7 16.9-17 14.7-18.4 26.5-38.7 40.6-59zm273.7 166.3c0-1 0-2 0-3-.1-17.6-5.5-32.7-20.5-43.2-3.7-2.6-7-5.6-10.5-8.5-2.2-1.8-4.2-3.8-6.8-5-8.8-4-17.6-8-26.8-10.8-5-1.6-10.1-1.8-15.3-.6-2.1.5-3.5 1.3-4.2 3.6-2.3 7.6-7.4 12.9-14.2 16.7-4.2 2.3-8.6 4.5-12.8 6.7-6.9 3.7-13.6 7.8-19 13.6-3.8 4.1-4.9 8.7-2.5 13.8 1.7 3.8 3.6 7.5 5.6 11.1 1.6 2.8 1.7 5.1-.2 7.8-2.1 3-3.8 6.3-4.8 9.8-1.3 4.3 1.1 9.1 5 9.9 20.2 4 34.4 16.8 46.6 32.2 5.9 7.4 7.8 16.2 5.3 25.5-2.2 8.4-5.3 16.5-10 23.9-6.7 10.5-16.3 16.3-28.7 17.6-6.8.7-13.5 2.2-20.1 3.9-3.2.8-4.2 3.1-2.2 5.3 6.9 7.6 14.7 13.2 25.8 10.6 2.3-.5 4.6-.8 6.9-1.2 10.5-2.1 10.6-2.2 14.4 7.7 2 5.2 5.5 8 11 8.9 6.1 1 12.2 1.4 18.4.9s11.1-3.3 14.8-8.2c3.1-4.2 5.1-8.9 6.9-13.8 1.8-5 3.6-10 5.5-15 2.7-6.9 8.1-10.3 15.3-11.1 3.8-.4 7.6-.8 11.4-1 9.4-.6 16-5.2 19.4-14 1.9-5 3.2-10.1 3.5-15.5.2-2.6-.2-4.5-2.6-6.4-4.5-3.5-5-11.6-1.4-16 1.4-1.7.7-3.1.2-4.6-1.9-5.1-3.8-10.3-5.9-15.4-4.4-11.6-7.7-23.5-7.5-36.2zm-78.9 428.2c-9-1.6-17.6-3.4-26.4-4.3-15.8-1.6-28.9-8.3-39.1-20.6-6.6-7.9-11.3-16.8-15.5-26.1-2.5-5.6-3.4-11.4-3.1-17.5.6-11.3 5.8-20.7 12-29.7 2.7-4 5.9-7.7 8.4-11.8 3.5-5.5 2.2-9.4-3.9-11.9-3.7-1.5-7.5-2.6-11.3-4-32.2-11.3-60.9-29-87.7-49.8-7.2-5.5-13.5-5.2-20 1-15.3 14.8-30.3 30-45.2 45.3-5.7 5.9-11.5 11.6-17 17.6-5.1 5.6-4.6 12 .9 17.2 1 .9 2 1.7 3.1 2.5 15.8 11.1 31.5 22.3 47.3 33.4 30.1 21 62.1 37.9 97.5 48.2 29.5 8.6 59.7 13.3 90.2 16.3 3 .3 6.1 1.6 9.2.7.8-2.1.9-4 .6-6.5zm-262.3-326.7c-.5.4-1 .6-1.3.9-3.3 3.4-7 4.6-10.1 3.2-2.9-1.2-4.8-5.7-4.3-9.9.1-1 .4-1.9.8-2.9 1.5-4.2 3-8.4 4.6-12.6.5-1.4 1.5-2.8 1-4.3-2-6.5-.3-12.8.5-19.3 1.1-8.6-1.9-12.1-10.6-12.5-8-.3-16-.2-24-.1-8.1.1-13.7 3.9-16 11.7-1 3.3-2.9 5.6-5.6 7.3-2.5 1.6-5.1 3.1-7.7 4.7-11.5 6.8-12.2 8.6-9.8 21.8 2 10.8 5.5 21 13.2 29.1 3.5 3.7 5.9 8 7.6 12.7 6.8 18.9 13.6 37.8 19.7 57 1.8 5.7 3.3 11.6 2.2 17.7-2.3 12.1-.8 23.8 3.2 35.3 3.2 9.1 5.8 18.4 7.9 27.8 1.5 6.5 3.1 12.9 5.3 19.2 1.3 3.8 3 7.4 5.6 10.5 1.9 2.3 4 3.2 7 2.2 3.9-1.3 7.5-2.9 10.4-5.8 19.9-19.6 39.9-39.3 59.7-59.1 5.4-5.4 5.9-10.5 2.3-17.3-1.3-2.5-2.9-4.8-4.5-7.2-14.1-21.2-28.2-42.4-39.1-65.5-7-14.2-12.6-29.3-18-44.6zm579.8 201.8c13.6-16.4 26.9-32.2 38.2-49.5 22.6-34.6 40.8-71.3 50.9-111.6 5.2-20.9 8.3-42.1 11.4-63.3 1.1-7.4 2.4-14.8 3.2-22.2 1-8.6-2.5-12.4-11.2-12.8-2.7-.1-5.3 0-8 0-18 0-36-.1-54 .1-9.1.1-11.3 3.9-7 11.6 5.5 9.7 10.3 19.7 14.2 30.2 2.6 7 8 10.3 15.5 10.4 7.2.1 14.2-1.4 21.2-2.8 3.6-.7 6.2-.2 6.9 3.9-3.5 5.3-7.2 10.5-10.5 15.9-6.6 10.7-16.2 17-28.3 19.7-3.7.8-7.5 1.5-11.2 2.3-16 3.1-31.7 6.7-46.2 15-12.4 7.1-18.5 17.6-21.8 30.7-1.2 5-.3 9.3 2.8 13.6 6.7 9.5 9.2 20.1 7.7 31.7-1 8.2-3.4 15.9-5.8 23.7-1.7 5.8-3.1 11.7-3.6 18 2.8 0 5.1-.1 7.4 0 10.1.4 16.1 4.7 17.7 14.8 1.5 7.9 6.1 13.8 10.5 20.6zm-309.8-503.5c0-4.5.1-9 0-13.5 0-2.7-.3-5.3-.5-8-.6-8.6-3.4-11.3-12-10.9-6.3.3-12.6 1-18.9 1.9-47.7 7-89.4 27-126.4 57.5-7.1 5.9-7.4 10.5-.8 17.1 18.4 18.6 36.9 37.1 55.4 55.6 3.5 3.5 7.1 7 10.9 10.3 4.7 4.1 7.4 4.3 12.6 1.1 4.5-2.8 8.9-5.9 13.2-8.9 2.5-1.7 5.1-3.2 6.6-6 3.5-6.3 9.6-9.6 15.4-13.1 2-1.2 3.9-1.5 6-.1 4.8 3.2 10 3 15.4 1.8 3.9-.8 7.8-1.9 11.7-2.4 8-1 10.9-3.8 10.8-12-.2-23.5.3-46.9.6-70.4zm346.6 9.1c.1-1.5-.4-2.1-.9-2.8-9.3-12.6-18.5-25.3-27.8-37.8-1.5-2-3.2-3.9-5-5.5-4.7-4.3-8.6-4.7-14-1.1-2.5 1.6-4.8 3.6-6.9 5.7-13.2 12.9-26.4 25.9-39.5 38.9-6.7 6.7-13.6 13.2-19.7 20.5-5.3 6.4-5.7 10-1 16.6 7.5 10.6 15.1 21.1 23.8 30.8 3.3 3.7 7.3 6 12.3 7 8.8 1.7 16.6 5.9 23.3 11.8 9.4 8.3 15.8 18.8 22 29.5 2.3 4 4.5 8 6.9 12.2 1.6-1.1 2.9-1.9 4-2.8 4.4-3.6 8.7-7.3 13-10.9 8.9-7.3 15.5-6.5 22.5 2.5 3.1 3.9 5.3 8.4 7.8 12.8 1.8 3.2 2 6 .4 9.4-2.7 6-1.4 12.2.5 18 1.8 5.5 7.6 6.3 11.4 1.9 1-1.1 1.8-2.4 2.6-3.7 5.4-8.2 9-17.4 15.3-25.1 3.4-4.2 3.8-9.6 2.3-14.8-3.5-11.8-6.6-23.7-12.1-34.8-5.5-11.3-13.2-20.2-24.9-25.6-9-4.1-11.4-10.8-7.8-20.1 1-2.5 2.1-4.9 2.8-7.5 1.7-6.5-1.2-14.6-6.3-18.1.4 11.1-.8 22.1.8 33 .4 2.6-1.1 4.1-2.8 5.4-4.6 3.6-9.9 5.4-15.5 6.6-6.5 1.4-13 2.1-19.8-.3.5-1.1.7-1.8 1.1-2.6 7.2-14.2 14.5-28.4 22.2-42.5 1.9-3.5 4.3-6.4 9-6.6zm-385.2 484.3c8.8-1.7 15.8-4.6 14.4-16.1-.5-4.1-1.2-8.2-1.6-12.4-1.2-12 3.9-19.8 15.2-21.8 8.6-1.5 10.8-6.4 8.1-14.6-1.6-4.9-4.8-8.7-7.3-13-4.7-8.2-8.5-16.6-2.2-26.1 2.6-3.9 1.5-6.7-2.6-9.2-2.1-1.3-4.5-2.2-6.7-3.2-17.5-7.7-35.4-14.3-52.6-22.7-11-5.4-16.4-4.4-25 4.2-8.8 8.8-17.5 17.9-26.4 26.6-11.3 11.1-22.8 21.9-34 33.1-6.6 6.5-6.2 11.4 1.3 16.9 6 4.5 12.2 8.7 18.3 13 11.7 8.3 23.6 16.2 36.7 22 20.2 9 41.5 15.3 62.2 22.7.8.4 1.7.5 2.2.6zm116.8-430.4c1.8 4.8 2.8 9.4 2.4 14.3-.3 4.1-1.4 8.2-1.2 12.4.2 3.7 1.2 6.9 4.1 9.3 5.3 4.4 11.2 7.9 17.8 9.8 5.4 1.5 9.5-.6 11.8-5.7.7-1.7 1.1-3.5 1.5-5.3 1.1-4.7 1.1-9.6 2.8-14.2 1.7-4.4 4.3-8.4 9.1-9.1 4-.6 5.5-2.9 7-6 6.1-12.3 14.3-22.7 26.8-29.3 3.7-1.9 7.2-4.1 10.7-6.5 4.6-3.1 5.1-6.8 1.4-10.9-2.7-3-5.3-6.1-8.8-8.1-13.6-8-26.7-17-41.2-23.4-27.8-12.4-57.8-16.5-87.3-22.2-7.3-1.4-11.3 2.7-11.5 10.2-.2 4.5 0 9 0 13.5v76.5c0 7.9 2.5 11.2 9.8 13.7 8.4 2.9 15.7 1.4 21.9-5.1 1.2-1.2 2.4-2.3 3.5-3.6 4.9-5.8 11.4-8.8 19.4-10.3zm-552.5 181v.2c-9 0-18 0-27 0-6.7 0-13.3-.1-20 0-6 .1-8.3 2.6-8.6 8.6-.1 1.3 0 2.7 0 4 .4 26.2 3.3 52.1 8.4 77.8 3.4 17.5 8 34.6 13.7 51.5 2.6 7.6 7.4 12.1 15.7 12.2 2.8 0 5.7.4 8.5.3 12.5-.4 19.8-6.4 22.6-18.5.6-2.4 1.1-4.9 1.2-7.4.8-22.8 8.8-42.8 22.7-60.6 5.9-7.6 11.5-15.5 17.5-23.1 4.7-5.9 6-12.4 4.6-19.7-.8-4.2-1.2-8.6-1.5-12.9-.6-9-3.8-12.3-12.7-12.4-15.1-.1-30.1 0-45.1 0zm621 509.3c-1.4-2.2-3.4-3.4-5.1-4.9-7.9-6.3-16.1-12.4-23.8-19-8.4-7.1-11.7-16.2-9.8-27.2 1.8-10.2.3-20-6-28.5-8.9-12.1-21.1-18.6-36.1-19.4-11.1-.6-21.7 2.5-32.4 5-4.9 1.1-7.4 4.1-8.9 8.5-.9 2.7-1.1 5.5-1.1 8.4 0 24.3-.1 48.6-.1 73 0 4.3-.2 8.7.1 13 .4 7.1 4.2 10.6 11.2 10.5 2.3 0 4.7-.2 7-.5 29.2-4 58.3-8 87.5-12 6.2-.9 12.5-1.7 17.5-6.9zm-391.8-462.7c-.8 5.2-.8 7.2.1 10.2 10.2 32.1 23.7 62.5 44.3 89.5 3.2 4.2 6.4 8.5 10.4 12.1 4.2 3.7 7.2 4 11.7.8 2.8-2 5.4-4.4 7.9-6.9 18.8-18.2 36.5-37.5 55.6-55.4 1.5-1.3 2.7-2.9 3.9-4.6 3.7-5.3 4-10.8 1-16.5-2.7-5.2-6.7-9.4-11-13.7-6.6 11.9-13.1 23.5-19.5 35.2-2.1 3.9-5 6.9-8.6 9.2-4.5-4-7.1-8.6-6.8-14.6.1-1.8-.2-3.7-.5-5.5-1-6.2-7.5-10.1-13.3-8-4.7 1.7-8.9.9-12.4-2.5-2.2-2.1-4.1-4.4-6-6.7-14.9-17.6-34.2-24.1-56.8-22.6zm267.2 181.4c10 .2 19 1.5 28 3.2 3.6.7 7.2 1.7 9.8 4.4 6.7 6.7 14.6 8 23.5 5.8 13.1-3.3 25.5-8.7 37.8-14 8.7-3.8 17.4-7.4 25.3-12.9 4.8-3.3 6.6-7.9 7.2-13.5-5.1-1.6-9.9-2.2-15-1.1-8.1 1.8-16.2 3.8-24.5 4.6-9.5 1-18.6 3.4-27.6 6.1-11 3.3-22.3 3.4-32.5-2.2-8.5-4.7-16.2-3.3-24.3.3-2.7 1.2-4.3 3.1-5 5.8-.9 4.3-1.7 8.6-2.7 13.5zm376.4-301.9c-8.3 6.3-17.3 9.9-26 14.2-7.6 3.8-15.1 7.9-21 14.2-5.6 6.1-9.4 13.1-10.8 21.6 20.5 0 40.5.3 60.5-.1 10.8-.3 16-8.7 12.1-19-4-10.4-9.6-20.2-14.8-30.9zm-767.6 133.4c4.2-6.6 6.1-13.3 6.4-20.6.2-4.2.6-8.3.8-12.4.4-8.6.7-17.1 1.1-26-7.4 0-14.4-.2-21.4.1-5.1.2-7.6 3.5-7.5 8.6.2 10.2.7 20.3 2.4 30.3 2.6 15.7-.5 13.2 15.2 19 .9.2 1.8.6 3 1zm553.8-222.9c3.4-.4 5.8-1.8 8.4-2.8 12.3-4.8 15.2-3.5 19.5 8.9 1.4 4.2 2.4 8.6 4.6 12.3 1.8.5 3.2-.2 4.7-.6 7.2-1.7 10.9-8 7.9-14.7-3.4-7.6-8.5-14-16.7-16.9-11.6-3.9-24.1-2-28.4 13.8zm47.2 410.8c.5-2.1-.8-2.6-1.6-3.3-3.9-3.1-8.2-4.9-13.1-5.9-8.9-1.7-18-1.7-26.9-3.4 12.3 9.8 25.5 16.1 41.6 12.6zm-117-74.4c3.2.2 5.8 2.2 8.7 1 4.7-1.9 8.3-5.4 12.2-8.5.9-.8.8-1.7.5-2.7-.4-1.2-1.4-1.3-2.4-1.1-2.6.5-5.2 1.1-7.8 1.4-6 .5-9.4 3.7-11.2 9.9z"/><path d="m416.8 1600.9c.7-4.5 3.1-5.5 7.1-4.9 7.6 1.2 15 2.7 22.3 5.3 35.4 13 72 17.2 109.6 13.9 39.5-3.5 77.1-14.7 113.4-29.9 39.3-16.5 78.5-32.9 119.2-45.8 24.6-7.8 49.1-15.7 74.6-20 24.6-4.1 49.3-4.7 74.2-1.9 16.3 1.8 32 6 48 9.2 21.8 4.3 43.5 2.8 64.8-2.9 31.3-8.5 62.9-10.5 95-7 36.5 4 72.5 9.9 107.5 21.2 31.1 10 60.9 23.2 90.6 36.5 26.1 11.7 52.7 22.3 80.7 28.8 25.4 5.9 51.2 8.9 77.3 7.3 27.4-1.6 53.9-7.9 79.8-17.1 6-2.1 12.1-3.6 18.2-5.1 1.5-.4 2.8-.7 4 .7 1.4 1.7.8 3-.1 4.5-2.1 3.6-4.2 7.1-7.3 10-37.7 34-81.6 55.1-131.7 63.4-70 11.6-135.7-1.5-197.8-34.8-24.7-13.3-47.4-29.7-70.9-44.8-15.6-10-31.1-19.9-46.6-30.1-13.8-9.1-29-13.1-45.3-13.4-7.8-.2-15.7-.3-23.5.7-5 .7-5.5.9-9.1 5.9 5.7 5.2 11.6 10.2 18.3 14.4 33.9 21.1 68.2 41.7 101.8 63.3 20 12.9 38.7 27.2 55.7 43.8 7.3 7.1 14.8 13.9 22.2 20.9 7.1 6.7 7.3 11 .8 18.4-5.5 6.3-11.6 11.9-18.6 16.7-10.6 7.3-18.7 6.9-28.6-1.4-5.9-4.9-11-10.7-16.1-16.4-38.2-41.9-79.3-80.4-126.5-112.1-15.6-10.5-31.9-19.9-48.4-28.9-12.2-6.7-24.4-6.4-36.5 1-19.1 11.9-38.3 23.5-57.5 35.2-27.2 16.6-50.9 37.5-73.2 60.1-19.3 19.6-38.8 39-58.2 58.5-2.2 2.2-4.6 4.4-7.1 6.3-6.5 4.8-13.6 5.3-20.7 1.4-8.2-4.4-14.8-10.8-20-18.5-4.3-6.4-3.6-12.3 1.8-18.7 5.2-6.3 11.8-11.3 17.9-16.6 48.9-42.1 101.1-79.4 157.5-110.7 7.7-4.2 14.9-9 18.3-17.9-4.4-4.7-10-7-16.6-7.3-16.8-.8-32.4 2.7-46.7 11.7-37.9 23.6-76 46.8-112.9 71.9-30.1 20.6-63.3 33.8-98.5 42.3-21 5.1-42.2 9.6-63.8 11.4-14.6 1.2-28.9-1-43.1-4.3-20.9-4.8-41.7-10.4-61.9-17.4-26.2-9.1-49.2-24.1-71.4-40.4-7.4-5.5-14.7-11-22-16.4z"/><path d="m1927.7 1184.7c2 5.9 2.3 11.1-.4 17-12 26-25.2 51.4-40.9 75.4-21.8 33.3-49.7 60.7-81.2 84.7-25.1 19.1-51.1 36.6-80.4 48.8-23.9 9.9-48.9 16.3-73.9 22.3-35.7 8.6-71.5 16.9-107.6 23.7-7.8 1.5-15.4 2.7-22.7-1.1-.7-8.5 2.8-14.8 8.2-21.1 18.7-21.2 31.9-45.8 43-71.6 13.9-32.4 24.7-66 37.1-99 15.1-40 31.4-79.5 53.3-116.4 9.7-16.3 20.9-31.7 32.5-46.7 2.8-3.7 7.3-4.8 11.2-6.6 4.3 6.6 2.8 13.3 1.8 20.1-4.4 31.8-11 63.2-17.3 94.7-4.4 22-9.4 43.9-14.2 65.8-6.3 29-19 54.9-35.7 79-4.6 6.6-9.4 12.9-14.2 19.4-2.7 3.6-5.4 7.2-7.6 11.6 2.2.1 3.5-1.3 4.9-2.1 27.3-16.9 54.3-34.4 82.5-49.8 33.9-18.5 67.8-36.9 102.4-54.1 41.2-20.5 75.4-49.2 104.4-84.6 4-4.7 8.6-7.7 14.8-9.4z"/><path d="m511.1 1466.9c-7.8 1.6-15.5.5-23.2-1-43.7-8.6-87.5-16.8-131.2-25.7-51.9-10.6-98.3-32.6-139.4-65.9-38.5-31.2-71.2-67.7-97.9-109.4-9.6-15-16.6-31.4-23.7-47.8-2.9-6.6-2.8-13.2 1.8-20.1 5.3 5 11.1 9.2 15.5 14.8 25.1 31.8 56.7 55.6 92.4 74.2 44.8 23.2 89.4 46.6 133.7 70.7 14.4 7.8 27.6 17.3 41 26.7 5.9 4.1 11.8 8 18.4 11 2.8 1.3 4.6 1 6.3-1.8-3.5-6-7-12-11.6-17.3-18.4-21.4-33.3-44.8-42.5-71.7-5-14.7-7.5-30-10.4-45.2-8.7-45.4-15.6-91.1-26.8-136.1-1.3-5.1-1.4-10.2-.8-15.4.2-1.7-.2-3.5 2.4-4.3 2.4-.8 3.3.6 4.6 1.9 12.5 12.2 22.2 26.6 31.8 41 33.2 49.8 56.8 104.1 74.8 161 6.2 19.5 12.5 38.9 20.2 57.9 12.1 29.9 28.9 56.9 50.1 81.2 4.6 5.3 8.8 10.9 12.6 16.8.6 1.4 1.9 2.5 1.9 4.5z"/><path d="m1783.7 891.6c3.1 17 6.2 34 9.3 51 4.7 25.5 9 51.1 12.6 76.8 4.1 29.6 6 59.3 3.2 89.2-2 20.9-6.2 41.4-13 61.4-.3.9-.6 1.8-.9 2.8 2.3 2.2 4.2 1.9 6-.4 2.8-3.5 6.1-6.6 8.5-10.4 27.6-43.7 62-81.6 99-117.4 32.1-31.1 59.3-65.7 77.9-106.6 3.1-6.8 5.8-13.8 8.6-20.7 1.1-2.8 2.7-5.3 4.2-7.9s3.3-2.9 5.9-1.9c2.9 13 3.7 25.9 1.9 39.2-4.1 30.3-11 59.8-22.3 88.3-20.5 51.8-52 96.1-92.8 133.9-29.1 26.9-61.3 49.7-95.2 70-24.4 14.7-47.5 31.3-71.2 47.2-4.8 3.2-10 5.1-15.9 6.2-2-6.5-3-12.8-.4-19.4 3.9-10.1 8.6-19.9 11.7-30.2 4.2-14.1 5.6-28.7 8.1-43.1 4.3-24.9 7.8-50 10.7-75.1 2.1-18.2 3.7-36.4 5.3-54.7 4-45.3 7.3-90.6 18.1-134.9 3.2-13.2 6.9-26.4 12.3-39 1.7-4 3.6-5.7 8.4-4.3z"/><path d="m1426.8 1499.8c9.5-1 19-2 28.6-3.1 19.9-2.2 39.7-4.5 59.5-6.7 20.4-2.2 40.7-4.5 61.1-6.6 12.9-1.3 25.9-2 38.8-3.4 50-5.5 97.1-19.4 139.1-48.2 5.8-4 12.3-5.6 18.7-7.7 3.7 2.2 2.5 4.3.7 7-23.7 34.2-54.4 61.1-88.7 84.1-36.2 24.3-75.9 39.8-118.9 46.6-30.6 4.9-61.3 5-92.1.6-51.6-7.4-102.5-18-153.3-29.7-7.5-1.7-14.8-3.8-22.4-5.1-10.4-1.8-19.6-6.2-28.7-12.5 6.3-4 11.8-8.8 18.9-10.8 51.5-14.6 94.4-43.3 132-80.6 38.7-38.4 78.5-75.6 118.1-113 5.1-4.8 11-8.6 17-12.2 3.2-1.9 6.6-1.7 10.1-1.3 1.8 4.7 1.8 9-.4 13.6-7.5 16.1-14.1 32.7-21.8 48.7-18 37.4-42.7 70.2-70.2 101-6 6.7-13.6 11.7-21.1 16.7-7.8 5.1-15.8 9.9-23.2 15.6-2.7 1.7-3.9 3.8-1.8 7z"/><path d="m256.5 1441.2c4.9-1.8 9.3-.7 13.8 1.8 13.6 7.3 26.9 15.3 40.9 21.9 20.1 9.4 41.3 14.8 63.1 18.1 29.2 4.5 58.6 6.4 87.9 9.1 27.2 2.5 54.4 5.1 81.6 7.6 15.1 1.4 30.2 2.8 45.3 4.1 4.7.4 9.3.4 13.6-2.3-1.3-2.2-3.4-3.3-5.5-4.3-40.8-19.4-70.2-50.6-91.4-89.8-14.8-27.4-29.1-55-43.7-82.5-3-5.7-3.2-11.7-4.1-18.2 7 1 13 2.4 18.2 6.9 41.9 36.1 83.4 72.7 123.8 110.6 13.5 12.7 27.3 25 41.2 37.1 19.5 16.9 42.6 27.1 66.5 35.5 17.3 6.1 34.6 11.8 51.5 18.9 1.2.5 2.4 1 3.4 1.4 1 3.5-.7 4.7-3.4 5.8-10.8 4.2-22.1 6-33.3 8.6-38.1 8.9-76.1 18-114.3 25.9-33.3 6.9-66.6 12.8-100.8 13.7-45.4 1.2-88.6-7-129.7-27-31.1-15.2-61.3-31.4-87.7-54.1-12.1-10.3-22.9-21.9-32.8-34.3-4.4-5.1-4.9-7.6-4.1-14.5z"/><path d="m123.1 383.1c3.1 6.2 2.9 11.9 1.6 18-4.7 22.5-5.4 45.2-4.1 68.1 1.7 30.6 6.9 60.8 10.2 91.3 3.1 28.5 4.6 57.1 2.9 85.8-.6 10.2-1.1 20.3.6 30.4 1.2.9 2.5 1.2 4.3 1 3.8-13 8.6-25.5 14.7-37.6 14.2-28.3 33.6-52.7 55.6-75.2 25.3-25.8 52.3-49.9 78.6-74.7 1.5-1.4 2.8-2.4 5.2-1.4 2.3 1 2.1 2.7 2.2 4.5 1.3 15.4-3.6 29.6-8.4 43.8-7.9 23.4-20.5 44.3-33.9 64.8-29.6 45.5-59.3 90.9-88.3 136.8-9.4 14.9-15.7 31.2-22.6 47.2-1.9 4.4-3.4 9.1-6.6 12.8-4.5 5.3-7.9 5.1-11.7-.7-.8-1.2-1.4-2.7-1.8-4.1-15.9-45.5-32.7-90.7-47-136.7-6.2-19.9-11.9-39.8-14.1-60.6-2-18.1-2.1-36.3-.2-54.4 3.4-32.8 11.7-64.4 23.6-95.1 7.7-19.8 18.7-37.9 28.7-56.5 2.2-4.2 6.7-5.1 10.5-7.5z"/><path d="m1850.9 1053.3c-6.3-6-8.9-13.3-9.9-21.5-2.1-17.7-.5-35.2 2.6-52.7 8.4-47.6 25.3-92.6 43.9-136.9 10.1-24.1 21.5-47.6 29.2-72.6 9.2-29.7 14.6-60.1 15.3-91.2.1-5.3 2.8-9 5.7-13.2 9.1 17.3 15.6 35.3 19.2 54.1 6.9 35.7 7.7 71.7 3.5 107.9-7.3 62.3-30.4 118.5-65.2 170.2-10.5 15.6-21.8 30.7-32.6 46.1-3.2 4.3-7.5 7.1-11.7 9.8z"/></g><path d="m1151.9 138.5c-4.2 8.6-11.7 11.2-20 12.5-16 2.3-32.1 3.8-47.9 6.8-7.4 1.4-11.1 5.4-12 13-.1 1-.1 2-.3 3-1 5.1-4 7-9.1 5.5-9.7-3-18.8-7.6-28.1-11.5-1.6-.7-2.2-1.8-2.3-3.5-.2-4.8 1.3-8.8 5.4-11.7 3-2.2 6.5-3.4 10-4.3 21.8-5.8 43.7-11.6 65.7-16.6 13.8-2.9 26.3.8 38.6 6.8z" fill="#049bde"/><path d="m1351.6 236.5c5.3-2 10.1-3.4 15.3-1.6 6.2 2.2 9.8 8.9 7.5 14-2.2 4.9-6 6.6-10.9 4.3-7-3.2-10.3-9.2-11.9-16.7z" fill="#049bde"/><path d="m483.8 1100.4c-9.2-7.2-18.2-13.6-16.7-26.6 12.8 1.7 18.9 14.8 16.7 26.6z" fill="#0b9edf"/><path d="m1397.2 489.1c4.5.8 7.6 1.7 10.5 3.3 4.3 2.3 5 4.6 2.7 8.9-1 1.9-2.1 3.8-4.3 5.3-2.8-5.7-5.6-11.2-8.9-17.5z" fill="#0b9edf"/><path d="m1202.3 338.5c-11.1.7-17.3-4.5-20.3-15.8.9-1.5 2.6-1.9 4.5-2.4 5 5.8 10.1 11.7 15.8 18.2z" fill="#0b9edf"/><path d="m715 850.9c2.4-1.1 4.2-1.9 6.7-2.1 2.4 5.2 4.1 10.8 6 16.5-2.2 1.1-4.1 2-6.6 2.1-2.6-5.3-3.9-10.9-6.1-16.5z" fill="#0b9edf"/><path d="m2334.8 1037.3c-2.9 2-4.5 1.3-6.4-1.2-4.9-6.4-8.7-13.2-11.9-20.7-14.3-34.1-35-64.1-59.7-91.6-20.1-22.4-42.7-42-65-62-16.3-14.5-32-29.6-48-44.5-21.5-20.1-43.1-40.3-64.6-60.4-.7-.7-1.5-1.3-2.2-1.9-3.4.8-3.7 2.9-2.9 5.7 2 6.2 4.3 12.3 7.2 18.1 10.4 20.6 14.7 42.6 16.6 65.4 1.6 19.9 2.6 39.9 2 59.9-.7 20.7-4.4 41-8.3 61.3-1.2 6.4-2.7 12.7-3.5 19.1-.7 5-2.8 8.7-7.6 11.2-3.5-2.1-6.4-4.8-8.3-8.6-6-11.7-8.3-24.5-11.4-37.1-12.2-50.7-23.6-101.5-35-152.3-11.2-49.9-32-95.5-64.1-135.7-4.7-5.9-9.4-15.9-10.4-21.8 11.3.9 21.6 4.5 31.6 9.6 32.4 16.4 65.1 32.1 97.1 49.3 28 15 56.1 29.8 83.1 46.8 36.4 22.9 68 51.2 94.8 84.9 40.7 51.3 64.2 110 74.8 174.3 1.7 10.8 2 21.6 2.1 32.2z" fill="#029add"/><path d="m2192.5 997.5c-1.7-.3-2.9.6-4.6 1.1.4 10 .7 19.8 1.4 29.5 2 27.4-2.8 53.7-11 79.7-5.7 18.1-13.8 35.3-20.2 53.2-8.1 22.6-16 45.2-23.9 67.9-2.5 7.1-6.4 13.6-9.9 20.1-1.5 2.8-4.8 2.8-6.1-.1-1.8-3.9-3.7-7.8-4.3-12.2-2.7-18.1-2.2-36.2-1.4-54.4.9-20.6 1.7-41.3 2.7-61.9 1.5-30.8 2.7-61.6 6-92.2 2-18.5 5.9-36.8 9.5-55.1 5-25.5 4.4-50.7-3.2-75.6-3.1-10.1-4.3-20.5-4.4-31 0-1.7 0-3.4.4-5 1-4.2 4-5.6 8-3.8 2.6 1.2 4.7 3.2 6.7 5.2 12.5 12 24.8 24.1 37.4 36.1 18.4 17.6 37 35 56.3 51.7 17.7 15.4 32.1 33.7 44.7 53.5 20.6 32.5 38.5 66.2 49 103.5 7 24.8 11.4 49.9 13.8 75.5 1.3 13.9 1.5 27.9 2.7 41.9 1.1 12-2 23.1-6.2 34.1-.8 2.1-1.9 2.8-4.1 2.7s-3.7-.6-4.5-2.9c-2.7-7.2-4.9-14.5-6.9-21.9-9.1-35-24.7-67.1-43.4-97.8-9-14.8-18.4-29.4-28.6-43.4-12.8-17.6-22.5-37-31.9-56.5-7.2-14.4-14-29.1-24-41.9z" fill="#029add"/><path d="m2097.1 1455.4c-4.4-7.8-6-15.1-4.5-23.8 7.5-44.9 21.7-87.5 41-128.5 20.8-44.1 41.7-88.2 61.6-132.7 5.1-11.5 7.6-23.8 10.6-35.9 1.6-6.7 3.7-13.1 6.6-19.4.8-1.7 1.4-3.3 3.7-3.5 2.4-.2 3.1 1.4 4 3 25.3 46.9 51.3 93.5 73.6 141.9 14.7 31.9 23.5 65.4 26.4 100.4 3 36.1-.8 71.5-9.6 106.5-4.5 17.6-9.1 35.1-14.5 52.5-2.5 8.1-7.6 14.8-12.2 21.7-1.6 2.4-4.5 2-5.4-.7-1.4-4.2-3-8.5-2.5-13.1 4.2-35.4-1.7-69.7-10.3-103.8-8.1-32.1-17.6-63.9-25.1-96.1-4.8-20.8-8.3-41.8-8.6-63.2 0-2.2-.4-4.3-1.2-6.4-1.3-3.1-3.8-3.4-6.1-.8-3.9 4.5-6.2 9.6-7.5 15.5-6.2 27.8-19 52.5-35.4 75.5-24 33.6-48.2 67.1-72.2 100.7-3.1 4.4-7.8 6.8-12.4 10.2z" fill="#029add"/><path d="m2039.7 1641.8c-4.2-6-5.4-12-4.2-19.1 5.3-32.3 18.4-61.4 35.6-88.9 13.4-21.4 29.8-40.5 46.4-59.3 23.5-26.6 45-54.8 65.6-83.6 10.2-14.2 20.6-28.3 31.6-41.8.4-.5.8-1.1 2.2-1 1.7 6.3 3.5 12.8 5 19.4 6.8 29.2 12 58.7 17.8 88.1 3.3 16.8 6.9 33.6 9.4 50.6 5.1 34.5-.1 67.6-12.7 99.9-5.4 13.7-13 26.2-18.9 39.7-2.9 6.7-7.6 12.1-11.9 17.7-8.3 10.8-16.9 21.4-25.3 32.1-1.1 1.3-2.1 2.5-3.7 3.2-5.6 2.6-11.2 5.2-16.8 7.8-1.2.6-2.3 1.3-3.7.2-1.5-1.2-1.7-2.7-1.2-4.5 1.2-4 2.1-8.1 4.5-11.6 13.3-20.2 18.9-42.8 21.3-66.4 4.2-42.4 8.1-84.9 11.9-127.3.7-8.3 2.2-16.5 1.3-24.9-.1-1-.2-2-.3-3-.2-1.5-.5-3.1-2.2-3.5-2-.5-2.6 1.2-3.3 2.4-2.7 5-5.3 10-8.1 14.9-5.9 10.4-14.4 18.7-22.2 27.6-27.3 31.2-55.1 61.9-82.1 93.4-7.8 9.1-15.5 18.3-23.3 27.4-3.5 3.9-7.5 7.5-12.7 10.5z" fill="#029add"/><path d="m1981.2 1827.9c-1.5-5.2-1.6-9.9 1.7-14.2 15.5-20.6 26-44 37.8-66.8 15.2-29.5 32.8-57.5 51.1-85.1 9.7-14.7 19.7-29.2 29.4-44 9.3-14.1 20.5-26.6 31.7-39.2 3.3-3.7 6.7-7.4 9.9-11.2s7.4-6.1 11.6-8.5c2.8-1.6 5.3.2 5 3.4-5.3 45-11.7 89.8-30.1 131.9-9.6 21.8-22.6 41.4-38.7 59-27.6 30.2-60 53.9-96.5 72.2-4.1 2.1-8.2 2.8-12.9 2.5z" fill="#029add"/><path d="m844 3385c-1.3 0-2.7 0-4 0 0-10.3 0-20.7 0-31h.5.5c.1.7.2 1.3.3 2 .9 9.4 1.8 18.7 2.7 28.1z" fill="#edf7fc"/><path d="m844 3385c0-.3 0-.6 0-1h17v1c-5.7 0-11.3 0-17 0z" fill="#a9dcf3"/><path d="m841 3354h-.5-.5c0-5 0-10 0-15h1z" fill="#caeaf7"/><path d="m1182 3385c0-.4 0-.7 0-1.1 3.9-.1 7.9-.2 11.8-.3.1.4.1.9.2 1.3-4 .1-8 .1-12 .1z" fill="#d7eff9"/><path d="m841 3354c0-5 0-10 0-15 1-19 1.9-37.9 3-56.9 1.2-22.6 2.6-45.2 3.8-67.9 1.3-24.3 2.4-48.6 3.5-72.9 1.5-30.6 3.1-61.2 4.4-91.8 1.6-35.9 3-71.9 4.5-107.9 1.2-28.8 2.3-57.6 3.5-86.4 1.2-27.6 2.3-55.3 3.5-82.9 1.5-32.8 3.2-65.6 4.6-98.3 1.5-34.1 2.9-68.2 4.3-102.4 1.1-26.6 1.9-53.3 3-79.9 1.4-34.6 3.1-69.2 4.5-103.9.9-20.6 1.6-41.3 2.5-61.9 1.5-32.5 3.1-64.9 4.5-97.3 1.2-26.5 2.3-52.9 3.5-79.4 1.4-30.3 2.9-60.6 4.4-90.8 1.1-22 2.1-43.9 3.1-65.9 1.3-25.8 2.6-51.6 3.9-77.4.8-16.6 1.5-33.3 2.3-49.9 1.3-27 2.6-53.9 3.9-80.9 1-21 1.8-41.9 3.2-62.9.4-5.9 2.1-11.7 3.6-17.6.3-1.1 1.7-2.2 2.9-2.8 1.3-.6 2.9-.7 4.4-.8 11.8-1.3 17.5 3.8 17 15.6-.7 15-1.9 29.9-2.7 44.9-.8 13.8-1.5 27.6-2.2 41.4-1.3 24.8-2.6 49.6-3.9 74.4-1.2 23.6-2.3 47.3-3.5 70.9-1.5 30.6-3.1 61.2-4.6 91.8-1.3 27-2.5 53.9-3.6 80.9-1.4 35.6-2.7 71.3-4 106.9-1 27.8-1.9 55.6-2.9 83.4-1.3 35.5-2.6 70.9-4 106.4-.9 22.6-1.8 45.3-2.9 67.9-1.7 33.3-3.8 66.5-5.6 99.8-1.3 24.8-2.5 49.6-3.5 74.4-1.5 35.6-2.7 71.2-4 106.9-1 26-1.8 51.9-2.9 77.9-1.4 30.8-2.9 61.6-4.6 92.3-1.7 31.4-3.6 62.9-5.5 94.3-2.2 35.1-4.6 70.1-6.6 105.2-1 18.6-1.3 37.3-2 55.9-1.3 36.8-2.6 73.6-4.1 110.4-.8 21-2 41.9-3 62.9-.3 6.9-2.1 13.4-5.9 19.2-5.7 0-11.4 0-17 0-.9-9.4-1.8-18.7-2.7-28.1.1-.5 0-1.1-.1-1.8z" fill="#059bde"/><path d="m1193.8 3383.7c-3.9.1-7.9.2-11.8.3-7-7.1-8.8-16.2-9.9-25.5-.2-1.5-.2-3-.2-4.5-.8-21.1-1.6-42.3-2.6-63.4-1-21.8-2.3-43.6-3.4-65.4-2-39.8-4-79.5-5.9-119.3-1.4-28.6-2.8-57.2-4.1-85.9-1.8-39.6-3.3-79.2-5.1-118.8-1.8-40.4-3.7-80.9-5.5-121.3-1.1-24.8-2.1-49.6-3.2-74.4-1.7-37.6-3.3-75.2-5.3-112.8-1.9-36.3-4-72.5-6.1-108.8-2.1-36.6-4.4-73.1-6.4-109.7-1.4-25.5-2.4-50.9-3.6-76.4-1.7-35.1-3.6-70.2-5.3-105.3-.9-19.3-1.7-38.6-2.6-57.9-1.1-22.8-2.3-45.6-3.4-68.4-.9-19.5-1.7-39-2.6-58.4-1.1-22.5-2.3-44.9-3.4-67.4-1.5-29.8-3-59.6-4.6-89.3-1.4-26.3-3-52.5-4.4-78.8-.9-16.6-1.5-33.3-2.1-49.9-.1-3.8.4-7.7 1-11.4 1-5.5 6.2-10.5 10.6-10.5 5.1 0 10.4 4.3 11.3 10.1 2 12.8 4.5 25.6 5.3 38.5 2.3 38.4 3.9 76.9 5.6 115.3 1.5 33.3 2.7 66.6 4.1 99.9 1.5 37.4 3.1 74.9 4.7 112.3 1.8 42.4 3.4 84.9 5.4 127.3 1.7 35.8 3.9 71.5 5.7 107.3 1.5 28.1 2.7 56.2 4.1 84.4 2.2 43.8 4.4 87.5 6.5 131.3 2.6 54.1 4.9 108.2 7.5 162.2 2 42.1 4.2 84.2 6.5 126.3 1.3 25.1 2.8 50.2 4.4 75.3 2.1 32.9 4.5 65.8 6.4 98.7 1.8 30.8 3.1 61.6 4.6 92.3 1.3 27.5 2.5 54.9 3.7 82.4 1.2 25.8 2.3 51.6 3.4 77.4 1.3 30.8 3.2 61.6 3.7 92.4.3 16.6-1.9 33.2-3 49.8z" fill="#059bde"/><path d="m941.8 3382.8c-4.5 0-8.3 0-12.4 0-.4-5.4-1.2-10.7-1.2-15.9 0-20.5.2-41 .5-61.4.2-12.7.8-25.3 1.2-38 1.5-52 3-103.9 4.3-155.9.8-32 1.4-64 2.2-96 1-44.1 2-88.3 3-132.4.6-28.3 1.3-56.6 1.9-85 1.4-60.3 2.9-120.6 4.2-180.9.8-36.2 1.3-72.3 1.9-108.5.7-37.8 1.3-75.6 2.1-113.5.9-42.5 1.8-85 2.9-127.4.8-30.3 1.9-60.6 3-90.9 1.6-46.5 3.6-92.9 5-139.4 1.3-43 2.1-86 3-128.9.7-33.5 1.2-67 1.9-100.5.5-21.5 1.1-43 2-64.4.4-9 1.3-18 3-26.8 1.1-5.4 4.2-10.4 6.7-15.5.4-.9 2.5-1.5 3.7-1.3s3 1.3 3.2 2.3c1.3 6 3.2 12.1 3.2 18.1-.6 51.7-1.5 103.3-2.5 155-.6 34.5-1.3 69-2 103.5-1 49.1-2 98.3-2.9 147.4-.8 41.3-1.2 82.6-2.1 124-1.1 53.1-2.6 106.3-3.9 159.4-.9 37-2 74-3 110.9-1.3 47.3-2.7 94.6-4 141.9-.7 26.1-1.4 52.3-2 78.5-1.4 62.5-2.7 124.9-4.1 187.4-.6 28.7-1.2 57.3-1.9 86-1.3 54-2.7 107.9-4.1 161.9-.9 33.3-1.6 66.6-3 99.9-1.2 28.3-2.9 56.6-5 84.8-.4 7.1-3 14.2-4.8 21.6z" fill="#059bde"/><path d="m1102.9 3382.8c-2.1 0-3.8 0-6 0-1.9-9.9-4.2-19.6-5.7-29.5-4.1-26.3-3.4-52.8-4.3-79.3-1-29.6-1.4-59.3-2-88.9-1-45.3-2-90.6-3.1-135.9-.9-40.8-1.9-81.6-2.9-122.4-1-44.1-2.1-88.3-3.1-132.4-.9-38.6-1.9-77.3-2.8-115.9-1.1-44.6-2.1-89.3-3.1-133.9-.9-38.8-1.9-77.6-2.9-116.4-1-38.1-2.1-76.3-3.1-114.4-1.3-50-2.7-99.9-3.9-149.9-.8-32.6-1.4-65.3-2.1-97.9-.9-40.5-1.8-81-2.9-121.4-.8-29.5-1.8-58.9-3.1-88.4-1.6-36.9-3.5-73.9-5.4-110.8-.5-10-.1-20 1.9-29.8 1.4-7 1.3-7 8.4-11.5 4.8 2.1 8.2 5.5 9.1 10.9 1 6.4 2.6 12.8 2.7 19.2.5 24.5.4 49 .7 73.5.5 34.3.9 68.6 2 102.9.8 23.8 3 47.5 4.3 71.3 1.1 22 2.2 43.9 2.5 65.9 1.2 92 2.1 183.9 3.2 275.9.4 31.8 1.1 63.6 2 95.4 1.1 42.1 2.6 84.3 3.9 126.4.7 25.3 1.3 50.6 2 75.9 1.4 53.5 2.7 106.9 4.1 160.4.6 23.6 1.2 47.3 1.9 70.9 1.4 49.8 2.8 99.6 4.2 149.4.6 20.6 1.1 41.3 1.7 61.9 1.5 52.8 3.1 105.6 4.6 158.4.5 15.7.9 31.3 1.3 47 .7 27.3 1.1 54.6 2.1 81.9.1 11-2.2 21.2-6.2 31.5z" fill="#069cde"/><path d="m1030 3385c-3 0-6 0-9 0-5.3-10.3-7.7-21.3-6.9-32.8 1-15.5.6-31 .4-46.5-.6-49-1.1-98-1.5-147-.4-51-.8-102-.9-153-.2-76.2-.1-152.3-.2-228.5-.1-47.3-.4-94.7-.5-142-.1-53.2-.9-106.3-1.6-159.5-.5-41.2-1.1-82.3-1.5-123.5-.3-39.2-.4-78.3-.6-117.5-.2-39.7-.5-79.3-.7-119-.4-69.5-.7-139-1.1-208.5-.2-36.5-.6-73-1.1-109.5-.2-18.7-.6-37.3-.8-56 .3-6 .4-12 0-18 .8-5.3.5-10.7 2.1-15.8 1.3-4.1 5.7-8.1 8.7-8 3.8.1 8.2 4.3 9 8.8 1.5 9 2.9 18.1 3 27.3.4 28.2.8 56.3.9 84.5.1 49.5 0 99 0 148.5 0 54.5-.2 109-.2 163.4 0 54.8.6 109.6 1.2 164.4.5 44 .7 88 1 132 .2 39.7.3 79.3.5 119 .2 39.8.6 79.6.6 119.5.1 71.3.6 142.6 2 213.9.7 36.6 1.4 73.3 2 109.9.7 44.1.6 88.3.5 132.4 0 53.5.5 107 .6 160.4 0 31.5 1 63-4.1 94.3-.3 2.5 0 5-1.8 6.8z" fill="#059cde"/><path d="m1004 1742h-.5-.5c0-6 0-12 0-18h1c.4 6 .3 12 0 18z" fill="#dcf0fa"/><path d="m332 304c-.3 0-.7 0-1 0-.3-3.7-.3-7.3 0-11h1z" fill="#e2f3fa"/><path d="m331 293c-.3 3.7-.3 7.3 0 11-1.8 21.6-7.1 42.3-16.7 61.8-7.1 14.6-16.1 28-25.6 41-27.7 37.8-56.6 74.5-85.2 111.6-2.3 2.9-4.8 5.6-8 7.4-4 2.2-7.1 1.2-9-2.9-.7-1.6-1.2-3.5-1.5-5.2-8.5-53.8-19.8-106.9-36.2-159-6.9-21.9-12.5-44.2-14.4-67.2-2.4-30.1.8-59.5 11-88 2.3-6.4 6.3-12 10-17.4 3.5.1 4.1 2.3 4.8 4.7 7.3 26 14.5 51.9 21.8 77.8 13.4 47.4 26.7 94.8 40.1 142.2.3.9.7 1.9 1.4 3.9 2.8-5 5.6-9.1 7.4-13.6 15.9-39.5 33-78.6 47.4-118.7 8.9-24.7 14.5-50.2 14.8-76.6.1-4.3 1.5-8.4 4.6-13.7 4.9 2.9 9.3 6.1 12.4 11.1 10.3 16.6 15.3 34.9 17.8 54.1 1.6 11.8 2.1 23.8 3.1 35.7z" fill="#029add"/><path d="m229.5 309c-5.8-4.1-8.8-9.2-10.5-15.7-7.4-29.7-16.7-58.9-22.4-89-3.7-20-5.5-40.2-6.7-60.5-2.1-35.3-1.9-70.6-3.9-105.8-.7-11.8-1.7-23.5-2.7-36.2 7.2 4.9 14.6 7.8 19.9 14.5 23.6 29.8 42.1 62.3 54 98.4 6.8 20.5 11.1 41.5 11.4 63.1.3 22.3-3.2 44.1-9 65.6-5.2 19-12.4 37.3-20.1 55.3-1.9 4.7-6 7.4-10 10.3z" fill="#029add"/><path d="m-104 3416.6h2269.6v440.4h-2269.6z" fill="none"/><text fill="#009ade" font-family="'AGaramondPro-Bold'" font-size="334.4882" letter-spacing="-2" transform="translate(169.8777 3655.729)">DSMUN ’19</text></svg>