<svg viewBox="0 0 160.1 229.4" xmlns="http://www.w3.org/2000/svg"><path d="m11.2 56.7.4.2c.2.1.2.2.3.4.5 1.6 1.5 3 2.6 4.3.7.9 1.5 1.8 2.4 2.6 1.6 1.6 3.2 3.2 4.7 4.9.5.6.9 1.3 1.4 1.9l.4.5c0 .1.1.1.2.1l.1-.2c0-.5-.1-.9-.2-1.4-.2-1-.5-2.1-.6-3.1l.1-1.6.5-3.6.4-3.6c.1-.7.2-1.4.2-2.1 0-.4.2-.6.5-.9.2.2.4.4.5.7.4 1.3.6 2.6.8 4l.6 4.9.5 4.1c.2 2 .4 4 .9 5.9.2.9.6 1.9 1.1 2.7l.4 1.1c-.6-.1-1.1-.2-1.6-.5-3.3-2-6.4-4.1-9.3-6.6-1.4-1.2-2.8-2.4-3.8-3.9-1.5-2-2.4-4.3-2.8-6.7-.1-.6-.2-1.1-.4-1.6v-2.5h-.3z" fill="#019add"/><path d="m11.2 42.9c.2-.5.3-1.1.5-1.6l.4-1.2c.1-.2.1-.3.3-.2l.4 1.4c.2.9.4 1.9.6 2.8l1.2 3.3c1.1 2.8 2.1 5.7 3.1 8.5l.3.8c.1.2.2.4.4.4.1-.2.1-.5.1-.8.2-3.6 1.5-6.8 3.4-9.8.8-1.1 1.5-2.3 2-3.5.1-.4.2-.8.5-1.2 0-.1 0-.1.1-.1.2.4.4.8.4 1.2.1.6-.1 1.1-.2 1.7-.8 5-1.9 9.9-3.4 14.7-.5 1.6-.6 3.3-.4 5 .1.5 0 .9 0 1.5-.3-.2-.5-.3-.7-.5l-5.6-7.2c-1.1-1.5-1.8-3.1-2.3-4.9-.5-1.6-.8-3.3-1-4.9l-.1-.2zm58.4 45.3c-1.6-.1-3.5-.1-5.4-.4-10.3-1.3-19.8-6.5-26.4-14.6-13.4-16.1-12.7-39.6 1.6-54.9 15.5-16.7 41.7-17.8 58.4-2.3 9.2 8.5 14.1 20.8 13.2 33.4-.5 9.4-4.2 18.3-10.6 25.2-2.9 3.3-6.4 6.1-10.2 8.3-6.2 3.6-13.3 5.5-20.6 5.3zm18.2-22.3.2.2 1.2 1.3.1.1v.1l.1-.1-.1-.1c-.2-.4-.5-.7-.8-1-.2-.1-.4-.3-.7-.5zm-18.8 16.3v-1.2c0-.6-.2-.8-.8-.9-.8-.2-1.6-.2-2.4-.3l-3.2-.4c-5.8-1.4-11.2-4.2-15.6-8.2-.2-.2-.5-.2-.7 0l-.4.3-3.2 3.2-.5.6c-.2.2-.2.5 0 .6l.3.4 1.2 1c6.9 5.9 15.6 9.2 24.7 9.5.4 0 .5-.2.5-.5v-4.1zm-36-36.1h2.5c.6 0 .8-.2.9-.8l.5-3.8c.2-1.2.4-2.4.7-3.6 1.1-4.2 3-7.9 5.7-11.3l1.8-2.4c.4-.5.4-.7-.1-1.1-1.1-1.2-2.3-2.4-3.5-3.5-.5-.5-.9-.4-1.4.1l-.9 1c-3.4 4-6 8.6-7.6 13.6-.9 2.7-1.5 5.5-1.7 8.3l-.3 2.8c-.1.5.2.8.6.8h2.8zm73.4 1.4h-2.6c-.6-.1-.8.1-.9.8l-.1.2c-.2 1.7-.4 3.4-.6 4.9-.9 5.3-3.3 10.3-6.8 14.3l-1.2 1.6c-.2.4-.2.5.1.9l.1.1 3.5 3.5c.4.4.8.4 1.2 0l.9-1.1c6-6.9 9.4-15.6 9.7-24.7 0-.4-.2-.6-.6-.6zm-37.4-37.4.1-2.5c0-.8-.3-1-1-.9l-3.8.3c-4.5.5-8.9 1.8-12.9 3.9-3.2 1.6-6.2 3.7-8.9 6.1-.5.5-.6.8 0 1.4l3.6 3.6c.4.3.5.3.9.1l.5-.4c5.7-5.1 13-8 20.7-8.4.6-.1.8-.2.8-.8zm37.4 36h2.6c.6 0 .9-.3.8-.9l-.2-2.4c-.1-1.1-.2-2.1-.4-3.1-1.3-7.5-4.8-14.4-9.9-20-.6-.6-.9-.6-1.5 0l-3.2 3.2-.3.4c-.3.4-.3.6-.1.9l.4.5c1.4 1.6 2.8 3.3 4.1 5 .8 1 1.3 2.2 1.6 3.4l.6 2.4c.9 2.4 1.4 4.9 1.6 7.5l.3 2.4c.1.6.4.8.9.8h2.7zm-13.6 24.7c-.7.6-1.3 1.2-2 1.6-1.9 1.3-3.8 2.6-5.5 4-1.1.9-2.3 1.6-3.6 2.3-.6.3-1.2.4-1.9.1-.4-.1-.7-.1-1.1-.1l-1.6.4c-1.2.2-2.5.5-3.8.6l-2.2.3c-.4.1-.6.3-.6.7v5.3c0 .4.3.7.7.7 9.1-.2 17.9-3.7 24.8-9.7l1.1-1c.3-.3.3-.5.1-.8l-.4-.5-2.5-2.4zm-21.9-58.9c-.5.2-.5.5-.5.9s.2.5.6.6l2.3.2c1 .1 2 .2 2.9.4 2.3.4 4.4 1.1 6.5 2 .6.3 1.2.6 1.9.8.6.2 1.2.2 1.8-.1.4-.2.8-.2 1.2-.1l1.4.6c1.5.8 2.6 1.9 3.2 3.4l.3.5c.4.4.8.5 1.2.2l.6-.5 2.5-2.5c.5-.5.5-.7 0-1.2-6.9-6.3-16.1-10.1-25.6-10.4-.5-.1-.8.2-.8.7v3.6c0 .4.1.7.5.9zm-33.3 44.5v-.6l-.4-2.6-.8-5.2c-.1-.4-.2-.5-.6-.5h-5.4c-.6 0-.8.2-.7.8l.1 1.8c0 1.2.1 2.4.4 3.6 1.4 7.5 4.9 14.5 10.1 20.2.5.5.8.4 1.3-.1l3.5-3.4.1-.2c.2-.2.4-.6.1-.9l-.6-.8c-.4-.5-.8-1-1.4-1.4l-.9-.8-.8-.8c-.4-.4-.9-.6-1.4-.8l-.3-.2-1.2-1.2-1.8-1.6c-.2-.2-.3-.3-.6-.3-.6.1-1.1-.1-1.5-.5-.1-.2-.3-.2-.5-.2l.1.8c0 .1.1.2-.1.3-.1.1-.2.1-.4 0l-.2-.2-.2-.5c-.6-1-.8-2.2-.7-3.4.1-1 .7-1.7 1.6-1.9.7-.1 1.4-.1 2.1.1zm3.4-10.3h2.5c.5 0 .9-.3.9-.8l.6-3.4c.8-4.4 2.8-8.5 5.8-11.8.4-.5.4-.8 0-1.2l-3.8-3.7c-.4-.4-.6-.4-1 .1l-.8.9c-4.4 5.4-7 12.1-7.4 19.1 0 .6.2.8.8.8zm28-27.9v-3c-.1-.2-.2-.4-.5-.4h-.4l-4.6.6c-2.4.4-4.7 1-6.9 2.1-2.7 1.3-5.3 2.8-7.6 4.8-.3.3-.6.5-.9.9-.2.3-.2.6-.1.9l.4.4 3.4 3.4.2.2c.2.2.4.2.6.1l.3-.2c2.8-2.5 6.1-4.3 9.7-5.4 1.8-.5 3.6-.8 5.4-.9.7-.1.9-.2.9-.9zm21 47.6.5-.6c.4-.3.6-.3.9.1l.4.9c.2.5.4 1.2.6 1.7.3.7.6.8 1.1.2l1-1.3c4.4-5.3 6.9-11.9 7.1-18.8-.1-.3-.2-.4-.5-.5h-5.3c-.5 0-.8.2-.8.7l-.1.6c-.4 4.9-2.2 9.6-5.3 13.5l-1 1.2c-.3.4-.3.6 0 .9.3.6.8 1 1.4 1.4zm-35 1.5-.3.7c-.2.6-.5.8-1.1.8l-1.1.2-1.6.5c-.7.1-1.4.1-2-.3l-.2-.1c-.4-.1-.7.2-.6.6.1.2.1.5.4.6 4.2 3.7 9.2 6.3 14.7 7.5 1.8.4 3.5.7 5.3.6.6 0 .8-.1.8-.7v-4.7l-.3-.4c-.1-.4-.2-.6-.6-.7l-.8-.1-2.4-.2c-2.8-.5-5.4-1.5-7.8-2.9zm38.4-32.7c.3.1.4.2.5.5l.4 1.5c.3 1.2.5 2.4.5 3.5l-.1 3.1c0 .7 0 1.4.2 2.1.1.5.3.6.8.6h5.2c.6 0 .9-.3.8-.9-.2-1.4-.3-2.9-.5-4.3-.4-2.1-.9-4.2-1.8-6.2-.2-.5-.5-.6-1.1-.4-.6.3-.9.2-1.3-.2l-.6-.8c-.7-1-1.5-1.8-2.6-2.4l-.8-.4c-.5-.4-1-.8-1.4-1.3l-.3-.3-1.8-.6h-.3c-.5.3-.6.8-.7 1.4 0 .1 0 .2.2.4.4.4.7.8 1 1.3s.7 1.1 1.1 1.5c.5.6 1 1.2 1.3 1.9l.9 1.9.5 1.4.3.5c.1.1.1.1.2.1.1-.1.1-.1.1-.2l-.1-.4-.6-2.5c-.1-.3-.1-.5 0-.8zm-24.4-9.7v-1.4c0-.4-.2-.5-.6-.5h-.4c-5.2.3-10.1 2.4-14 5.8-.5.5-.5.8-.1 1.3l.2.2 2.5 2.5.8.8c.4.4.8.4 1.2.1l.6-.5c1.6-1.2 3.4-2.2 5.4-2.6l3.6-.8c.5-.1.6-.3.6-.8v-4.1zm16.5 4.6c0-.3-.1-.5-.3-.6l-2.1-1.7c-1.8-1.3-3.8-2.4-6-3-1.4-.4-2.7-.6-4.1-.8l-1.9-.4c-.5-.1-.8.2-.8.6v.4l-.1 2.4.1 2.6c.1.5.2.6.6.8l.6.1c3.2.4 6.3 1.7 8.8 3.8.5.4.8.4 1.2 0l3.6-3.6c.4-.2.5-.4.4-.6zm-5.1-6c.4-.1.6-.2.9-.1.4.1.8 0 1.1-.2.4-.2.6-.2 1.1-.2.4.1.6.3.8.6l.6.8c.2.2.4.3.6.3.4 0 .6-.2.6-.6-.2-2.4-1.3-4.7-3.2-6.2l-.4-.3c-1.9-.9-3.8-1.5-5.8-1.9-1.5-.3-3-.5-4.5-.6l-.9-.1c-.6 0-.8.2-.7.8l.1.2c.1.5.1 1.1.1 1.6-.2 1.1-.1 2.2-.1 3.4 0 .4.2.6.5.6l.3.1 2.2.4c1.4.2 2.7.5 4 .9l2.8 1c.1 0 .3.1.5 0zm-23.3 11.6-.8-.8-3.3-3.3c-.4-.5-.8-.4-1.2.1l-.9 1.1c-2.7 3.6-4.4 7.6-4.8 12.1v1.8h2c.6-.1 1.1-.4 1.4-1l.2-.5c.1-.5.2-1.1.5-1.5.4-.9 1-1.5 1.9-1.8.2-.1.3-.1.4-.2s.2-.1.3-.3c.2-.5.6-.8 1-1.1l1-1zm16.1 9.8v-.2c0-1.1-.4-1.9-1.2-2.5l-.6-.5-.4-.3-1.6-.6h-.9c-.1 0-.2.1-.2.2-.2.5-.5.8-.8 1l-.8.4c-.4.2-.8.5-1.1.8-.2.3-.3.5-.2.8l.4.6c.1.2.1.3 0 .5l-.3.6c-.1.2.1.5.3.6 1.2.2 2 1 2.7 1.9.4.4.5.9.4 1.5-.1.5-.4.9-.6 1.4-.4.6-1 1-1.7 1.1l-1.2.2c-.2.1-.2.2-.1.3.4.5.8.8 1.5.6l.4-.1c.6-.2.6-.2.9.4.1.3.3.5.6.5.4.1.7.1 1.1.1s.6-.2.9-.5l.4-.8.3-.9c.2-.4.5-.6.9-.6l.6-.1c.5-.1.9-.3 1.1-.8.1-.3.2-.6.2-.9 0-.1 0-.2-.2-.4s-.3-.7-.1-.9v-.3l-.3-1c-.2-.6-.4-1.3-.4-2.1zm-4.6 25.2-1.6-.3c-.9-.1-1.6-.5-2.3-1.2-.4-.5-.6-1-.9-1.5-.2-.3-.2-.6-.2-1 0-.7.4-1.2.7-1.8l.5-.7c.2-.3.1-.5-.2-.7l-.6-.2c-2-.7-3.7-1.7-5.2-3-.4-.3-.8-.3-1.2.1l-2.6 2.7-1 1c-.3.4-.3.7.1 1l.2.2 2.8 1.9c1.8 1.2 3.6 2.2 5.8 2.9 1.7.5 3.5.8 5.3.9.2 0 .4.1.5.1zm-15.4-19.3-.2.1c-.2.2-.4.3-.6.2s-.3-.3-.2-.5l.1-.2.2-.8c.1-.1.1-.2.1-.2-.1-.4 0-.8.1-1.1.1-.5-.1-.8-.6-.8h-1.4c-.5 0-.8.2-.9.7l-.3.4-.5.3c-.7.4-.7.5-.6 1.2.1.6.4 1.2.8 1.8.2.2.4.5.5.7l1.2 3.4c.1.4.2.7.1 1.1-.1.7-.1 1.4.2 2.1l.5 1.6.3 1.1c.1.2.2.5.4.6.1.1.2.2.4.1s.4-.2.6-.4l3.5-3.5c.3-.3.4-.6.1-1l-.2-.4c-.8-1.3-1.6-2.5-2.3-3.9-.7-.7-1-1.6-1.3-2.6zm34 11.9c2.5-2.7 4.3-5.9 5.2-9.5.4-1.2.5-2.5.7-3.7l.2-1.3c.1-.5-.1-.8-.6-.8h-3.6c-.5 0-.6.2-.4.7.3.5.6 1.1.8 1.8.2.4.5.6.9.6l1.2-.2c.2 0 .4 0 .4.2l-.6.9c-.4.6-.9 1-1.6 1.2l-.6.1c-.9.2-1.9.4-2.7.9-.8.4-1.1 1.1-1.3 1.8-.1.3-.1.5.2.8.4.6.5 1.2.4 1.9l-.4 1.4-.2 1.1h.4c.6 0 .9.3 1.1.9 0 .5.3.8.5 1.2zm-18.1-29.6v-.8l-.1-.5c0-.5-.2-.6-.7-.6l-1.1.1c-2.8.4-5.2 1.6-7.4 3.4-.4.4-.5.6-.1 1l3.9 3.9c.3.2.5.2.8.1l.8-.5.4-.4c.2-.4.5-.6.9-.8.1-.1.2-.1.4 0 .3.2.6.2.9.1l.6-.2c.5-.1.6-.2.6-.7zm20.3.5-.1-.2-1.6-2.2-.2-.3c-.3-.3-.5-.3-.8-.1l-.4.3-2.4 2.3-1.2 1.2c-.3.4-.3.6-.1.9l1.4 1.8c.2.2.4.4.7.4.5.1 1 .4 1.4.7.5.5.9 1.1 1.3 1.7l.4.8.2-.2.8-.6c.5-.4.9-.4 1.3.1l.5.8c.1.2.1.4 0 .6-.1.4-.1.7.1 1.1.1.3.4.4.6.1l.2-.2c.3-.5.5-1.1.9-1.5.2-.3.2-.6.1-.9-.2-.7-.4-1.4-.7-2.1-.3-.6-.8-1.2-1.5-1.5-.5-.2-.6-.6-.4-1.2l.1-.4c.1-.4-.1-.9-.4-1.1.1.6-.1 1.3.1 1.9 0 .1-.1.2-.2.3-.2.2-.6.4-.9.4-.4.1-.8.1-1.2-.1l.1-.1 1.3-2.5c.2 0 .4-.2.6-.2zm-22.6 28.5c.5-.1.9-.2.8-.9l-.1-.7c-.1-.7.2-1.2.9-1.3.5-.1.6-.4.5-.9-.1-.3-.3-.5-.4-.8-.3-.5-.5-.9-.1-1.5.1-.2.1-.4-.2-.5l-.4-.2-3.1-1.3c-.6-.3-1-.2-1.5.2l-1.6 1.6-2 1.9c-.4.4-.4.6.1 1l1.1.8c.7.5 1.4.9 2.2 1.3 1.2.5 2.4.9 3.6 1.3zm6.8-25.3c.1.3.2.5.1.8l-.1.7c0 .2.1.4.2.6.3.2.6.5 1.1.5.3.1.5 0 .7-.3l.1-.4.2-.8c.1-.2.2-.5.5-.5.2 0 .4-.2.4-.4.4-.7.8-1.4 1.6-1.7l.6-.4c.2-.2.3-.4.1-.6s-.3-.4-.5-.5c-.8-.5-1.6-1-2.4-1.4-1.6-.7-3.4-1-5.1-1.3-.5-.1-.7.1-.7.6v5.3c0 .5.2.6.6.8.5.2.9.1 1.3-.3l.2-.2c.3-.2.7-.4 1.1-.5zm-32.5 10.7h-2.8c-.4 0-.5.2-.5.5v.2c0 2.6.5 5.1 1.3 7.6.1.4.4.7.9.7h.5c.7 0 1.2-.4 1.4-1.1l.1-.4c.1-1.3.5-2.5 1.3-3.5l1.1-1.4c.3-.4.4-.8.3-1.2l-.1-.8c0-.5-.2-.7-.8-.7h-2.7zm36.5 29.9-.3-.3-1.4-1.1c-.5-.4-.6-.9-.5-1.6.1-.6 0-1.2-.4-1.7-.5-.7-1.2-1.1-2.1-1.1-.7-.1-1.3.1-1.9.3-.3.1-.4.2-.5.5l-.1.5v5.1c.1.4.2.6.6.6h.4l5.2-.7c.4-.1.8-.2 1-.5zm-23-27.2v.6c.6 1.9 1.4 3.7 2.6 5.3.2.2.4.5.6.7s.4.2.7.1l.5-.4 3.2-3.2.2-.3c.2-.3.2-.6.1-.9-.1-.4-.4-.6-.6-.8l-1.1 2.1c-.1.2-.3.4-.5.5-.2-.2-.4-.5-.4-.8v-.4c-.1-.4-.4-.6-.8-.5-.3.1-.5.1-.8-.1l-.4-.4c-.8-1.1-2-1.6-3.3-1.5zm15.7 10.7c.6 0 1.1.1 1.6.2l.6.2c.4.4.8.5 1.4.4.8-.2 1.5-.5 2.2-.8.5-.2 1-.4 1.5-.8.3-.2.4-.5.4-.8-.3-.1-.6-.1-.9-.1l-1.4.2c-.6.1-1.1.2-1.6.4-.6.2-1.3.2-1.9-.1-.5-.3-.9-.2-1.5 0-.1.1-.2.2-.3.4zm22.2-17.8c-.5.4-1 .6-1.5.8s-.9.5-1.2.8-.5.8-.6 1.3h3.6c.6-.1.9-.5.7-1.1-.4-.6-.7-1.1-1-1.8zm-45.2 7.9c.2-.4.4-.8.4-1.2l.1-.8.1-1.5h-1.3c-.3.1-.4.2-.4.5l.1 1.8c.2.9 0 .8.9 1.1zm32.6-13.2c.2 0 .4-.1.5-.2.7-.2.9-.2 1.1.5l.3.8.2-.1c.5-.1.6-.5.5-.9-.2-.4-.5-.8-.9-1-.7-.1-1.4 0-1.7.9zm2.8 24.2c0-.1-.1-.1-.1-.2-.2-.2-.5-.3-.8-.4l-1.6-.2c.7.6 1.5 1.1 2.5.8zm-6.9-4.3c.2 0 .3.1.5.1.3-.1.5-.4.7-.5l.1-.1c0-.1-.1-.1-.1-.1l-.5.1c-.4-.1-.6.1-.7.5zm-40.9 38.6c.1-.3.2-.4.4-.3l1.3.3c2.1.8 4.2 1 6.5.8s4.5-.8 6.7-1.8c2.4-.9 4.7-1.9 7-2.7 1.5-.4 2.9-.9 4.4-1.1 1.5-.3 2.9-.3 4.4-.1 1 .1 1.9.4 2.8.5 1.3.2 2.6.2 3.8-.2 1.8-.5 3.7-.6 5.6-.4 4.1.4 8 1.5 11.7 3.4 1.5.6 3.1 1.3 4.8 1.6 3.1.8 6.3.6 9.2-.5l1.1-.4.2.1c.1.1.1.2 0 .3l-.4.6c-2.2 2-4.8 3.2-7.8 3.7-4.1.7-8-.1-11.7-2.1-1.4-.8-2.8-1.7-4.2-2.6l-2.7-1.8c-.8-.5-1.7-.8-2.7-.8l-1.4.2c-.3 0-.4.1-.5.4.4.3.6.6 1.1.8l6 3.7c1.2.8 2.3 1.6 3.3 2.6l1.3 1.2c.4.4.4.6.1 1.1-.4.4-.7.7-1.1 1-.6.4-1.1.4-1.7-.1l-.9-1c-3-3.3-6.4-6.1-10.3-8.3-.7-.4-1.4-.4-2.1.1l-3.4 2.1c-1.6.9-2.9 2.2-4.3 3.5l-3.4 3.4-.4.4c-.4.3-.8.4-1.2.1-.5-.3-.9-.6-1.2-1.1-.2-.4-.2-.7.1-1.1s.7-.7 1.1-1c2.9-2.5 5.9-4.7 9.2-6.5.5-.2.9-.5 1.1-1.1-.3-.2-.6-.4-1-.4-1-.1-1.9.2-2.8.7-2.2 1.4-4.5 2.8-6.6 4.2-2.9 1.7-6.2 2.8-9.5 3.2-.9.1-1.8-.1-2.6-.3-1.2-.3-2.5-.6-3.6-1-1.5-.5-2.9-1.4-4.2-2.4zm88.9-24.5c.1.4.1.6-.1 1-.7 1.5-1.5 3-2.4 4.4-1.2 1.9-2.9 3.6-4.8 5-2.7 2.1-5.8 3.5-9.1 4.2l-6.4 1.4c-.5.1-.9.1-1.3-.1-.1-.5.1-.9.5-1.3 1.1-1.2 1.9-2.6 2.5-4.2.8-1.9 1.4-3.9 2.2-5.8 1-3.5 2.8-6.8 5.1-9.6.1-.2.4-.3.6-.4.2.4.2.8.1 1.2-.3 1.9-.6 3.7-1.1 5.6l-.8 3.9c-.4 1.7-1.1 3.2-2.1 4.7l-.8 1.1-.4.7.3-.1c1.6-1 3.2-2.1 4.8-2.9l6-3.2c2.5-1.2 4.5-2.9 6.2-5 .4-.4.6-.5 1-.6zm-83.4 16.6c-.5.1-.9 0-1.4-.1l-7.7-1.5c-3.1-.6-5.8-1.9-8.2-3.9-2.2-1.8-4.2-3.9-5.8-6.4-.5-.9-.9-1.9-1.4-2.8-.2-.4-.2-.8.1-1.2.3.3.6.5.9.9 1.5 1.9 3.4 3.2 5.4 4.4l7.9 4.2c.9.5 1.6 1 2.4 1.5.4.3.7.5 1.1.6.1.1.2.1.4-.1l-.7-1c-1.1-1.2-1.9-2.6-2.5-4.2-.3-.9-.5-1.8-.6-2.7-.5-2.6-.9-5.4-1.5-8-.1-.3-.1-.6-.1-.9 0-.1-.1-.2.1-.2.1-.1.2 0 .3.1 2.8 3.5 4.9 7.6 6.3 11.9.4 1.1.7 2.2 1.2 3.4.7 1.8 1.6 3.4 2.9 4.8l.7.9z" fill="#019add"/><path d="m115.3 54.5.5 3 .8 4.5c.2 1.8.4 3.5.2 5.3-.1 1.3-.4 2.5-.8 3.8.1.1.2.1.4-.1l.5-.6c1.6-2.6 3.6-4.8 5.8-6.9 1.9-1.9 3.5-3.9 4.6-6.3l.5-1.2.2-.5c.1-.1.2-.2.4-.1.2.8.2 1.5.1 2.4-.6 5-3 9.7-6.8 13.1-1.7 1.6-3.6 2.9-5.6 4.1-1.5.9-2.8 1.8-4.2 2.8-.2.2-.6.3-.9.4-.1-.4-.2-.8-.1-1.1l.7-1.8c.2-.8.3-1.7.5-2.5.4-2.5.8-5.1.9-7.7.2-2.7.4-5.4 1.1-7.9.2-.8.4-1.6.7-2.3.1-.4.2-.5.5-.4zm-21 35.8 1.6-.2 3.5-.4 3.6-.4 2.3-.2c2.9-.3 5.7-1.1 8.2-2.8.4-.2.7-.4 1.1-.5.2.1.1.2 0 .4-2.9 4.1-7.3 6.8-12.2 7.7-1.8.3-3.6.3-5.4 0-3-.3-6-1-9-1.6l-1.3-.3c-.6-.1-1.2-.4-1.7-.8.4-.2.7-.5 1.1-.6 3.1-.8 5.5-2.5 7.8-4.7 2.3-2.3 4.7-4.5 6.9-6.7l1-.8.6-.1c.1.3.1.5 0 .8l-1.3 2.8c-1.1 2.2-2.5 4.2-4.1 5.9-.4.4-.8.7-1.2 1l-1.4.9c-.2.3-.2.5-.1.6zm-68.9-3.4c.2-.1.5 0 .8.1l2.4 1.3c1.2.5 2.4.9 3.7 1.1 1.8.3 3.5.4 5.2.5l4.8.5 2.6.2c.3 0 .5 0 .8-.2l-.4-.2c-2.4-1.1-4.1-2.9-5.4-5.3l-2.4-4.9c-.2-.4-.2-.7-.2-1.1.4.1.8.1 1.1.4 3.3 2.8 6.6 5.7 9.7 8.7 1.2 1 2.5 1.6 3.9 2.1l3 1.1.2.1c.1.2-.1.3-.2.4-.6.2-1.3.4-1.9.5l-6.7 1.5c-2 .4-3.9.8-5.9.8-2.7.1-5.2-.4-7.7-1.6-1.8-.9-3.6-1.8-5.2-3.2-.7-.6-1.3-1.3-1.9-2-.3-.2-.3-.4-.3-.8zm-7.9-62.3c.2.4.2.7.1 1.1-.3 1.4-.4 2.6-.2 4 .1 1.8.4 3.6.6 5.4.2 1.6.2 3.4.2 5v1.8l.3.1c.2-.8.5-1.5.8-2.2.8-1.6 2-3.1 3.3-4.4 1.5-1.5 3.1-2.9 4.6-4.4.1-.1.2-.1.4-.1.1.1.1.1.1.2.1.9-.2 1.8-.5 2.6-.4 1.4-1.2 2.6-1.9 3.8l-5.3 8c-.5.9-.9 1.8-1.3 2.8l-.4.8c-.2.3-.5.3-.7-.1l-.1-.2c-.9-2.7-1.9-5.4-2.8-8.1-.8-2.2-1.1-4.5-.8-6.8.2-1.9.6-3.8 1.4-5.6.5-1.2 1.1-2.2 1.7-3.3.1-.2.3-.2.5-.4z" fill="#019add"/><path d="m119.3 64c-.4-.4-.5-.8-.6-1.2-.1-1.1 0-2.1.2-3.1.5-2.8 1.5-5.5 2.5-8.1.6-1.4 1.3-2.8 1.8-4.2.5-1.8.8-3.6.9-5.4 0-.3.2-.5.4-.8.5 1 .9 2.1 1.1 3.2.9 5.7-.4 11.6-3.6 16.4l-1.9 2.7c-.4.2-.6.4-.8.5z" fill="#019add"/><path d="m78.1 10.2c-.2.5-.7.6-1.2.7l-2.8.4c-.4.1-.6.3-.7.8v.2c-.1.3-.2.4-.5.3l-1.6-.6c-.1-.1-.2-.1-.2-.2 0-.2.1-.5.4-.6 1.5-.4 3-.9 4.5-1.2.6-.4 1.4-.1 2.1.2zm11.8 5.8c.3-.1.6-.2.9-.1.4.1.6.5.4.8-.1.3-.4.4-.6.2-.4-.1-.6-.5-.7-.9z" fill="#049bde"/><path d="m38.8 66.8c-.5-.4-1.1-.8-1-1.5.8.1 1.1.8 1 1.5zm53.7-36 .6.2c.2.2.3.3.1.5l-.2.4zm-11.4-8.8c-.6 0-1-.3-1.2-.9.1-.1.2-.1.3-.2zm-28.7 30.1.4-.1.4.9-.4.1z" fill="#0b9edf"/><g fill="#029add"><path d="m147.8 63.1c-.2.1-.3.1-.4-.1-.2-.4-.5-.8-.6-1.2-.9-2-2.1-3.8-3.5-5.4-1.2-1.4-2.5-2.5-3.8-3.6l-2.8-2.6-3.8-3.5-.1-.1c-.2.1-.2.2-.2.4l.4 1.1c.6 1.2.9 2.5 1 3.8.2 2.4.1 4.8-.4 7.1l-.2 1.1c-.1.3-.2.5-.5.7-.2-.1-.4-.3-.5-.5-.4-.7-.5-1.4-.6-2.2l-2.1-8.9c-.6-2.9-1.9-5.7-3.8-8-.3-.4-.6-.9-.6-1.3.7.1 1.3.3 1.9.6l5.7 2.9c1.6.9 3.3 1.8 4.9 2.8 5.8 3.5 9.5 9.9 10 16.9z"/><path d="m139.4 60.8c-.1-.1-.2 0-.3.1l.1 1.7c.1 1.6-.1 3.2-.6 4.7-.3 1.1-.8 2.1-1.2 3.1l-1.4 4c-.1.4-.4.8-.6 1.2-.1.2-.2.2-.4 0l-.2-.7c-.2-1.1-.1-2.1-.1-3.2l.1-3.6.4-5.4c.1-1.1.4-2.2.6-3.2.3-1.5.2-3-.2-4.5-.2-.7-.2-1.4-.2-2.1.1-.2.2-.3.5-.2l.4.3 2.2 2.1 3.3 3.1c3.6 3.7 5.8 8.5 6.4 13.7l.1 2.5c.1.7-.1 1.4-.4 2-.1.1-.1.2-.2.2s-.2-.1-.3-.2l-.4-1.3c-.5-2.1-1.4-3.9-2.5-5.8-.5-.9-1.1-1.7-1.7-2.5-.7-1.1-1.3-2.2-1.8-3.4-.7-1-1-1.9-1.6-2.6z"/><path d="m133.7 87.7c-.2-.4-.4-.9-.2-1.4.4-2.6 1.2-5.2 2.4-7.6l3.6-7.8c.3-.6.5-1.4.6-2.1.1-.4.2-.8.4-1.2.1-.1.1-.2.2-.2.1-.1.2.1.2.2 1.5 2.7 3 5.5 4.4 8.3 1.8 3.8 2.1 8.1.9 12.2l-.8 3.1c-.2.5-.5.9-.7 1.3-.1.1-.3.1-.4-.1s-.2-.5-.1-.8c.2-2.1-.1-4.1-.6-6.1l-1.5-5.7c-.3-1.3-.5-2.7-.5-4.1-.1-.2-.2-.2-.4 0s-.4.5-.5.9c-.4 1.6-1.1 3.1-2.1 4.5l-4.3 5.9c0 .4-.3.5-.6.7z"/><path d="m130.4 98.7c-.2-.4-.4-.7-.2-1.1.3-1.9 1.1-3.6 2.1-5.2.8-1.3 1.8-2.4 2.7-3.5 1.4-1.5 2.7-3.2 3.9-4.9l1.9-2.5.1-.1.3 1.2c.4 1.7.7 3.4 1.1 5.2.2.9.4 1.9.5 2.9.3 2.1 0 4-.8 5.9-.3.8-.8 1.5-1.1 2.4-.2.4-.5.7-.7 1.1l-1.5 1.9-.2.2-1 .5h-.2c-.1-.1-.1-.2-.1-.3l.2-.6c.8-1.2 1.1-2.5 1.3-3.9l.7-7.5c0-.5.1-.9.1-1.5v-.2c-.1-.1-.1-.2-.2-.2-.1-.1-.1.1-.2.1l-.5.9c-.4.6-.8 1.1-1.3 1.6l-4.8 5.5-1.4 1.6c-.2.1-.4.3-.7.5z"/><path d="m126.9 109.6c-.1-.3-.1-.6.1-.8.9-1.2 1.5-2.6 2.2-3.9.9-1.8 1.9-3.4 3-5l1.7-2.6c.6-.8 1.2-1.6 1.9-2.3l.6-.7.6-.5c.2-.1.4 0 .3.2-.3 2.6-.6 5.3-1.8 7.8-.5 1.3-1.3 2.5-2.2 3.5-1.6 1.8-3.5 3.2-5.7 4.2-.1.1-.4.1-.7.1z"/></g><path d="m60 201.3h-.2v-1.8h.1v.1z" fill="#edf7fc"/><path d="m60 201.3 1-.1v.1z" fill="#a9dcf3"/><path d="m59.8 199.5-.1-.9h.1z" fill="#caeaf7"/><path d="m79.9 201.3.7-.1v.1z" fill="#d7eff9"/><path d="m59.8 199.5v-.9l.2-3.4.2-4 .2-4.3.3-5.4.2-6.3.2-5.1.2-4.9.3-5.8.2-6 .2-4.7.3-6.1.1-3.6.3-5.7.2-4.7c.1-3.1.3-6.2.5-9.2l.2-4.5.2-2.9.2-4.8.2-3.7c0-.4.1-.6.2-1l.2-.2.3-.1c.7-.1 1 .2 1 .9l-.2 2.6-.1 2.4-.2 4.4-.2 4.2-.2 5.4-.2 4.8-.2 6.3-.2 4.9-.2 6.3-.2 4-.3 5.8-.2 4.4-.2 6.3-.2 4.6c-.2 3.7-.4 7.3-.6 10.9l-.4 6.2-.1 3.3-.2 6.5-.2 3.7c-.1.4-.1.8-.4 1.1h-1l-.2-1.6v-.1zm20.8 1.7h-.7c-.4-.4-.5-.9-.6-1.5v-.3l-.2-3.7-.2-3.9-.4-7-.2-5.1-.3-7-.4-7.1-.2-4.4-.3-6.6-.4-6.4-.4-6.5-.2-4.5-.4-6.2-.1-3.4-.2-4.1-.1-3.4-.2-4-.1-5.1-.3-4.7-.1-2.9.1-.6c.1-.4.4-.6.6-.6.3 0 .6.3.6.6.1.7.3 1.5.4 2.2l.3 6.8.2 5.9.3 6.7.3 7.5.4 6.3.2 5 .4 7.7.4 9.5c.2 4 .4 7.9.6 11.9.1 1.9.3 3.8.4 5.8l.3 5.5.2 4.8.2 4.5.2 5.5c.1.9 0 1.8-.1 2.8zm-14.8 0h-.8l-.1-.9.1-3.6.1-2.2.2-9.2.1-5.7.2-7.8.1-5 .2-10.7.1-6.4.1-6.7.2-7.5.2-5.4.3-8.2.2-7.6.1-5.9.3-5.4c.1-.3.2-.6.4-.9l.2-.1.2.1.2 1.1-.1 9.1-.1 6.1-.2 8.7-.1 7.3-.2 9.4-.2 6.5-.2 8.4-.1 4.6-.2 11.1-.1 5.1-.2 9.5-.2 5.9-.3 5z" fill="#059bde"/><path d="m75.2 201.2h-.4l-.4-1.8c-.2-1.5-.2-3.1-.2-4.7l-.1-5.2-.2-8-.2-7.2-.2-7.8-.2-6.8-.2-7.8-.2-6.9-.2-6.7-.2-8.8-.1-5.8-.2-7.1c-.1-3.9-.2-7.9-.5-11.8-.1-.6-.1-1.2.1-1.7.1-.4.1-.4.5-.7.3.1.5.4.5.6l.2 1.1v4.4l.1 6.1.3 4.2.1 3.9.2 16.2.1 5.6.2 7.4.1 4.5.2 9.5.1 4.2.2 8.8.1 3.6.3 9.3.1 2.8.1 4.8c.4.5.3 1.2 0 1.8z" fill="#069cde"/><path d="m70.9 201.3h-.5c-.3-.6-.5-1.2-.4-1.9l.1-2.7-.1-8.7-.1-9v-13.5l-.1-8.4-.1-9.4-.1-7.3v-6.9l-.1-7-.1-12.3-.1-6.4-.1-3.3v-1.1c.1-.4 0-.6.1-.9.1-.2.4-.5.5-.5.2 0 .5.2.5.5l.2 1.6.1 4.9v18.4l.1 9.7.1 7.8v7l.1 7c0 6.4.1 12.7.2 19.1v7.8l.1 9.5c0 1.8.1 3.7-.2 5.5.1.3.1.4-.1.5z" fill="#059cde"/><path d="m69.4 104.6-.1-1.1h.1z" fill="#dcf0fa"/><path d="m29.8 19.9-.1-.6h.1z" fill="#e2f3fa"/><path d="m29.8 19.3v.6c-.1 1.3-.4 2.5-1 3.6-.4.8-.9 1.6-1.5 2.4-1.6 2.2-3.4 4.4-5.1 6.5l-.4.6c-.2.1-.5.1-.5-.2l-.1-.3c-.5-3.2-1.2-6.3-2.1-9.4-.4-1.3-.8-2.6-.9-4-.1-1.8.1-3.5.6-5.2l.6-1c.2 0 .3.1.3.3l1.3 4.6 2.4 8.4.1.2.4-.8c.9-2.3 1.9-4.7 2.8-7 .5-1.4.9-2.9.9-4.5 0-.3.1-.5.3-.8.3.2.5.4.7.6.6 1 .9 2.1 1.1 3.2z" fill="#029add"/><path d="m23.8 20.2c-.4-.2-.5-.5-.6-.9-.4-1.7-1-3.5-1.3-5.2-.2-1.2-.4-2.4-.4-3.5l-.2-6.2-.2-2.1c.4.1.9.3 1.2.7 1.4 1.8 2.5 3.7 3.2 5.8.8 2.4.9 5.1.2 7.5l-1.2 3.3c-.2.3-.4.4-.7.6z" fill="#029add"/><path d="m4.2 203.2h133.6v25.9h-133.6z" fill="none"/><path d="m22.6 207.5c0-1.9 0-2.2-.9-2.3h-.4c-.2-.1-.2-.7 0-.7 1.7-.1 3.2-.2 5.3-.2 1.6 0 3.2.2 4.6.6 2.6.9 4 3.2 4 5.7 0 2.6-1.3 4.8-3.5 5.9-1.3.7-3 .9-5 .9-.9 0-1.9-.1-2.6-.1-.9 0-1.9 0-3.1.1-.2-.1-.2-.6 0-.7l.6-.1c.9-.1 1-.3 1-2.1zm2.8 6.2c0 1.1 0 1.8.4 2.2s.9.6 1.6.6c3.4 0 4.6-3 4.6-5.7 0-3.5-1.9-5.6-5.4-5.6-.5 0-.9.1-1 .3s-.1.5-.1 1.1v7.1zm14.9 3.9c-1.8 0-2.9-.5-3.3-.7-.4-.4-.6-1.8-.6-3.2.1-.3.6-.3.7-.1.4 1.3 1.7 3.1 3.4 3.1 1.5 0 2.1-1 2.1-2 0-1.6-1.5-2.5-2.7-3.1-1.4-.7-3-1.9-3-3.8 0-2.2 1.7-3.8 4.6-3.8.6 0 1.5.1 2.2.3.3.1.4.1.7.2.2.4.4 1.5.4 2.8-.1.2-.6.3-.8.1-.3-1-1.2-2.4-2.6-2.4-1.3 0-2 .8-2 1.8 0 .9.8 1.7 1.8 2.2l1.3.7c1.2.6 2.8 1.8 2.8 4 0 2.3-2 3.9-5 3.9zm6.2-12.7c-.2-.2-.2-.6.1-.7.7 0 1.5.1 2.5.1.6 0 1.2 0 1.9-.1 0 1.2.7 2.4 1.6 4.3l1.3 2.8c.2.4.9 1.6 1.2 2.1.3-.5.6-1.1 1.1-2.2l1-2.2c.9-2 1.4-3.1 1.9-4.8.9.1 1.4.1 1.9.1.6 0 1.6 0 2.3-.1.2.1.2.5.1.7l-.6.1c-.8.1-1.2.4-1.2 1.4 0 4.1 0 6.2.2 8.7 0 .9.1 1.4.9 1.5l.6.1c.2.2.2.6 0 .7-.9 0-1.8-.1-2.7-.1s-2 0-2.9.1c-.2-.1-.3-.6-.1-.7l.6-.1c.9-.1.9-.4.9-1.6v-7.3c-1.5 3.1-3 6.4-4.3 9.8-.1.1-.2.1-.4.1s-.4 0-.5-.1c-.8-2.4-3.2-7.3-4.3-9.9-.1 1.3-.1 2.1-.1 3.2v4.4c0 1 .1 1.3.9 1.4l.8.1c.2.1.1.6 0 .7-.7 0-1.6-.1-2.3-.1-.6 0-1.4 0-2.2.1-.3-.1-.3-.6-.1-.7l.4-.1c1-.2 1.1-.3 1.2-1.5.1-1 .2-2.7.3-4.5.1-1.3.1-2.9.1-4s-.4-1.4-1.2-1.6zm19.4 2.2c0-1.8-.1-1.9-1-2.1l-.5-.1c-.2-.1-.2-.6 0-.7.9 0 1.9.1 2.9.1s1.9 0 2.9-.1c.2.1.2.6 0 .7l-.5.1c-.9.2-1 .3-1 2.1v4.5c0 2.3.3 4.8 3.2 4.8 2.5 0 3.3-2.2 3.3-4.9v-2.4c0-1.6-.1-3.1-.3-3.6-.2-.4-.6-.5-1.1-.6l-.5-.1c-.2-.2-.1-.6 0-.7 1.1 0 1.8.1 2.6.1.7 0 1.5 0 2.2-.1.1.1.2.5 0 .7l-.4.1c-.5.1-.9.2-1.1.6-.2.5-.3 2-.3 3.6v2.2c0 1.8-.2 3.5-1.3 4.7-.9.9-2.3 1.4-3.9 1.4-1.5 0-2.8-.2-3.9-1.1-1-.8-1.5-2.3-1.5-4.4v-4.8zm25.2 6.8v3.2c-.1.2-.7.5-1.2.5 0 0-.7-1-1.6-2.1l-4.5-5.6c-1.1-1.4-1.8-2.2-2.1-2.5-.1.2-.1.5-.1 1.3v3.8c0 1.6.1 3.1.3 3.6.2.4.6.6 1.1.6l.6.1c.2.2.1.6 0 .7-1.1 0-1.8-.1-2.6-.1-.7 0-1.5 0-2.2.1-.1-.1-.2-.5 0-.7l.3-.1c.5-.1.9-.2 1.1-.6.2-.5.3-2 .3-3.6v-5c0-1.1 0-1.4-.1-1.7-.2-.3-.4-.6-1.1-.7l-.6-.1c-.1-.2-.1-.6.1-.7.9 0 1.9.1 2.7.1.7 0 1.2 0 1.7-.1.2.9 1.5 2.4 3.2 4.5l1.7 1.9c.9 1 1.4 1.7 1.9 2.2.1-.2.1-.5.1-.9v-2.7c0-1.6-.1-3.1-.3-3.6-.2-.4-.6-.6-1.1-.6l-.5-.1c-.2-.2-.1-.6 0-.7 1.1 0 1.8.1 2.6.1.7 0 1.4 0 2.2-.1.1.1.2.5 0 .7l-.4.1c-.5.1-.9.2-1.1.6-.2.5-.3 2-.3 3.6v4.6zm10.8-8c0 1.8-1.5 3-3.1 3.3-.3 0-.4-.5-.2-.6.7-.3 1.7-.9 1.7-1.8 0-.8-.6-1.1-1.1-1.2-.3-.1-.6-.4-.6-.9 0-.7.6-1.2 1.4-1.2.7 0 1.9.7 1.9 2.4zm7.2 8.8c0 1.6.1 1.8 1.1 1.8l.8.1c.2.1.2.6 0 .7-.7 0-1.9-.1-3.1-.1-1.3 0-2.5 0-3.2.1-.2-.1-.2-.6 0-.7l.8-.1c1-.1 1.1-.3 1.1-1.8v-6.4c0-1.3-.1-1.6-.9-1.7l-.9-.1c-.2-.1-.2-.6 0-.7.8-.1 1.7-.3 2.5-.6.9-.3 1.6-.6 1.8-.6.1 0 .2.1.3.2 0 .5-.1 1.4-.1 2.3v7.6zm13.4-5c0 2.4-1 4.4-2.7 6-1.6 1.5-4.2 2.7-5.9 2.7-.2-.1-.3-.5-.1-.6 3.8-.9 5.8-4.2 5.8-7.9 0-1.5-.4-4.3-2.1-4.3-.9 0-1.5 1.1-1.5 2.3 0 1.6.6 3.3 2 3.5h.6c.1.1.1.3.1.4-.3.4-1.1.6-1.9.6-1.8 0-3.3-1.5-3.3-3.5 0-2.5 1.9-4.3 4.4-4.3 2.9.1 4.6 2.4 4.6 5.1z" fill="#009ade"/></svg>