<?xml version="1.0" encoding="utf-8"?>
<!-- Generator: Adobe Illustrator 22.1.0, SVG Export Plug-In . SVG Version: 6.00 Build 0)  -->
<svg version="1.1" id="Layer_1" xmlns="http://www.w3.org/2000/svg" xmlns:xlink="http://www.w3.org/1999/xlink" x="0px" y="0px"
	 viewBox="0 0 2354 3808.9" style="enable-background:new 0 0 2354 3808.9;" xml:space="preserve">
<style type="text/css">
	.st0{fill:#019ADD;}
	.st1{fill:#049BDE;}
	.st2{fill:#0B9EDF;}
	.st3{fill:#029ADD;}
	.st4{fill:#EDF7FC;}
	.st5{fill:#A9DCF3;}
	.st6{fill:#CAEAF7;}
	.st7{fill:#D7EFF9;}
	.st8{fill:#059BDE;}
	.st9{fill:#069CDE;}
	.st10{fill:#059CDE;}
	.st11{fill:#DCF0FA;}
	.st12{fill:#E2F3FA;}
	.st13{enable-background:new    ;}
	.st14{fill:#009ADE;}
	.st15{fill:none;stroke:#009ADE;stroke-width:10;stroke-miterlimit:10;}
</style>
<path class="st0" d="M16,929c2.5,1.3,5,2.6,7.4,4.1c2.2,1.3,3.8,3.1,4.6,5.7c9.2,27.6,25,51.4,43.6,73.4
	c12.8,15.1,26.7,29.3,40.6,43.5c26.9,27.6,53.4,55.5,79,84.2c9.1,10.1,15.8,21.8,22.8,33.3c1.8,3,3.7,5.9,5.5,8.9
	c0.8,1.3,1.7,2.1,3.2,1.5c1.5-0.5,1.2-1.8,1.2-2.9c0.2-8.1-1.2-15.9-3.4-23.6c-4.9-17.5-9.3-35.1-10-53.3
	c-0.3-9.4,0.7-18.6,1.8-27.9c2.5-20.5,5-41,7.6-61.4c2.5-20.3,5.2-40.6,7.5-60.9c1.3-11.4,3.5-22.7,3.6-34.3
	c0.1-6.7,4.3-10.9,8.7-15.4c4.1,3.1,7,6.7,8.5,11.9c6.4,22.5,10.2,45.4,12.8,68.6c3.2,27.9,7,55.8,10.5,83.7
	c2.9,23.3,5.5,46.6,8.4,69.9c4.3,33.8,6.9,67.9,15.9,101c4.4,16.1,10.2,31.7,18.5,46.2c3.2,5.7,4.6,12,6.8,18.4
	c-10-0.9-18.9-2.7-27.4-7.8c-55.4-33.5-108.9-69.6-158-111.9c-23.4-20.1-46.2-40.8-64.5-66c-25-34.4-40.8-72.6-48.4-114.4
	c-1.7-9.3-3.2-18.6-6.9-27.4C16,960.3,16,944.7,16,929z"/>
<path class="st0" d="M16,694c3.7-9.1,5.2-18.8,8-28.1c2.1-7,4-14.1,6-21.1c0.6-2.3,1.3-4.3,4.9-3.4c2.4,7.3,4.5,15.1,6.2,23
	c3.3,15.6,5.7,31.4,10.7,46.6c6.3,19.1,14,37.7,21.3,56.4c18.7,47.7,34.8,96.3,51.9,144.6c1.5,4.2,3,8.5,4.8,12.6
	c1.3,3,2.8,5.9,6.2,7.7c1.7-4.5,1.5-9.1,1.7-13.5c3.1-61,25.6-115,58.7-165.4c12.7-19.3,24.6-39.2,33.3-60.8
	c2.7-6.8,4.2-14.1,8.9-20c0.5-0.6,0.7-1.6,2.1-1.7c4,6.1,6,13,6.4,20.3c0.5,9.8-1.8,19.2-3.3,28.7c-8.4,51.4-19,102.3-31.7,152.8
	c-8.1,32.4-17.2,64.6-26.4,96.7c-6.5,22.4-9.1,45.3-7.5,68.6c0.4,5.5,0.9,11,2.1,16.3c1.9,8.2,0,16.1-0.7,24.8
	c-4.6-2.7-8.4-5.5-11.3-9.3c-31.7-40.6-63.4-81.1-94.9-121.8c-19.3-24.9-30.7-53.5-39.2-83.5C26.3,837.3,21,809.4,17,781.2
	c-0.2-1.1,0-2.4-1-3.2C16,750,16,722,16,694z"/>
<path class="st0" d="M1008.2,1463.8c-28-0.3-60.4-2.2-92.6-6.5c-83.1-11.1-161.9-35.9-236-75.2c-82.4-43.7-153.4-101.5-212.8-173.4
	c-65.5-79.3-111.6-168.7-138.3-268.1c-8.6-32-14.7-64.5-18.7-97.4c-4.6-37.6-6.1-75.4-4.5-113.2c3.8-90.4,23.9-177.1,61.1-259.8
	c32.1-71.4,74.8-135.8,128.4-192.8c86-91.4,188.8-155.8,308.6-192.9c38.9-12,78.6-20.3,118.9-25.3c37.1-4.6,74.4-6.3,111.7-4.9
	c89.8,3.4,176,22.6,258.2,59.3c134.5,60.1,240.6,152.9,318.2,278.1c41.1,66.4,69.7,137.9,86.3,214.2c6.7,30.8,11.2,61.9,13.5,93.3
	c2.6,35,2.6,69.9,0.5,104.9c-6.2,101.2-31.5,197.1-79.7,286.7c-27.5,51.2-61.3,97.9-100.4,140.8c-50.6,55.6-107.7,103.2-172.7,141.1
	c-64.1,37.3-132.6,63.1-205.4,77.5C1106.4,1459.3,1059.7,1463.4,1008.2,1463.8z M1316.9,1085.1c-0.1-0.4,0.1-1.1-0.7-0.5
	C1316.5,1084.7,1316.8,1084.8,1316.9,1085.1c0.1,0.6,0.4,0.9,1.1,0.9c0.7,1.1,1.3,2.2,2.2,3.2c6.5,7.2,13,14.5,19.5,21.6
	c0.6,0.6,1,1.8,2.3,1.2c-0.5,0.6-0.1,1.1,0.3,1.5c0,0,0.4-0.1,0.4-0.2c0.2-0.7-0.1-1.1-0.7-1.3c-3.4-6.8-8.7-12-14-17.3
	c-3.1-3.1-5.9-6.7-10.1-8.7C1318,1085.3,1317.7,1085,1316.9,1085.1z M997.2,1360.5c0.6-7,0.3-14-0.1-21c-0.6-10-3.6-13.6-13.5-15.6
	c-13.6-2.7-27.4-3.2-41.1-4.9c-17.8-2.2-35.7-3.9-53.4-7.4c-44.3-8.8-86.5-23.5-127.1-43.3c-48.1-23.4-91.7-53.4-131.7-88.8
	c-2.1-1.9-4.3-3.7-6.8-5.1c-4.4-2.4-8.6-2.3-12.7,0.5c-2,1.4-4,3-5.7,4.8c-18,18-36.1,36-54.1,54.1c-3.1,3.1-6.1,6.2-8.4,9.9
	c-2.5,4-2.4,7.9,0.5,11.6c1.5,2,3.2,3.9,5.1,5.5c6.4,5.8,12.9,11.6,19.5,17.2c70,59.4,148.7,103.3,236.4,130.9
	c52.8,16.7,106.7,26.8,162,29.7c7.3,0.4,14.7,0.5,22,0.3c5.9-0.2,8.7-3.2,9.2-9.1c0.1-1.3,0.1-2.7,0.1-4
	C997.2,1404.2,997.2,1382.3,997.2,1360.5z M385.4,748L385.4,748c14.2-0.1,28.3-0.1,42.5-0.1c10.4,0,13.3-2.4,14.9-12.7
	c3.2-21.6,6.1-43.2,9.3-64.7c3.1-20.9,6.4-41.8,11.6-62.3c18-71.1,51.4-134.6,96-192.4c10.3-13.3,21.1-26.2,31.4-39.5
	c6-7.8,5.8-12.5-0.9-19.5c-19.3-20.3-39-40.1-59.3-59.5c-8.4-8-15.2-7.5-23.5,0.6c-5.5,5.4-10.2,11.5-15.1,17.3
	c-26.5,30.9-50.7,63.5-71.3,98.6c-24.5,41.7-42.6,86.1-57.9,131.7c-10.3,30.6-18.6,61.7-23.3,93.8c-2.3,16-4.2,32-5.9,48.1
	c-1.6,15.9-3.5,31.8-5.2,47.6c-0.9,8.3,2.9,12.6,11.2,12.9c0.7,0,1.3,0,2,0C356.4,748,370.9,748,385.4,748z M1633,771.8
	c0-0.1,0-0.2,0-0.3c-14.7,0-29.3,0.1-44,0c-10.3-0.1-13.7,2.7-15.2,13c-0.2,1.6-0.5,3.3-0.7,4.9c-2.6,28.2-5.9,56.2-10.9,84.1
	c-10.2,56.9-30.1,110.2-58.9,160.2c-16.7,29-36.9,55.4-57.2,81.8c-7.1,9.2-14.2,18.5-21,28c-4.4,6.2-4,9.4,0.9,15.2
	c0.7,0.9,1.5,1.8,2.3,2.6c19.8,20,39.5,40.1,59.5,60c7.1,7.1,14.4,6.8,21.3-0.6c5.2-5.6,10.1-11.5,15.1-17.3
	c37.5-43.4,69.4-90.6,94.8-142.1c28.8-58.4,49-119.5,60.3-183.7c3.9-22.3,6.6-44.8,8.5-67.3c0.7-9,1.2-18,1.5-26.9
	c0.2-7.5-3.2-11-10.8-11.4c-1.8-0.1-3.7-0.1-5.5-0.1C1659.6,771.8,1646.3,771.8,1633,771.8z M997.1,137.4
	c0.7-14.1-0.3-28.3,0.5-42.5c0.8-14.1-5.1-17.3-16.4-16.1c-21,2.2-42.1,4.1-63.1,6.5c-20.5,2.3-41,4.8-61.2,9.2
	c-55.1,12.1-107.4,31.9-157.6,57.2c-55.2,27.9-105,63.6-151,104.8c-9.6,8.6-9.8,13.8-0.6,23.4c18.2,19,36.5,38,55.3,56.4
	c1.9,1.9,3.9,3.7,6,5.2c5.7,4.3,9.5,4.4,15.5,0.4c3.2-2.1,6.1-4.6,9-7.1c33.2-29.1,69-54.4,108-75.2
	c75.8-40.4,156.6-62.6,242.4-66.6c10.4-0.5,13.1-3.4,13.1-13.8C997.1,165.4,997.1,151.4,997.1,137.4z M1632,748.1L1632,748.1
	c14.7-0.1,29.3-0.1,44-0.1c10.6,0,14.8-4.9,13.7-15.4c-1.4-13.4-2.5-26.9-3.7-40.3c-1.6-17.9-3-35.9-6.3-53.5
	c-12.6-67.3-34-131.6-65.8-192.4c-27.9-53.4-62-102.5-102.3-147.3c-9.6-10.7-15.5-10.8-25.8-0.5c-18,18.1-36,36.1-53.9,54.2
	c-1.9,1.9-3.7,3.9-5.3,5.9c-4.6,5.9-4.9,10.3-0.8,16.4c2,3,4.4,5.9,6.7,8.7c23.5,28.1,47.5,55.9,69.3,85.3
	c12.8,17.3,22.1,36.5,27.8,57.2c3.7,13.4,6.1,27.3,11.1,40.3c16,41.5,23.7,84.8,28.5,128.7c1.5,13.4,2.9,26.8,4.9,40.1
	c1.3,9.2,5.6,12.5,15,12.5C1603.3,748.2,1617.7,748.1,1632,748.1z M1400.6,1168.1c-11.2,9.8-21.6,19.7-33.4,27.9
	c-31.9,22.1-63.8,44.1-94.4,68c-18.9,14.8-38.7,28.3-60.4,38.8c-10.8,5.3-21.8,6.7-33.4,2.7c-5.8-2-11.8-2.3-17.8-1.2
	c-9,1.5-17.9,3.5-26.9,5.3c-21.4,4.1-42.6,9.1-64.3,11.7c-12.5,1.6-25.1,3.1-37.6,4.8c-6.9,0.9-10.5,5.1-10.7,12.1
	c-0.8,29.5-1.1,59-0.1,88.4c0.3,7.8,5.1,12.4,12.9,12.6c24.1,0.7,47.8-2.3,71.6-5.9c38.9-5.9,77.3-14,114.5-26.6
	c86.9-29.3,165.8-72.8,234.8-133.7c6.1-5.4,12.4-10.6,17.9-16.7c4.8-5.3,4.9-9.1,0.7-14.7c-2-2.6-4.2-5.2-6.6-7.5
	c-13.9-13.9-27.9-27.7-41.9-41.5C1417.4,1184.4,1409.1,1176.4,1400.6,1168.1z M1028.8,167.1c-8.1,3-8.1,9.2-7.7,15.5
	c0.4,6.3,3.2,9.5,9.5,10.2c13.2,1.5,26.5,2.8,39.7,4.1c16.7,1.6,33.4,3.5,50,6.6c38.3,7.2,74.9,19.5,110.7,34.6
	c10.6,4.5,20.8,9.8,31.8,13.1c10.7,3.3,21.4,3.6,31.6-1.4c6.7-3.2,13.1-2.9,19.8-0.4c8.2,3.2,16.3,6.8,24.1,10.8
	c25,13,44.5,31.4,55.2,58.1c1.1,2.8,2.7,5.3,4.7,7.7c5.4,6.6,12.5,8,20.1,4.1c3.7-2,6.8-4.7,9.8-7.7c14.4-14.5,28.5-29.4,43.4-43.6
	c9-8.6,8.9-11.6-0.3-20.2c-65.2-60.9-140-106.3-223.2-138.2c-37.2-14.3-75.4-24.9-114.9-30.9c-17.8-2.7-35.6-4.7-53.5-6.5
	c-15.1-1.6-30.1-3.1-45.2-4.3c-9.4-0.7-13.1,3-13.2,12.5c-0.1,20.3-0.1,40.7-0.2,61C1020.7,158.6,1021.7,164,1028.8,167.1z
	 M463.1,922.9c-0.2-3.9-0.3-7.6-0.6-11.2c-1.4-14.6-4.2-29-6.4-43.4c-4.4-28.9-8.8-57.9-13.3-86.8c-1.2-7.6-3.7-9.6-11.3-9.6
	c-30.2,0-60.3,0-90.5,0.1c-9.8,0-12.7,2.9-12.2,12.6c0.6,10.5,1.7,20.9,2,31.4c0.6,20.7,2.6,41.2,6.4,61.5
	c10.2,54,26.3,106.1,48.3,156.5c23.4,53.6,54.5,102.5,90.4,148.5c10.1,13,20.6,25.8,32,37.8c7.9,8.3,14.2,8.1,22.2,0.2
	c19.7-19.4,39.3-38.9,58.6-58.8c0.9-1,2-1.8,2.7-2.9c2.8-4,5.3-9.9,0.3-15.4c-4-4.5-7.2-9.6-10.8-14.4c-6.7-8.8-13.6-17.3-22.6-23.9
	c-5.4-4-10.3-8.5-14.9-13.3c-4.5-4.7-9.1-9.3-13.8-13.8c-6.8-6.4-14.4-11.3-23.6-13.4c-1.9-0.4-3.3-1.4-4.6-2.7
	c-7-6.7-14-13.3-21.1-19.9c-10.1-9.5-20.1-19-30.2-28.4c-2.7-2.5-5.4-4.8-9.7-4.2c-10.1,1.5-18.8-1.8-26-8.7
	c-2.6-2.5-5.1-3.4-8.7-2.3c0.1,4.5,0.4,9,0.9,13.4c0.2,1.8,1.3,4.1-1.3,5.3c-2.3,1.1-4.7,1.6-7.2,0.3c-1.9-1-3-2.6-3.9-4.4
	c-1.3-2.5-2.2-5.3-3.7-7.6c-10.9-17.6-11.7-37.3-11.2-57c0.5-17.3,11.5-29.2,27.9-32c11.5-2,22.9-0.9,34.3,0.5
	C448.9,917.6,455.5,921.2,463.1,922.9z M521.8,747.9C521.8,747.9,521.8,747.8,521.8,747.9c14.3-0.1,28.7-0.1,43-0.1
	c8.1,0,15-4.3,16.3-14.1c2.7-19.4,6.4-38.7,9.8-58c8.7-50.3,27.2-96.8,53.4-140.4c12.9-21.5,28.2-41.2,45-59.7
	c6.6-7.3,6.3-12.6-0.6-19.5c-21.1-21.1-42.2-42.2-63.3-63.2c-6.8-6.7-11.4-6.4-17.4,1c-4.5,5.5-9,11.1-13.7,16.5
	c-19.5,22.2-37.1,45.8-52.2,71.2c-30.9,51.9-51.8,107.8-64.8,166.6c-6.4,28.7-9.6,57.8-9.1,87.2c0.2,9.6,3.2,12.5,12.7,12.6
	C494.5,747.9,508.1,747.9,521.8,747.9z M997.3,274.2L997.3,274.2c0.1-14.8,0.1-29.6,0.1-44.5c0-1.8-0.1-3.7-0.5-5.5
	c-1-4.6-4-7.2-8.8-7.4c-2-0.1-4,0-6,0.3c-26.2,3.9-52.5,6.8-78.6,10.7c-40.6,6-79.5,17.4-116.6,35.1c-46.3,22-90.2,48-128.9,82
	c-5.4,4.7-11,9.2-15.5,14.8c-4,5.1-4,10-0.2,15.1c1.9,2.5,4.1,4.8,6.3,7c19.1,18.8,38.3,37.6,57,56.8c1.3,1.3,2.6,2.6,4.1,3.7
	c3.4,2.6,7.1,2.6,10.7,0.4c1.7-1,3.3-2.3,4.8-3.6c8.9-7.8,18-15.3,27.5-22.3c41.7-30.9,87.3-54.1,137.2-68.4
	c30.1-8.7,61.1-13.2,92.2-16.3c12.1-1.2,15-4.2,15-16.3C997.3,301.8,997.3,288,997.3,274.2z M1352.6,1084.4c3.1-4,5.2-8,8.5-11.1
	c5.7-5.4,9.7-5.1,14.6,1c3.6,4.5,5.4,9.9,7.2,15.2c3.5,9.9,6.3,20,10.7,29.5c5.5,11.8,10,12.5,18.2,2.7c5.9-7,11.6-14.2,17.3-21.3
	c24.4-30.1,46.4-61.7,63.7-96.5c33.4-67.3,53.2-138.2,56.8-213.5c0.2-3.5,0.2-7-0.6-10.4c-1.1-4.6-4-7.2-8.6-7.9
	c-2.3-0.3-4.7-0.3-7-0.3c-23,0-46,0-69,0c-4.8,0-9.7-0.1-14.5,0c-9,0.3-12.5,3.2-14.4,12.1c-0.8,3.7-1.1,7.6-1.6,11.4
	c-2.3,20.2-5.1,40.3-9.5,60.1c-13.9,62.5-41.2,118.5-80.9,168.6c-5.4,6.8-11.1,13.3-16.4,20.2c-4.9,6.4-4.7,10,0.3,16.1
	C1334.9,1069,1343.6,1076.5,1352.6,1084.4z M758.9,1107.6c-1.3,4.9-2.3,9.2-3.6,13.5c-3.1,9.8-7.9,13.5-18.1,14.2
	c-7.2,0.4-14.3,1.2-21.2,3.2c-9.4,2.6-18.8,5.6-28.3,8c-11.5,2.9-22.8,2.6-33.2-4.2c-1.4-0.9-3-1.6-4.5-2c-6-1.6-11.6,3.2-10.8,9.4
	c0.5,4.4,2.2,8.3,5.7,11.4c25.8,23,53.1,44,82.7,61.9c51.7,31.3,107,53.4,166.1,66.1c29.8,6.4,59.8,11.6,90.5,11.3
	c10.4-0.1,13.2-2.8,13.3-12.9c0.1-26.5,0.1-53,0.1-79.5c0-3.5-0.1-7-0.5-10.5c-0.7-7-3.3-10.1-10.2-11.7c-4.4-1-8.8-1.5-13.3-1.7
	c-13.5-0.6-26.9-2-40.2-4.3c-47.2-8.2-91.3-25-132.9-48.4C786.7,1123.6,773.2,1115.7,758.9,1107.6z M1412.4,554.4
	c4.7,0.9,6.5,4,7.5,8.3c2,8.6,4.3,17.1,6.7,25.6c5.4,19.7,8.6,39.7,8,60.1c-0.5,17.5-1.4,35-1.8,52.4c-0.3,12.2,0.2,24.3,2.9,36.3
	c1.9,8.4,5.1,10.9,13.6,10.9c29.3,0,58.7,0.1,88,0c9.9,0,14.7-5,13.5-14.8c-2.9-24.3-4.5-48.7-8.6-72.9
	c-6.3-36.6-16.6-71.9-31.2-106c-4.1-9.6-9.4-11.3-18.5-6.4c-9.1,4.9-14.8,4-21.6-3.9c-3.9-4.5-7.4-9.4-11-14.2
	c-12-16.3-26.3-30.1-44.4-39.6c-4.3-2.2-8.4-4.8-12.5-7.4c-9.1-5.7-17.2-12.5-22.9-21.9c-1.3-2.1-3-3.5-5.3-4.4
	c-10-4-20.1-7.9-30.1-12c-1.8-0.7-2.9-0.5-4.5,0.5c-8.5,5.3-11.5,13.4-12.1,22.8c-0.2,2.4,0.2,4.6,2.4,6.3
	c7.6,5.8,12.8,13.5,17.4,21.7c5.3,9.5,12.1,17.9,19.3,26c9,9.9,16.4,20.9,22,33.2c4.9,10.8,9.7,21.5,14.6,32.3
	c3.4,7.6,6.5,15.3,8.5,23.4c0.9,3.7,3,6.6,5,9.7c0.8,1.2,1.7,2.1,3.3,1.4c1.3-0.5,2.3-1.2,2.3-2.8c-0.1-3.3,0.3-6.6-0.6-9.9
	c-3.9-14.5-7.5-29-11.5-43.4C1409.7,561.4,1410.3,557.9,1412.4,554.4z M997,388.9c0-7.8,0.3-15.7-0.1-23.5c-0.3-7-3.1-9.4-10.1-9.8
	c-2-0.1-4,0-6,0.1c-33.6,1.9-66.3,8.6-98.1,19.3c-51.5,17.2-97.9,43.3-138.7,79.1c-8.9,7.8-9,13.4-0.7,21.8c1.4,1.4,2.8,2.8,4.2,4.3
	c14,14.1,28,28.1,41.9,42.2c4.6,4.6,9,9.4,13.8,13.7c7.2,6.4,13.4,6.6,21.1,0.8c3.4-2.5,6.5-5.2,9.8-7.8
	c27.2-21.6,57.1-37.6,91.2-45.5c20.1-4.7,40.1-9.5,60.3-13.8c8.9-1.9,11.5-5,11.4-14.1C997,433.6,997.4,411.3,997,388.9z
	 M1278.1,466.4c0.4-4.9-1.4-8.6-5.2-11.8c-11.4-9.8-22.9-19.4-35-28.2c-31.1-22.5-64.5-40.5-101.6-50.9
	c-22.9-6.4-46.4-10.5-69.8-14.5c-11-1.9-22-3.8-32.9-5.6c-7.5-1.2-12.2,2.6-12.7,10.2c-0.1,2.2,0,4.3,0,6.5
	c0,13.8,0.2,27.6-0.4,41.4c-0.6,14.5-0.3,29,0.6,43.5c0.5,8,3.3,11.2,11.2,13.1c3.4,0.8,6.8,1.4,10.3,1.8
	c30.4,3.9,59.6,11.9,87.5,24.7c22.6,10.5,43.4,23.8,62.7,39.6c8.1,6.7,14.7,6.6,21.7-0.3c20.3-20,40.7-39.9,60.2-60.7
	C1277.1,472.7,1278.5,470,1278.1,466.4z M1190.4,364.4c5.3-1,9.9-3.4,14.7-2.2c6.7,1.6,12.4-0.2,18-3.7c5.4-3.3,11.2-5,17.6-3.5
	c6.2,1.4,10.8,5.1,14.5,10c3.2,4.3,6.2,8.7,9.4,12.9c2.9,3.8,7,5.6,11.8,5.2c6.6-0.5,10-4.5,9.7-10.9c-0.8-20-6.9-38.3-15.5-56.3
	c-9.3-19.3-22.2-35.5-38.1-49.5c-2.4-2.1-4.9-3.9-7.8-5.3c-31.6-14.9-64.6-25.5-98.9-32c-25.3-4.8-50.9-8.1-76.6-10.8
	c-5.4-0.6-10.9-1.4-16.4-1.3c-9.5,0.2-12.5,3.3-11.8,12.9c0.1,1.5,0.3,3,0.6,4.4c1.8,9.1,2.1,18.2,0.9,27.3
	c-2.5,19.2-2,38.6-1.5,57.9c0.2,5.9,2.8,9.1,8.5,10.9c1.7,0.6,3.5,1,5.3,1.3c12.8,2.1,25.6,4,38.4,6.2c22.8,4,45.5,8.3,67.6,15
	c15.9,4.9,31.3,11.2,47,16.7c2.5,0.9,5.1,2,8,0.6C1194.3,368.1,1191.9,367.2,1190.4,364.4z M795.1,561.6c-4.8-4.6-9.5-8.9-13.9-13.3
	c-18.7-18.7-37.3-37.6-56.1-56.3c-7.6-7.6-13.2-7.3-20.2,0.9c-5.4,6.3-10.8,12.7-15.9,19.3c-46.4,60.8-74.2,129.1-81.5,205.4
	c-1,10.1-0.8,20.2,0.7,30.4c11.5,0,22.6,0.5,33.7-0.1c10.8-0.6,18.7-6.4,23.1-16.5c1.3-3.1,2.3-6.2,3.1-9.5
	c2.1-8.9,4.2-17.8,7.9-26.2c6.5-15.3,17.3-25.8,33.4-30.5c2.2-0.7,4.4-1.6,6.4-2.7c2.2-1.2,4.2-2.7,5.3-5.1
	c3.7-8.1,9.8-14.2,16.5-19.8c6.1-5.2,11.8-10.7,16.9-17C769.2,602.2,781,581.9,795.1,561.6z M1068.8,727.9c0-1,0-2,0-3
	c-0.1-17.6-5.5-32.7-20.5-43.2c-3.7-2.6-7-5.6-10.5-8.5c-2.2-1.8-4.2-3.8-6.8-5c-8.8-4-17.6-8-26.8-10.8c-5-1.6-10.1-1.8-15.3-0.6
	c-2.1,0.5-3.5,1.3-4.2,3.6c-2.3,7.6-7.4,12.9-14.2,16.7c-4.2,2.3-8.6,4.5-12.8,6.7c-6.9,3.7-13.6,7.8-19,13.6
	c-3.8,4.1-4.9,8.7-2.5,13.8c1.7,3.8,3.6,7.5,5.6,11.1c1.6,2.8,1.7,5.1-0.2,7.8c-2.1,3-3.8,6.3-4.8,9.8c-1.3,4.3,1.1,9.1,5,9.9
	c20.2,4,34.4,16.8,46.6,32.2c5.9,7.4,7.8,16.2,5.3,25.5c-2.2,8.4-5.3,16.5-10,23.9c-6.7,10.5-16.3,16.3-28.7,17.6
	c-6.8,0.7-13.5,2.2-20.1,3.9c-3.2,0.8-4.2,3.1-2.2,5.3c6.9,7.6,14.7,13.2,25.8,10.6c2.3-0.5,4.6-0.8,6.9-1.2
	c10.5-2.1,10.6-2.2,14.4,7.7c2,5.2,5.5,8,11,8.9c6.1,1,12.2,1.4,18.4,0.9s11.1-3.3,14.8-8.2c3.1-4.2,5.1-8.9,6.9-13.8
	c1.8-5,3.6-10,5.5-15c2.7-6.9,8.1-10.3,15.3-11.1c3.8-0.4,7.6-0.8,11.4-1c9.4-0.6,16-5.2,19.4-14c1.9-5,3.2-10.1,3.5-15.5
	c0.2-2.6-0.2-4.5-2.6-6.4c-4.5-3.5-5-11.6-1.4-16c1.4-1.7,0.7-3.1,0.2-4.6c-1.9-5.1-3.8-10.3-5.9-15.4
	C1071.9,752.5,1068.6,740.6,1068.8,727.9z M989.9,1156.1c-9-1.6-17.6-3.4-26.4-4.3c-15.8-1.6-28.9-8.3-39.1-20.6
	c-6.6-7.9-11.3-16.8-15.5-26.1c-2.5-5.6-3.4-11.4-3.1-17.5c0.6-11.3,5.8-20.7,12-29.7c2.7-4,5.9-7.7,8.4-11.8
	c3.5-5.5,2.2-9.4-3.9-11.9c-3.7-1.5-7.5-2.6-11.3-4c-32.2-11.3-60.9-29-87.7-49.8c-7.2-5.5-13.5-5.2-20,1
	c-15.3,14.8-30.3,30-45.2,45.3c-5.7,5.9-11.5,11.6-17,17.6c-5.1,5.6-4.6,12,0.9,17.2c1,0.9,2,1.7,3.1,2.5
	c15.8,11.1,31.5,22.3,47.3,33.4c30.1,21,62.1,37.9,97.5,48.2c29.5,8.6,59.7,13.3,90.2,16.3c3,0.3,6.1,1.6,9.2,0.7
	C990.1,1160.5,990.2,1158.6,989.9,1156.1z M727.6,829.4c-0.5,0.4-1,0.6-1.3,0.9c-3.3,3.4-7,4.6-10.1,3.2c-2.9-1.2-4.8-5.7-4.3-9.9
	c0.1-1,0.4-1.9,0.8-2.9c1.5-4.2,3-8.4,4.6-12.6c0.5-1.4,1.5-2.8,1-4.3c-2-6.5-0.3-12.8,0.5-19.3c1.1-8.6-1.9-12.1-10.6-12.5
	c-8-0.3-16-0.2-24-0.1c-8.1,0.1-13.7,3.9-16,11.7c-1,3.3-2.9,5.6-5.6,7.3c-2.5,1.6-5.1,3.1-7.7,4.7c-11.5,6.8-12.2,8.6-9.8,21.8
	c2,10.8,5.5,21,13.2,29.1c3.5,3.7,5.9,8,7.6,12.7c6.8,18.9,13.6,37.8,19.7,57c1.8,5.7,3.3,11.6,2.2,17.7
	c-2.3,12.1-0.8,23.8,3.2,35.3c3.2,9.1,5.8,18.4,7.9,27.8c1.5,6.5,3.1,12.9,5.3,19.2c1.3,3.8,3,7.4,5.6,10.5c1.9,2.3,4,3.2,7,2.2
	c3.9-1.3,7.5-2.9,10.4-5.8c19.9-19.6,39.9-39.3,59.7-59.1c5.4-5.4,5.9-10.5,2.3-17.3c-1.3-2.5-2.9-4.8-4.5-7.2
	c-14.1-21.2-28.2-42.4-39.1-65.5C738.6,859.8,733,844.7,727.6,829.4z M1307.4,1031.2c13.6-16.4,26.9-32.2,38.2-49.5
	c22.6-34.6,40.8-71.3,50.9-111.6c5.2-20.9,8.3-42.1,11.4-63.3c1.1-7.4,2.4-14.8,3.2-22.2c1-8.6-2.5-12.4-11.2-12.8
	c-2.7-0.1-5.3,0-8,0c-18,0-36-0.1-54,0.1c-9.1,0.1-11.3,3.9-7,11.6c5.5,9.7,10.3,19.7,14.2,30.2c2.6,7,8,10.3,15.5,10.4
	c7.2,0.1,14.2-1.4,21.2-2.8c3.6-0.7,6.2-0.2,6.9,3.9c-3.5,5.3-7.2,10.5-10.5,15.9c-6.6,10.7-16.2,17-28.3,19.7
	c-3.7,0.8-7.5,1.5-11.2,2.3c-16,3.1-31.7,6.7-46.2,15c-12.4,7.1-18.5,17.6-21.8,30.7c-1.2,5-0.3,9.3,2.8,13.6
	c6.7,9.5,9.2,20.1,7.7,31.7c-1,8.2-3.4,15.9-5.8,23.7c-1.7,5.8-3.1,11.7-3.6,18c2.8,0,5.1-0.1,7.4,0c10.1,0.4,16.1,4.7,17.7,14.8
	C1298.4,1018.5,1303,1024.4,1307.4,1031.2z M997.6,527.7c0-4.5,0.1-9,0-13.5c0-2.7-0.3-5.3-0.5-8c-0.6-8.6-3.4-11.3-12-10.9
	c-6.3,0.3-12.6,1-18.9,1.9c-47.7,7-89.4,27-126.4,57.5c-7.1,5.9-7.4,10.5-0.8,17.1c18.4,18.6,36.9,37.1,55.4,55.6
	c3.5,3.5,7.1,7,10.9,10.3c4.7,4.1,7.4,4.3,12.6,1.1c4.5-2.8,8.9-5.9,13.2-8.9c2.5-1.7,5.1-3.2,6.6-6c3.5-6.3,9.6-9.6,15.4-13.1
	c2-1.2,3.9-1.5,6-0.1c4.8,3.2,10,3,15.4,1.8c3.9-0.8,7.8-1.9,11.7-2.4c8-1,10.9-3.8,10.8-12C996.8,574.6,997.3,551.2,997.6,527.7z
	 M1344.2,536.8c0.1-1.5-0.4-2.1-0.9-2.8c-9.3-12.6-18.5-25.3-27.8-37.8c-1.5-2-3.2-3.9-5-5.5c-4.7-4.3-8.6-4.7-14-1.1
	c-2.5,1.6-4.8,3.6-6.9,5.7c-13.2,12.9-26.4,25.9-39.5,38.9c-6.7,6.7-13.6,13.2-19.7,20.5c-5.3,6.4-5.7,10-1,16.6
	c7.5,10.6,15.1,21.1,23.8,30.8c3.3,3.7,7.3,6,12.3,7c8.8,1.7,16.6,5.9,23.3,11.8c9.4,8.3,15.8,18.8,22,29.5c2.3,4,4.5,8,6.9,12.2
	c1.6-1.1,2.9-1.9,4-2.8c4.4-3.6,8.7-7.3,13-10.9c8.9-7.3,15.5-6.5,22.5,2.5c3.1,3.9,5.3,8.4,7.8,12.8c1.8,3.2,2,6,0.4,9.4
	c-2.7,6-1.4,12.2,0.5,18c1.8,5.5,7.6,6.3,11.4,1.9c1-1.1,1.8-2.4,2.6-3.7c5.4-8.2,9-17.4,15.3-25.1c3.4-4.2,3.8-9.6,2.3-14.8
	c-3.5-11.8-6.6-23.7-12.1-34.8c-5.5-11.3-13.2-20.2-24.9-25.6c-9-4.1-11.4-10.8-7.8-20.1c1-2.5,2.1-4.9,2.8-7.5
	c1.7-6.5-1.2-14.6-6.3-18.1c0.4,11.1-0.8,22.1,0.8,33c0.4,2.6-1.1,4.1-2.8,5.4c-4.6,3.6-9.9,5.4-15.5,6.6c-6.5,1.4-13,2.1-19.8-0.3
	c0.5-1.1,0.7-1.8,1.1-2.6c7.2-14.2,14.5-28.4,22.2-42.5C1337.1,539.9,1339.5,537,1344.2,536.8z M959,1021.1
	c8.8-1.7,15.8-4.6,14.4-16.1c-0.5-4.1-1.2-8.2-1.6-12.4c-1.2-12,3.9-19.8,15.2-21.8c8.6-1.5,10.8-6.4,8.1-14.6
	c-1.6-4.9-4.8-8.7-7.3-13c-4.7-8.2-8.5-16.6-2.2-26.1c2.6-3.9,1.5-6.7-2.6-9.2c-2.1-1.3-4.5-2.2-6.7-3.2
	c-17.5-7.7-35.4-14.3-52.6-22.7c-11-5.4-16.4-4.4-25,4.2c-8.8,8.8-17.5,17.9-26.4,26.6c-11.3,11.1-22.8,21.9-34,33.1
	c-6.6,6.5-6.2,11.4,1.3,16.9c6,4.5,12.2,8.7,18.3,13c11.7,8.3,23.6,16.2,36.7,22c20.2,9,41.5,15.3,62.2,22.7
	C957.6,1020.9,958.5,1021,959,1021.1z M1075.8,590.7c1.8,4.8,2.8,9.4,2.4,14.3c-0.3,4.1-1.4,8.2-1.2,12.4c0.2,3.7,1.2,6.9,4.1,9.3
	c5.3,4.4,11.2,7.9,17.8,9.8c5.4,1.5,9.5-0.6,11.8-5.7c0.7-1.7,1.1-3.5,1.5-5.3c1.1-4.7,1.1-9.6,2.8-14.2c1.7-4.4,4.3-8.4,9.1-9.1
	c4-0.6,5.5-2.9,7-6c6.1-12.3,14.3-22.7,26.8-29.3c3.7-1.9,7.2-4.1,10.7-6.5c4.6-3.1,5.1-6.8,1.4-10.9c-2.7-3-5.3-6.1-8.8-8.1
	c-13.6-8-26.7-17-41.2-23.4c-27.8-12.4-57.8-16.5-87.3-22.2c-7.3-1.4-11.3,2.7-11.5,10.2c-0.2,4.5,0,9,0,13.5c0,25.5,0,51,0,76.5
	c0,7.9,2.5,11.2,9.8,13.7c8.4,2.9,15.7,1.4,21.9-5.1c1.2-1.2,2.4-2.3,3.5-3.6C1061.3,595.2,1067.8,592.2,1075.8,590.7z M523.3,771.7
	c0,0.1,0,0.1,0,0.2c-9,0-18,0-27,0c-6.7,0-13.3-0.1-20,0c-6,0.1-8.3,2.6-8.6,8.6c-0.1,1.3,0,2.7,0,4c0.4,26.2,3.3,52.1,8.4,77.8
	c3.4,17.5,8,34.6,13.7,51.5c2.6,7.6,7.4,12.1,15.7,12.2c2.8,0,5.7,0.4,8.5,0.3c12.5-0.4,19.8-6.4,22.6-18.5c0.6-2.4,1.1-4.9,1.2-7.4
	c0.8-22.8,8.8-42.8,22.7-60.6c5.9-7.6,11.5-15.5,17.5-23.1c4.7-5.9,6-12.4,4.6-19.7c-0.8-4.2-1.2-8.6-1.5-12.9
	c-0.6-9-3.8-12.3-12.7-12.4C553.3,771.6,538.3,771.7,523.3,771.7z M1144.3,1281c-1.4-2.2-3.4-3.4-5.1-4.9
	c-7.9-6.3-16.1-12.4-23.8-19c-8.4-7.1-11.7-16.2-9.8-27.2c1.8-10.2,0.3-20-6-28.5c-8.9-12.1-21.1-18.6-36.1-19.4
	c-11.1-0.6-21.7,2.5-32.4,5c-4.9,1.1-7.4,4.1-8.9,8.5c-0.9,2.7-1.1,5.5-1.1,8.4c0,24.3-0.1,48.6-0.1,73c0,4.3-0.2,8.7,0.1,13
	c0.4,7.1,4.2,10.6,11.2,10.5c2.3,0,4.7-0.2,7-0.5c29.2-4,58.3-8,87.5-12C1133,1287,1139.3,1286.2,1144.3,1281z M752.5,818.3
	c-0.8,5.2-0.8,7.2,0.1,10.2c10.2,32.1,23.7,62.5,44.3,89.5c3.2,4.2,6.4,8.5,10.4,12.1c4.2,3.7,7.2,4,11.7,0.8c2.8-2,5.4-4.4,7.9-6.9
	c18.8-18.2,36.5-37.5,55.6-55.4c1.5-1.3,2.7-2.9,3.9-4.6c3.7-5.3,4-10.8,1-16.5c-2.7-5.2-6.7-9.4-11-13.7
	c-6.6,11.9-13.1,23.5-19.5,35.2c-2.1,3.9-5,6.9-8.6,9.2c-4.5-4-7.1-8.6-6.8-14.6c0.1-1.8-0.2-3.7-0.5-5.5c-1-6.2-7.5-10.1-13.3-8
	c-4.7,1.7-8.9,0.9-12.4-2.5c-2.2-2.1-4.1-4.4-6-6.7C794.4,823.3,775.1,816.8,752.5,818.3z M1019.7,999.7c10,0.2,19,1.5,28,3.2
	c3.6,0.7,7.2,1.7,9.8,4.4c6.7,6.7,14.6,8,23.5,5.8c13.1-3.3,25.5-8.7,37.8-14c8.7-3.8,17.4-7.4,25.3-12.9c4.8-3.3,6.6-7.9,7.2-13.5
	c-5.1-1.6-9.9-2.2-15-1.1c-8.1,1.8-16.2,3.8-24.5,4.6c-9.5,1-18.6,3.4-27.6,6.1c-11,3.3-22.3,3.4-32.5-2.2
	c-8.5-4.7-16.2-3.3-24.3,0.3c-2.7,1.2-4.3,3.1-5,5.8C1021.5,990.5,1020.7,994.8,1019.7,999.7z M1396.1,697.8
	c-8.3,6.3-17.3,9.9-26,14.2c-7.6,3.8-15.1,7.9-21,14.2c-5.6,6.1-9.4,13.1-10.8,21.6c20.5,0,40.5,0.3,60.5-0.1
	c10.8-0.3,16-8.7,12.1-19C1406.9,718.3,1401.3,708.5,1396.1,697.8z M628.5,831.2c4.2-6.6,6.1-13.3,6.4-20.6
	c0.2-4.2,0.6-8.3,0.8-12.4c0.4-8.6,0.7-17.1,1.1-26c-7.4,0-14.4-0.2-21.4,0.1c-5.1,0.2-7.6,3.5-7.5,8.6c0.2,10.2,0.7,20.3,2.4,30.3
	c2.6,15.7-0.5,13.2,15.2,19C626.4,830.4,627.3,830.8,628.5,831.2z M1182.3,608.3c3.4-0.4,5.8-1.8,8.4-2.8
	c12.3-4.8,15.2-3.5,19.5,8.9c1.4,4.2,2.4,8.6,4.6,12.3c1.8,0.5,3.2-0.2,4.7-0.6c7.2-1.7,10.9-8,7.9-14.7c-3.4-7.6-8.5-14-16.7-16.9
	C1199.1,590.6,1186.6,592.5,1182.3,608.3z M1229.5,1019.1c0.5-2.1-0.8-2.6-1.6-3.3c-3.9-3.1-8.2-4.9-13.1-5.9
	c-8.9-1.7-18-1.7-26.9-3.4C1200.2,1016.3,1213.4,1022.6,1229.5,1019.1z M1112.5,944.7c3.2,0.2,5.8,2.2,8.7,1
	c4.7-1.9,8.3-5.4,12.2-8.5c0.9-0.8,0.8-1.7,0.5-2.7c-0.4-1.2-1.4-1.3-2.4-1.1c-2.6,0.5-5.2,1.1-7.8,1.4
	C1117.7,935.3,1114.3,938.5,1112.5,944.7z"/>
<path class="st0" d="M416.8,1600.9c0.7-4.5,3.1-5.5,7.1-4.9c7.6,1.2,15,2.7,22.3,5.3c35.4,13,72,17.2,109.6,13.9
	c39.5-3.5,77.1-14.7,113.4-29.9c39.3-16.5,78.5-32.9,119.2-45.8c24.6-7.8,49.1-15.7,74.6-20c24.6-4.1,49.3-4.7,74.2-1.9
	c16.3,1.8,32,6,48,9.2c21.8,4.3,43.5,2.8,64.8-2.9c31.3-8.5,62.9-10.5,95-7c36.5,4,72.5,9.9,107.5,21.2c31.1,10,60.9,23.2,90.6,36.5
	c26.1,11.7,52.7,22.3,80.7,28.8c25.4,5.9,51.2,8.9,77.3,7.3c27.4-1.6,53.9-7.9,79.8-17.1c6-2.1,12.1-3.6,18.2-5.1
	c1.5-0.4,2.8-0.7,4,0.7c1.4,1.7,0.8,3-0.1,4.5c-2.1,3.6-4.2,7.1-7.3,10c-37.7,34-81.6,55.1-131.7,63.4
	c-70,11.6-135.7-1.5-197.8-34.8c-24.7-13.3-47.4-29.7-70.9-44.8c-15.6-10-31.1-19.9-46.6-30.1c-13.8-9.1-29-13.1-45.3-13.4
	c-7.8-0.2-15.7-0.3-23.5,0.7c-5,0.7-5.5,0.9-9.1,5.9c5.7,5.2,11.6,10.2,18.3,14.4c33.9,21.1,68.2,41.7,101.8,63.3
	c20,12.9,38.7,27.2,55.7,43.8c7.3,7.1,14.8,13.9,22.2,20.9c7.1,6.7,7.3,11,0.8,18.4c-5.5,6.3-11.6,11.9-18.6,16.7
	c-10.6,7.3-18.7,6.9-28.6-1.4c-5.9-4.9-11-10.7-16.1-16.4c-38.2-41.9-79.3-80.4-126.5-112.1c-15.6-10.5-31.9-19.9-48.4-28.9
	c-12.2-6.7-24.4-6.4-36.5,1c-19.1,11.9-38.3,23.5-57.5,35.2c-27.2,16.6-50.9,37.5-73.2,60.1c-19.3,19.6-38.8,39-58.2,58.5
	c-2.2,2.2-4.6,4.4-7.1,6.3c-6.5,4.8-13.6,5.3-20.7,1.4c-8.2-4.4-14.8-10.8-20-18.5c-4.3-6.4-3.6-12.3,1.8-18.7
	c5.2-6.3,11.8-11.3,17.9-16.6c48.9-42.1,101.1-79.4,157.5-110.7c7.7-4.2,14.9-9,18.3-17.9c-4.4-4.7-10-7-16.6-7.3
	c-16.8-0.8-32.4,2.7-46.7,11.7c-37.9,23.6-76,46.8-112.9,71.9c-30.1,20.6-63.3,33.8-98.5,42.3c-21,5.1-42.2,9.6-63.8,11.4
	c-14.6,1.2-28.9-1-43.1-4.3c-20.9-4.8-41.7-10.4-61.9-17.4c-26.2-9.1-49.2-24.1-71.4-40.4C431.4,1611.8,424.1,1606.3,416.8,1600.9z"
	/>
<path class="st0" d="M1927.7,1184.7c2,5.9,2.3,11.1-0.4,17c-12,26-25.2,51.4-40.9,75.4c-21.8,33.3-49.7,60.7-81.2,84.7
	c-25.1,19.1-51.1,36.6-80.4,48.8c-23.9,9.9-48.9,16.3-73.9,22.3c-35.7,8.6-71.5,16.9-107.6,23.7c-7.8,1.5-15.4,2.7-22.7-1.1
	c-0.7-8.5,2.8-14.8,8.2-21.1c18.7-21.2,31.9-45.8,43-71.6c13.9-32.4,24.7-66,37.1-99c15.1-40,31.4-79.5,53.3-116.4
	c9.7-16.3,20.9-31.7,32.5-46.7c2.8-3.7,7.3-4.8,11.2-6.6c4.3,6.6,2.8,13.3,1.8,20.1c-4.4,31.8-11,63.2-17.3,94.7
	c-4.4,22-9.4,43.9-14.2,65.8c-6.3,29-19,54.9-35.7,79c-4.6,6.6-9.4,12.9-14.2,19.4c-2.7,3.6-5.4,7.2-7.6,11.6
	c2.2,0.1,3.5-1.3,4.9-2.1c27.3-16.9,54.3-34.4,82.5-49.8c33.9-18.5,67.8-36.9,102.4-54.1c41.2-20.5,75.4-49.2,104.4-84.6
	C1916.9,1189.4,1921.5,1186.4,1927.7,1184.7z"/>
<path class="st0" d="M511.1,1466.9c-7.8,1.6-15.5,0.5-23.2-1c-43.7-8.6-87.5-16.8-131.2-25.7c-51.9-10.6-98.3-32.6-139.4-65.9
	c-38.5-31.2-71.2-67.7-97.9-109.4c-9.6-15-16.6-31.4-23.7-47.8c-2.9-6.6-2.8-13.2,1.8-20.1c5.3,5,11.1,9.2,15.5,14.8
	c25.1,31.8,56.7,55.6,92.4,74.2c44.8,23.2,89.4,46.6,133.7,70.7c14.4,7.8,27.6,17.3,41,26.7c5.9,4.1,11.8,8,18.4,11
	c2.8,1.3,4.6,1,6.3-1.8c-3.5-6-7-12-11.6-17.3c-18.4-21.4-33.3-44.8-42.5-71.7c-5-14.7-7.5-30-10.4-45.2
	c-8.7-45.4-15.6-91.1-26.8-136.1c-1.3-5.1-1.4-10.2-0.8-15.4c0.2-1.7-0.2-3.5,2.4-4.3c2.4-0.8,3.3,0.6,4.6,1.9
	c12.5,12.2,22.2,26.6,31.8,41c33.2,49.8,56.8,104.1,74.8,161c6.2,19.5,12.5,38.9,20.2,57.9c12.1,29.9,28.9,56.9,50.1,81.2
	c4.6,5.3,8.8,10.9,12.6,16.8C509.8,1463.8,511.1,1464.9,511.1,1466.9z"/>
<path class="st0" d="M1783.7,891.6c3.1,17,6.2,34,9.3,51c4.7,25.5,9,51.1,12.6,76.8c4.1,29.6,6,59.3,3.2,89.2
	c-2,20.9-6.2,41.4-13,61.4c-0.3,0.9-0.6,1.8-0.9,2.8c2.3,2.2,4.2,1.9,6-0.4c2.8-3.5,6.1-6.6,8.5-10.4c27.6-43.7,62-81.6,99-117.4
	c32.1-31.1,59.3-65.7,77.9-106.6c3.1-6.8,5.8-13.8,8.6-20.7c1.1-2.8,2.7-5.3,4.2-7.9c1.5-2.6,3.3-2.9,5.9-1.9
	c2.9,13,3.7,25.9,1.9,39.2c-4.1,30.3-11,59.8-22.3,88.3c-20.5,51.8-52,96.1-92.8,133.9c-29.1,26.9-61.3,49.7-95.2,70
	c-24.4,14.7-47.5,31.3-71.2,47.2c-4.8,3.2-10,5.1-15.9,6.2c-2-6.5-3-12.8-0.4-19.4c3.9-10.1,8.6-19.9,11.7-30.2
	c4.2-14.1,5.6-28.7,8.1-43.1c4.3-24.9,7.8-50,10.7-75.1c2.1-18.2,3.7-36.4,5.3-54.7c4-45.3,7.3-90.6,18.1-134.9
	c3.2-13.2,6.9-26.4,12.3-39C1777,891.9,1778.9,890.2,1783.7,891.6z"/>
<path class="st0" d="M1426.8,1499.8c9.5-1,19-2,28.6-3.1c19.9-2.2,39.7-4.5,59.5-6.7c20.4-2.2,40.7-4.5,61.1-6.6
	c12.9-1.3,25.9-2,38.8-3.4c50-5.5,97.1-19.4,139.1-48.2c5.8-4,12.3-5.6,18.7-7.7c3.7,2.2,2.5,4.3,0.7,7
	c-23.7,34.2-54.4,61.1-88.7,84.1c-36.2,24.3-75.9,39.8-118.9,46.6c-30.6,4.9-61.3,5-92.1,0.6c-51.6-7.4-102.5-18-153.3-29.7
	c-7.5-1.7-14.8-3.8-22.4-5.1c-10.4-1.8-19.6-6.2-28.7-12.5c6.3-4,11.8-8.8,18.9-10.8c51.5-14.6,94.4-43.3,132-80.6
	c38.7-38.4,78.5-75.6,118.1-113c5.1-4.8,11-8.6,17-12.2c3.2-1.9,6.6-1.7,10.1-1.3c1.8,4.7,1.8,9-0.4,13.6
	c-7.5,16.1-14.1,32.7-21.8,48.7c-18,37.4-42.7,70.2-70.2,101c-6,6.7-13.6,11.7-21.1,16.7c-7.8,5.1-15.8,9.9-23.2,15.6
	C1425.9,1494.5,1424.7,1496.6,1426.8,1499.8z"/>
<path class="st0" d="M256.5,1441.2c4.9-1.8,9.3-0.7,13.8,1.8c13.6,7.3,26.9,15.3,40.9,21.9c20.1,9.4,41.3,14.8,63.1,18.1
	c29.2,4.5,58.6,6.4,87.9,9.1c27.2,2.5,54.4,5.1,81.6,7.6c15.1,1.4,30.2,2.8,45.3,4.1c4.7,0.4,9.3,0.4,13.6-2.3
	c-1.3-2.2-3.4-3.3-5.5-4.3c-40.8-19.4-70.2-50.6-91.4-89.8c-14.8-27.4-29.1-55-43.7-82.5c-3-5.7-3.2-11.7-4.1-18.2
	c7,1,13,2.4,18.2,6.9c41.9,36.1,83.4,72.7,123.8,110.6c13.5,12.7,27.3,25,41.2,37.1c19.5,16.9,42.6,27.1,66.5,35.5
	c17.3,6.1,34.6,11.8,51.5,18.9c1.2,0.5,2.4,1,3.4,1.4c1,3.5-0.7,4.7-3.4,5.8c-10.8,4.2-22.1,6-33.3,8.6
	c-38.1,8.9-76.1,18-114.3,25.9c-33.3,6.9-66.6,12.8-100.8,13.7c-45.4,1.2-88.6-7-129.7-27c-31.1-15.2-61.3-31.4-87.7-54.1
	c-12.1-10.3-22.9-21.9-32.8-34.3C256.2,1450.6,255.7,1448.1,256.5,1441.2z"/>
<path class="st0" d="M123.1,383.1c3.1,6.2,2.9,11.9,1.6,18c-4.7,22.5-5.4,45.2-4.1,68.1c1.7,30.6,6.9,60.8,10.2,91.3
	c3.1,28.5,4.6,57.1,2.9,85.8c-0.6,10.2-1.1,20.3,0.6,30.4c1.2,0.9,2.5,1.2,4.3,1c3.8-13,8.6-25.5,14.7-37.6
	c14.2-28.3,33.6-52.7,55.6-75.2c25.3-25.8,52.3-49.9,78.6-74.7c1.5-1.4,2.8-2.4,5.2-1.4c2.3,1,2.1,2.7,2.2,4.5
	c1.3,15.4-3.6,29.6-8.4,43.8c-7.9,23.4-20.5,44.3-33.9,64.8c-29.6,45.5-59.3,90.9-88.3,136.8c-9.4,14.9-15.7,31.2-22.6,47.2
	c-1.9,4.4-3.4,9.1-6.6,12.8c-4.5,5.3-7.9,5.1-11.7-0.7c-0.8-1.2-1.4-2.7-1.8-4.1c-15.9-45.5-32.7-90.7-47-136.7
	c-6.2-19.9-11.9-39.8-14.1-60.6c-2-18.1-2.1-36.3-0.2-54.4c3.4-32.8,11.7-64.4,23.6-95.1c7.7-19.8,18.7-37.9,28.7-56.5
	C114.8,386.4,119.3,385.5,123.1,383.1z"/>
<path class="st0" d="M1850.9,1053.3c-6.3-6-8.9-13.3-9.9-21.5c-2.1-17.7-0.5-35.2,2.6-52.7c8.4-47.6,25.3-92.6,43.9-136.9
	c10.1-24.1,21.5-47.6,29.2-72.6c9.2-29.7,14.6-60.1,15.3-91.2c0.1-5.3,2.8-9,5.7-13.2c9.1,17.3,15.6,35.3,19.2,54.1
	c6.9,35.7,7.7,71.7,3.5,107.9c-7.3,62.3-30.4,118.5-65.2,170.2c-10.5,15.6-21.8,30.7-32.6,46.1
	C1859.4,1047.8,1855.1,1050.6,1850.9,1053.3z"/>
<path class="st1" d="M1151.9,138.5c-4.2,8.6-11.7,11.2-20,12.5c-16,2.3-32.1,3.8-47.9,6.8c-7.4,1.4-11.1,5.4-12,13
	c-0.1,1-0.1,2-0.3,3c-1,5.1-4,7-9.1,5.5c-9.7-3-18.8-7.6-28.1-11.5c-1.6-0.7-2.2-1.8-2.3-3.5c-0.2-4.8,1.3-8.8,5.4-11.7
	c3-2.2,6.5-3.4,10-4.3c21.8-5.8,43.7-11.6,65.7-16.6C1127.1,128.8,1139.6,132.5,1151.9,138.5z"/>
<path class="st1" d="M1351.6,236.5c5.3-2,10.1-3.4,15.3-1.6c6.2,2.2,9.8,8.9,7.5,14c-2.2,4.9-6,6.6-10.9,4.3
	C1356.5,250,1353.2,244,1351.6,236.5z"/>
<path class="st2" d="M483.8,1100.4c-9.2-7.2-18.2-13.6-16.7-26.6C479.9,1075.5,486,1088.6,483.8,1100.4z"/>
<path class="st2" d="M1397.2,489.1c4.5,0.8,7.6,1.7,10.5,3.3c4.3,2.3,5,4.6,2.7,8.9c-1,1.9-2.1,3.8-4.3,5.3
	C1403.3,500.9,1400.5,495.4,1397.2,489.1z"/>
<path class="st2" d="M1202.3,338.5c-11.1,0.7-17.3-4.5-20.3-15.8c0.9-1.5,2.6-1.9,4.5-2.4C1191.5,326.1,1196.6,332,1202.3,338.5z"/>
<path class="st2" d="M715,850.9c2.4-1.1,4.2-1.9,6.7-2.1c2.4,5.2,4.1,10.8,6,16.5c-2.2,1.1-4.1,2-6.6,2.1
	C718.5,862.1,717.2,856.5,715,850.9z"/>
<path class="st3" d="M2334.8,1037.3c-2.9,2-4.5,1.3-6.4-1.2c-4.9-6.4-8.7-13.2-11.9-20.7c-14.3-34.1-35-64.1-59.7-91.6
	c-20.1-22.4-42.7-42-65-62c-16.3-14.5-32-29.6-48-44.5c-21.5-20.1-43.1-40.3-64.6-60.4c-0.7-0.7-1.5-1.3-2.2-1.9
	c-3.4,0.8-3.7,2.9-2.9,5.7c2,6.2,4.3,12.3,7.2,18.1c10.4,20.6,14.7,42.6,16.6,65.4c1.6,19.9,2.6,39.9,2,59.9
	c-0.7,20.7-4.4,41-8.3,61.3c-1.2,6.4-2.7,12.7-3.5,19.1c-0.7,5-2.8,8.7-7.6,11.2c-3.5-2.1-6.4-4.8-8.3-8.6
	c-6-11.7-8.3-24.5-11.4-37.1c-12.2-50.7-23.6-101.5-35-152.3c-11.2-49.9-32-95.5-64.1-135.7c-4.7-5.9-9.4-15.9-10.4-21.8
	c11.3,0.9,21.6,4.5,31.6,9.6c32.4,16.4,65.1,32.1,97.1,49.3c28,15,56.1,29.8,83.1,46.8c36.4,22.9,68,51.2,94.8,84.9
	c40.7,51.3,64.2,110,74.8,174.3C2334.4,1015.9,2334.7,1026.7,2334.8,1037.3z"/>
<path class="st3" d="M2192.5,997.5c-1.7-0.3-2.9,0.6-4.6,1.1c0.4,10,0.7,19.8,1.4,29.5c2,27.4-2.8,53.7-11,79.7
	c-5.7,18.1-13.8,35.3-20.2,53.2c-8.1,22.6-16,45.2-23.9,67.9c-2.5,7.1-6.4,13.6-9.9,20.1c-1.5,2.8-4.8,2.8-6.1-0.1
	c-1.8-3.9-3.7-7.8-4.3-12.2c-2.7-18.1-2.2-36.2-1.4-54.4c0.9-20.6,1.7-41.3,2.7-61.9c1.5-30.8,2.7-61.6,6-92.2
	c2-18.5,5.9-36.8,9.5-55.1c5-25.5,4.4-50.7-3.2-75.6c-3.1-10.1-4.3-20.5-4.4-31c0-1.7,0-3.4,0.4-5c1-4.2,4-5.6,8-3.8
	c2.6,1.2,4.7,3.2,6.7,5.2c12.5,12,24.8,24.1,37.4,36.1c18.4,17.6,37,35,56.3,51.7c17.7,15.4,32.1,33.7,44.7,53.5
	c20.6,32.5,38.5,66.2,49,103.5c7,24.8,11.4,49.9,13.8,75.5c1.3,13.9,1.5,27.9,2.7,41.9c1.1,12-2,23.1-6.2,34.1
	c-0.8,2.1-1.9,2.8-4.1,2.7c-2.2-0.1-3.7-0.6-4.5-2.9c-2.7-7.2-4.9-14.5-6.9-21.9c-9.1-35-24.7-67.1-43.4-97.8
	c-9-14.8-18.4-29.4-28.6-43.4c-12.8-17.6-22.5-37-31.9-56.5C2209.3,1025,2202.5,1010.3,2192.5,997.5z"/>
<path class="st3" d="M2097.1,1455.4c-4.4-7.8-6-15.1-4.5-23.8c7.5-44.9,21.7-87.5,41-128.5c20.8-44.1,41.7-88.2,61.6-132.7
	c5.1-11.5,7.6-23.8,10.6-35.9c1.6-6.7,3.7-13.1,6.6-19.4c0.8-1.7,1.4-3.3,3.7-3.5c2.4-0.2,3.1,1.4,4,3
	c25.3,46.9,51.3,93.5,73.6,141.9c14.7,31.9,23.5,65.4,26.4,100.4c3,36.1-0.8,71.5-9.6,106.5c-4.5,17.6-9.1,35.1-14.5,52.5
	c-2.5,8.1-7.6,14.8-12.2,21.7c-1.6,2.4-4.5,2-5.4-0.7c-1.4-4.2-3-8.5-2.5-13.1c4.2-35.4-1.7-69.7-10.3-103.8
	c-8.1-32.1-17.6-63.9-25.1-96.1c-4.8-20.8-8.3-41.8-8.6-63.2c0-2.2-0.4-4.3-1.2-6.4c-1.3-3.1-3.8-3.4-6.1-0.8
	c-3.9,4.5-6.2,9.6-7.5,15.5c-6.2,27.8-19,52.5-35.4,75.5c-24,33.6-48.2,67.1-72.2,100.7C2106.4,1449.6,2101.7,1452,2097.1,1455.4z"
	/>
<path class="st3" d="M2039.7,1641.8c-4.2-6-5.4-12-4.2-19.1c5.3-32.3,18.4-61.4,35.6-88.9c13.4-21.4,29.8-40.5,46.4-59.3
	c23.5-26.6,45-54.8,65.6-83.6c10.2-14.2,20.6-28.3,31.6-41.8c0.4-0.5,0.8-1.1,2.2-1c1.7,6.3,3.5,12.8,5,19.4
	c6.8,29.2,12,58.7,17.8,88.1c3.3,16.8,6.9,33.6,9.4,50.6c5.1,34.5-0.1,67.6-12.7,99.9c-5.4,13.7-13,26.2-18.9,39.7
	c-2.9,6.7-7.6,12.1-11.9,17.7c-8.3,10.8-16.9,21.4-25.3,32.1c-1.1,1.3-2.1,2.5-3.7,3.2c-5.6,2.6-11.2,5.2-16.8,7.8
	c-1.2,0.6-2.3,1.3-3.7,0.2c-1.5-1.2-1.7-2.7-1.2-4.5c1.2-4,2.1-8.1,4.5-11.6c13.3-20.2,18.9-42.8,21.3-66.4
	c4.2-42.4,8.1-84.9,11.9-127.3c0.7-8.3,2.2-16.5,1.3-24.9c-0.1-1-0.2-2-0.3-3c-0.2-1.5-0.5-3.1-2.2-3.5c-2-0.5-2.6,1.2-3.3,2.4
	c-2.7,5-5.3,10-8.1,14.9c-5.9,10.4-14.4,18.7-22.2,27.6c-27.3,31.2-55.1,61.9-82.1,93.4c-7.8,9.1-15.5,18.3-23.3,27.4
	C2048.9,1635.2,2044.9,1638.8,2039.7,1641.8z"/>
<path class="st3" d="M1981.2,1827.9c-1.5-5.2-1.6-9.9,1.7-14.2c15.5-20.6,26-44,37.8-66.8c15.2-29.5,32.8-57.5,51.1-85.1
	c9.7-14.7,19.7-29.2,29.4-44c9.3-14.1,20.5-26.6,31.7-39.2c3.3-3.7,6.7-7.4,9.9-11.2c3.2-3.8,7.4-6.1,11.6-8.5
	c2.8-1.6,5.3,0.2,5,3.4c-5.3,45-11.7,89.8-30.1,131.9c-9.6,21.8-22.6,41.4-38.7,59c-27.6,30.2-60,53.9-96.5,72.2
	C1990,1827.5,1985.9,1828.2,1981.2,1827.9z"/>
<path class="st4" d="M844,3385c-1.3,0-2.7,0-4,0c0-10.3,0-20.7,0-31h0.5h0.5c0.1,0.7,0.2,1.3,0.3,2c0.9,9.4,1.8,18.7,2.7,28.1
	C844,3384.4,844,3384.7,844,3385z"/>
<path class="st5" d="M844,3385c0-0.3,0-0.6,0-1c5.7,0,11.4,0,17,0c0,0.3,0,0.6,0,1C855.3,3385,849.7,3385,844,3385z"/>
<path class="st6" d="M841,3354h-0.5H840c0-5,0-10,0-15c0.3,0,0.7,0,1,0C841,3344,841,3349,841,3354z"/>
<path class="st7" d="M1182,3385c0-0.4,0-0.7,0-1.1c3.9-0.1,7.9-0.2,11.8-0.3c0.1,0.4,0.1,0.9,0.2,1.3C1190,3385,1186,3385,1182,3385
	z"/>
<path class="st8" d="M841,3354c0-5,0-10,0-15c1-19,1.9-37.9,3-56.9c1.2-22.6,2.6-45.2,3.8-67.9c1.3-24.3,2.4-48.6,3.5-72.9
	c1.5-30.6,3.1-61.2,4.4-91.8c1.6-35.9,3-71.9,4.5-107.9c1.2-28.8,2.3-57.6,3.5-86.4c1.2-27.6,2.3-55.3,3.5-82.9
	c1.5-32.8,3.2-65.6,4.6-98.3c1.5-34.1,2.9-68.2,4.3-102.4c1.1-26.6,1.9-53.3,3-79.9c1.4-34.6,3.1-69.2,4.5-103.9
	c0.9-20.6,1.6-41.3,2.5-61.9c1.5-32.5,3.1-64.9,4.5-97.3c1.2-26.5,2.3-52.9,3.5-79.4c1.4-30.3,2.9-60.6,4.4-90.8
	c1.1-22,2.1-43.9,3.1-65.9c1.3-25.8,2.6-51.6,3.9-77.4c0.8-16.6,1.5-33.3,2.3-49.9c1.3-27,2.6-53.9,3.9-80.9c1-21,1.8-41.9,3.2-62.9
	c0.4-5.9,2.1-11.7,3.6-17.6c0.3-1.1,1.7-2.2,2.9-2.8c1.3-0.6,2.9-0.7,4.4-0.8c11.8-1.3,17.5,3.8,17,15.6c-0.7,15-1.9,29.9-2.7,44.9
	c-0.8,13.8-1.5,27.6-2.2,41.4c-1.3,24.8-2.6,49.6-3.9,74.4c-1.2,23.6-2.3,47.3-3.5,70.9c-1.5,30.6-3.1,61.2-4.6,91.8
	c-1.3,27-2.5,53.9-3.6,80.9c-1.4,35.6-2.7,71.3-4,106.9c-1,27.8-1.9,55.6-2.9,83.4c-1.3,35.5-2.6,70.9-4,106.4
	c-0.9,22.6-1.8,45.3-2.9,67.9c-1.7,33.3-3.8,66.5-5.6,99.8c-1.3,24.8-2.5,49.6-3.5,74.4c-1.5,35.6-2.7,71.2-4,106.9
	c-1,26-1.8,51.9-2.9,77.9c-1.4,30.8-2.9,61.6-4.6,92.3c-1.7,31.4-3.6,62.9-5.5,94.3c-2.2,35.1-4.6,70.1-6.6,105.2
	c-1,18.6-1.3,37.3-2,55.9c-1.3,36.8-2.6,73.6-4.1,110.4c-0.8,21-2,41.9-3,62.9c-0.3,6.9-2.1,13.4-5.9,19.2c-5.7,0-11.4,0-17,0
	c-0.9-9.4-1.8-18.7-2.7-28.1C841.2,3355.3,841.1,3354.7,841,3354z"/>
<path class="st8" d="M1193.8,3383.7c-3.9,0.1-7.9,0.2-11.8,0.3c-7-7.1-8.8-16.2-9.9-25.5c-0.2-1.5-0.2-3-0.2-4.5
	c-0.8-21.1-1.6-42.3-2.6-63.4c-1-21.8-2.3-43.6-3.4-65.4c-2-39.8-4-79.5-5.9-119.3c-1.4-28.6-2.8-57.2-4.1-85.9
	c-1.8-39.6-3.3-79.2-5.1-118.8c-1.8-40.4-3.7-80.9-5.5-121.3c-1.1-24.8-2.1-49.6-3.2-74.4c-1.7-37.6-3.3-75.2-5.3-112.8
	c-1.9-36.3-4-72.5-6.1-108.8c-2.1-36.6-4.4-73.1-6.4-109.7c-1.4-25.5-2.4-50.9-3.6-76.4c-1.7-35.1-3.6-70.2-5.3-105.3
	c-0.9-19.3-1.7-38.6-2.6-57.9c-1.1-22.8-2.3-45.6-3.4-68.4c-0.9-19.5-1.7-39-2.6-58.4c-1.1-22.5-2.3-44.9-3.4-67.4
	c-1.5-29.8-3-59.6-4.6-89.3c-1.4-26.3-3-52.5-4.4-78.8c-0.9-16.6-1.5-33.3-2.1-49.9c-0.1-3.8,0.4-7.7,1-11.4
	c1-5.5,6.2-10.5,10.6-10.5c5.1,0,10.4,4.3,11.3,10.1c2,12.8,4.5,25.6,5.3,38.5c2.3,38.4,3.9,76.9,5.6,115.3
	c1.5,33.3,2.7,66.6,4.1,99.9c1.5,37.4,3.1,74.9,4.7,112.3c1.8,42.4,3.4,84.9,5.4,127.3c1.7,35.8,3.9,71.5,5.7,107.3
	c1.5,28.1,2.7,56.2,4.1,84.4c2.2,43.8,4.4,87.5,6.5,131.3c2.6,54.1,4.9,108.2,7.5,162.2c2,42.1,4.2,84.2,6.5,126.3
	c1.3,25.1,2.8,50.2,4.4,75.3c2.1,32.9,4.5,65.8,6.4,98.7c1.8,30.8,3.1,61.6,4.6,92.3c1.3,27.5,2.5,54.9,3.7,82.4
	c1.2,25.8,2.3,51.6,3.4,77.4c1.3,30.8,3.2,61.6,3.7,92.4C1197.1,3350.5,1194.9,3367.1,1193.8,3383.7z"/>
<path class="st8" d="M941.8,3382.8c-4.5,0-8.3,0-12.4,0c-0.4-5.4-1.2-10.7-1.2-15.9c0-20.5,0.2-41,0.5-61.4
	c0.2-12.7,0.8-25.3,1.2-38c1.5-52,3-103.9,4.3-155.9c0.8-32,1.4-64,2.2-96c1-44.1,2-88.3,3-132.4c0.6-28.3,1.3-56.6,1.9-85
	c1.4-60.3,2.9-120.6,4.2-180.9c0.8-36.2,1.3-72.3,1.9-108.5c0.7-37.8,1.3-75.6,2.1-113.5c0.9-42.5,1.8-85,2.9-127.4
	c0.8-30.3,1.9-60.6,3-90.9c1.6-46.5,3.6-92.9,5-139.4c1.3-43,2.1-86,3-128.9c0.7-33.5,1.2-67,1.9-100.5c0.5-21.5,1.1-43,2-64.4
	c0.4-9,1.3-18,3-26.8c1.1-5.4,4.2-10.4,6.7-15.5c0.4-0.9,2.5-1.5,3.7-1.3s3,1.3,3.2,2.3c1.3,6,3.2,12.1,3.2,18.1
	c-0.6,51.7-1.5,103.3-2.5,155c-0.6,34.5-1.3,69-2,103.5c-1,49.1-2,98.3-2.9,147.4c-0.8,41.3-1.2,82.6-2.1,124
	c-1.1,53.1-2.6,106.3-3.9,159.4c-0.9,37-2,74-3,110.9c-1.3,47.3-2.7,94.6-4,141.9c-0.7,26.1-1.4,52.3-2,78.5
	c-1.4,62.5-2.7,124.9-4.1,187.4c-0.6,28.7-1.2,57.3-1.9,86c-1.3,54-2.7,107.9-4.1,161.9c-0.9,33.3-1.6,66.6-3,99.9
	c-1.2,28.3-2.9,56.6-5,84.8C946.2,3368.3,943.6,3375.4,941.8,3382.8z"/>
<path class="st9" d="M1102.9,3382.8c-2.1,0-3.8,0-6,0c-1.9-9.9-4.2-19.6-5.7-29.5c-4.1-26.3-3.4-52.8-4.3-79.3
	c-1-29.6-1.4-59.3-2-88.9c-1-45.3-2-90.6-3.1-135.9c-0.9-40.8-1.9-81.6-2.9-122.4c-1-44.1-2.1-88.3-3.1-132.4
	c-0.9-38.6-1.9-77.3-2.8-115.9c-1.1-44.6-2.1-89.3-3.1-133.9c-0.9-38.8-1.9-77.6-2.9-116.4c-1-38.1-2.1-76.3-3.1-114.4
	c-1.3-50-2.7-99.9-3.9-149.9c-0.8-32.6-1.4-65.3-2.1-97.9c-0.9-40.5-1.8-81-2.9-121.4c-0.8-29.5-1.8-58.9-3.1-88.4
	c-1.6-36.9-3.5-73.9-5.4-110.8c-0.5-10-0.1-20,1.9-29.8c1.4-7,1.3-7,8.4-11.5c4.8,2.1,8.2,5.5,9.1,10.9c1,6.4,2.6,12.8,2.7,19.2
	c0.5,24.5,0.4,49,0.7,73.5c0.5,34.3,0.9,68.6,2,102.9c0.8,23.8,3,47.5,4.3,71.3c1.1,22,2.2,43.9,2.5,65.9
	c1.2,92,2.1,183.9,3.2,275.9c0.4,31.8,1.1,63.6,2,95.4c1.1,42.1,2.6,84.3,3.9,126.4c0.7,25.3,1.3,50.6,2,75.9
	c1.4,53.5,2.7,106.9,4.1,160.4c0.6,23.6,1.2,47.3,1.9,70.9c1.4,49.8,2.8,99.6,4.2,149.4c0.6,20.6,1.1,41.3,1.7,61.9
	c1.5,52.8,3.1,105.6,4.6,158.4c0.5,15.7,0.9,31.3,1.3,47c0.7,27.3,1.1,54.6,2.1,81.9C1109.2,3362.3,1106.9,3372.5,1102.9,3382.8z"/>
<path class="st10" d="M1030,3385c-3,0-6,0-9,0c-5.3-10.3-7.7-21.3-6.9-32.8c1-15.5,0.6-31,0.4-46.5c-0.6-49-1.1-98-1.5-147
	c-0.4-51-0.8-102-0.9-153c-0.2-76.2-0.1-152.3-0.2-228.5c-0.1-47.3-0.4-94.7-0.5-142c-0.1-53.2-0.9-106.3-1.6-159.5
	c-0.5-41.2-1.1-82.3-1.5-123.5c-0.3-39.2-0.4-78.3-0.6-117.5c-0.2-39.7-0.5-79.3-0.7-119c-0.4-69.5-0.7-139-1.1-208.5
	c-0.2-36.5-0.6-73-1.1-109.5c-0.2-18.7-0.6-37.3-0.8-56c0.3-6,0.4-12,0-18c0.8-5.3,0.5-10.7,2.1-15.8c1.3-4.1,5.7-8.1,8.7-8
	c3.8,0.1,8.2,4.3,9,8.8c1.5,9,2.9,18.1,3,27.3c0.4,28.2,0.8,56.3,0.9,84.5c0.1,49.5,0,99,0,148.5c0,54.5-0.2,109-0.2,163.4
	c0,54.8,0.6,109.6,1.2,164.4c0.5,44,0.7,88,1,132c0.2,39.7,0.3,79.3,0.5,119c0.2,39.8,0.6,79.6,0.6,119.5
	c0.1,71.3,0.6,142.6,2,213.9c0.7,36.6,1.4,73.3,2,109.9c0.7,44.1,0.6,88.3,0.5,132.4c0,53.5,0.5,107,0.6,160.4c0,31.5,1,63-4.1,94.3
	C1031.5,3380.7,1031.8,3383.2,1030,3385z"/>
<path class="st11" d="M1004,1742h-0.5h-0.5c0-6,0-12,0-18c0.3,0,0.7,0,1,0C1004.4,1730,1004.3,1736,1004,1742z"/>
<path class="st12" d="M332,304c-0.3,0-0.7,0-1,0c-0.3-3.7-0.3-7.3,0-11c0.3,0,0.7,0,1,0C332,296.7,332,300.3,332,304z"/>
<path class="st3" d="M331,293c-0.3,3.7-0.3,7.3,0,11c-1.8,21.6-7.1,42.3-16.7,61.8c-7.1,14.6-16.1,28-25.6,41
	c-27.7,37.8-56.6,74.5-85.2,111.6c-2.3,2.9-4.8,5.6-8,7.4c-4,2.2-7.1,1.2-9-2.9c-0.7-1.6-1.2-3.5-1.5-5.2
	c-8.5-53.8-19.8-106.9-36.2-159c-6.9-21.9-12.5-44.2-14.4-67.2c-2.4-30.1,0.8-59.5,11-88c2.3-6.4,6.3-12,10-17.4
	c3.5,0.1,4.1,2.3,4.8,4.7c7.3,26,14.5,51.9,21.8,77.8c13.4,47.4,26.7,94.8,40.1,142.2c0.3,0.9,0.7,1.9,1.4,3.9
	c2.8-5,5.6-9.1,7.4-13.6c15.9-39.5,33-78.6,47.4-118.7c8.9-24.7,14.5-50.2,14.8-76.6c0.1-4.3,1.5-8.4,4.6-13.7
	c4.9,2.9,9.3,6.1,12.4,11.1c10.3,16.6,15.3,34.9,17.8,54.1C329.5,269.1,330,281.1,331,293z"/>
<path class="st3" d="M229.5,309c-5.8-4.1-8.8-9.2-10.5-15.7c-7.4-29.7-16.7-58.9-22.4-89c-3.7-20-5.5-40.2-6.7-60.5
	C187.8,108.5,188,73.2,186,38c-0.7-11.8-1.7-23.5-2.7-36.2c7.2,4.9,14.6,7.8,19.9,14.5c23.6,29.8,42.1,62.3,54,98.4
	c6.8,20.5,11.1,41.5,11.4,63.1c0.3,22.3-3.2,44.1-9,65.6c-5.2,19-12.4,37.3-20.1,55.3C237.6,303.4,233.5,306.1,229.5,309z"/>
<g class="st13">
	<path class="st14" d="M478.1,3508.2c0-31.8-0.7-38.1-16.1-39.8l-6.4-0.7c-3.3-1.7-3.3-11.4,0.7-11.7c28.1-1.7,54.2-3,89.6-3
		c27.4,0,54.9,2.7,77.9,11c43.8,15.7,67.9,55.2,67.9,97c0,44.8-21.4,80.9-59.9,100c-22.7,11.4-50.2,15.7-84.6,15.7
		c-15.7,0-32.4-2-44.5-2c-16.1,0-33.1,0.3-52.2,1c-2.7-2-2.7-10,0-11.7l10.4-1.7c15.1-2.3,17.1-5,17.1-35.8V3508.2z M526,3614.2
		c0,18.4,0.7,30.4,6.7,37.5c6,6.7,15.7,9.7,27.8,9.7c57.9,0,77.6-51.5,77.6-97c0-60.2-31.8-96-92.3-96c-9,0-15.4,1.7-17.4,4.3
		c-2,2.7-2.3,9-2.3,19.4V3614.2z"/>
	<path class="st14" d="M778.8,3680.1c-30.8,0-49.8-8.7-56.9-12.7c-6.4-7.4-10.7-31.4-10.7-54.2c2.3-4.3,10-4.7,12.7-1
		c6.7,21.7,29.1,52.5,57.5,52.5c24.8,0,36.1-17.1,36.1-33.8c0-27.1-25.4-43.1-45.5-53.2c-24.1-12-50.5-32.1-50.5-65.2
		c-0.3-37.8,29.1-63.9,77.6-63.9c11,0,24.8,1.3,38.1,5.4c4.3,1.3,7.4,2,11.4,2.7c2.7,7.4,6,25.4,6,47.8c-1.7,4-10,4.3-13,1
		c-5.7-17.1-20.1-41.5-44.2-41.5c-22.1,0-34.1,14.4-34.1,31.1c0,15.4,13.7,29.4,30.4,38.1l22.1,11.7c20.7,11,47.2,30.4,47.2,67.2
		C863.1,3653.3,829.4,3680.1,778.8,3680.1z"/>
	<path class="st14" d="M882.5,3464.7c-2.7-2.7-2.7-10.7,1-11.7c11.4,0.7,25.8,1,42.1,1c11,0,20.7,0,32.8-1
		c0,20.7,11.7,41.1,26.4,72.6l22.1,47.2c3,6.7,15.1,27.8,19.7,36.1c4.3-8,9.7-18.4,18.7-38.1l17.1-36.8
		c16.1-34.5,24.4-52.2,31.8-80.9c15.4,1.3,23.1,1,33.1,1c11,0,26.4-0.3,38.5-1c3.7,2,3.7,8.4,1,11.7l-9.7,1.7
		c-13.7,2.3-20.4,6.4-20.4,24.1c0,68.9,0.7,105,2.7,147.2c0.7,15.4,2,23.4,15.1,25.1l10.7,1.3c2.7,2.7,2.7,10.4-0.7,11.7
		c-15.4-0.7-29.8-1-46.2-1c-15.1,0-33.4,0.3-49.5,1c-4-1.7-4.3-9.4-1-11.7l10-1.3c15.4-2,15.4-6,15.4-26.4l-0.7-87v-38.1h-0.7
		c-24.8,53.5-51.5,109.4-73.6,165.9c-1.7,1.3-4,2.3-6.7,2.3c-3,0-6.7-0.7-8.7-2c-13-41.5-54.2-124.4-72.9-167.9h-0.7
		c-1.3,21.7-1.7,36.5-2,53.9c-0.3,21.7-0.7,55.2-0.7,75.3c0,16.7,2,21.4,15.4,23.4l13,2c2.7,2.3,2,10-0.7,11.7
		c-12.4-0.7-26.8-1-39.5-1c-10.7,0-23.4,0.3-36.8,1c-4.3-1.3-4.3-10-1.3-11.7l6-1c17.1-3,19.1-5,21.1-25.8
		c1.7-16.4,2.7-45.5,4.7-77.3c1.3-22.4,2-49.5,2-67.6c0-19.1-7.4-24.1-20.7-26.4L882.5,3464.7z"/>
	<path class="st14" d="M1209.7,3502.1c0-31.1-2-33.1-17.1-36.1l-8.4-1.7c-2.7-2-3-9.4,0.7-11.4c16.1,0.7,32.8,1,48.8,1
		c16.4,0,32.8-0.3,48.8-1c2.7,2,2.7,9.4,0,11.4l-8,1.3c-15.1,2.7-17.1,5.4-17.1,36.5v77.3c0,39.1,4.3,82.3,55.2,82.3
		c42.8,0,55.9-37.5,55.9-83.3v-40.5c0-27.1-1.3-52.5-5-61.2c-3-7-10.4-9-19.4-10.7l-9-1.7c-2.7-2.7-2-9.4,0-11.4
		c18.1,0.7,31.1,1,44.8,1c12.4,0,24.8-0.3,37.5-1c2,2,2.7,8.7,0,11.4l-6,1.3c-8.7,2-15.1,4-18.1,11c-3.7,8.7-5,34.1-5,61.2v37.5
		c0,31.4-3,60.2-21.4,80.6c-14.7,15.7-39.1,24.1-66.2,24.1c-25.4,0-48.2-4-66.2-18.7c-17.4-14.4-24.8-39.1-24.8-75.6V3502.1z"/>
	<path class="st14" d="M1637.1,3617.9c0,21.7,0,42.8,0.7,53.9c-2.3,4-11.7,7.7-19.7,7.7c-0.3,0-11.4-17.1-27.1-36.5l-77.3-95.7
		c-19.4-23.7-30.4-37.8-36.5-42.8c-1.7,3.3-1.7,9-1.7,21.4v64.9c0,27.1,1.3,52.2,5,61.2c3,7,10.7,9.4,19.4,10.7l9.4,1.3
		c2.7,2.7,2,9.7,0,11.7c-18.1-0.7-31.4-1-44.8-1c-12.4,0-24.8,0.3-37.5,1c-2-2-2.7-9,0-11.7l5.7-1c9-1.7,15.7-4,18.4-11
		c3.7-9,4.7-34.1,4.7-61.2v-85c0-18.4-0.3-23.7-2.3-28.4c-2.7-5.7-7.4-9.7-19.1-11.4l-9.4-1.3c-2.3-2.7-2-10.7,1.3-11.7
		c15.7,0.7,32.4,1,46.2,1c11.4,0,21.1-0.3,28.1-1c3.3,15.1,25.1,40.5,55.2,76.3l28.1,33.1c14.7,17.4,24.4,29.1,32.1,36.8
		c1.3-3.3,1.3-9,1.3-15.1v-46.2c0-27.1-1.3-52.2-5-61.2c-3-7-10.4-9.4-19.4-10.7l-9-1.3c-2.7-2.7-2-9.7,0-11.7
		c18.1,0.7,31.1,1,44.8,1c12.4,0,24.4-0.3,37.5-1c2,2,2.7,9,0,11.7l-6,1c-8.7,1.3-15.1,4-18.1,11c-3.7,9-5,34.1-5,61.2V3617.9z"/>
</g>
<g>
	<line class="st15" x1="446.8" y1="3416.9" x2="1668.7" y2="3416.9"/>
	<line class="st15" x1="446.8" y1="3709.9" x2="1668.7" y2="3709.9"/>
</g>
</svg>
